<?xml version="1.0" standalone="no"?>
<!DOCTYPE svg PUBLIC "-//W3C//DTD SVG 1.1//EN" "http://www.w3.org/Graphics/SVG/1.1/DTD/svg11.dtd" >
<svg xmlns="http://www.w3.org/2000/svg">
<metadata></metadata>
<defs>
<font id="sanchezblack" horiz-adv-x="616" >
<font-face units-per-em="1000" ascent="750" descent="-250" />
<missing-glyph horiz-adv-x="250" />
<glyph unicode="ff" horiz-adv-x="855" d="M773 0h-292q-15 0 -15 15v104q0 15 15 15h44v224h-258v-224h79q15 0 15 -15v-104q0 -15 -15 -15h-292q-15 0 -15 15v104q0 15 15 15h44v224h-44q-15 0 -15 15v104q0 15 15 15h44v31q0 100 51.5 152t151.5 52q39 0 72.5 -12t50.5 -24t34 -28q3 -4 5 -5q13 -13 5 -22 l-60 -79q-10 -11 -22 -2q-28 24 -66 24q-53 0 -53 -56v-31h258v31q0 100 51.5 152t151.5 52q39 0 72.5 -12t50.5 -24t34 -28q3 -4 5 -5q13 -13 5 -22l-60 -79q-10 -11 -22 -2q-28 24 -66 24q-53 0 -53 -56v-31h127q15 0 15 -15v-104q0 -15 -15 -15h-127v-224h79q15 0 15 -15 v-104q0 -15 -15 -15z" />
<glyph unicode="fi" horiz-adv-x="774" d="M727 0h-248q-15 0 -15 15v104q0 15 15 15h44v224h-256v-224h79q15 0 15 -15v-104q0 -15 -15 -15h-292q-15 0 -15 15v104q0 15 15 15h44v224h-44q-15 0 -15 15v104q0 15 15 15h44v31q0 100 51.5 152t151.5 52q39 0 72.5 -12t50.5 -24t34 -28q3 -4 5 -5q13 -13 5 -22 l-60 -79q-10 -11 -22 -2q-28 24 -66 24q-53 0 -53 -56v-31h409q15 0 15 -15v-343h36q15 0 15 -15v-104q0 -15 -15 -15zM695 642q0 -43 -30 -73t-73 -30t-73 30t-30 73t30 73t73 30t73 -30t30 -73z" />
<glyph unicode="fl" horiz-adv-x="768" d="M346 0h-292q-15 0 -15 15v104q0 15 15 15h44v224h-44q-15 0 -15 15v104q0 15 15 15h44v31q0 100 51.5 152t151.5 52q39 0 72.5 -12t50.5 -24t34 -28q3 -4 5 -5q13 -13 5 -22l-60 -79q-10 -11 -22 -2q-28 24 -66 24q-53 0 -53 -56v-31h127q15 0 15 -15v-104q0 -15 -15 -15 h-127v-224h79q15 0 15 -15v-104q0 -15 -15 -15zM717 0h-248q-15 0 -15 15v104q0 15 15 15h44v451h-18q-15 0 -15 15v104q0 15 15 15h171q15 0 15 -15v-570h36q15 0 15 -15v-104q0 -15 -15 -15z" />
<glyph unicode="ffi" horiz-adv-x="1201" d="M1154 0h-248q-15 0 -15 15v104q0 15 15 15h44v224h-256v-224h79q15 0 15 -15v-104q0 -15 -15 -15h-292q-15 0 -15 15v104q0 15 15 15h44v224h-258v-224h79q15 0 15 -15v-104q0 -15 -15 -15h-292q-15 0 -15 15v104q0 15 15 15h44v224h-44q-15 0 -15 15v104q0 15 15 15h44 v31q0 100 51.5 152t151.5 52q39 0 72.5 -12t50.5 -24t34 -28q3 -4 5 -5q13 -13 5 -22l-60 -79q-10 -11 -22 -2q-28 24 -66 24q-53 0 -53 -56v-31h258v31q0 100 51.5 152t151.5 52q39 0 72.5 -12t50.5 -24t34 -28q3 -4 5 -5q13 -13 5 -22l-60 -79q-10 -11 -22 -2 q-28 24 -66 24q-53 0 -53 -56v-31h409q15 0 15 -15v-343h36q15 0 15 -15v-104q0 -15 -15 -15zM1122 642q0 -43 -30 -73t-73 -30t-73 30t-30 73t30 73t73 30t73 -30t30 -73z" />
<glyph unicode="ffl" horiz-adv-x="1195" d="M773 0h-292q-15 0 -15 15v104q0 15 15 15h44v224h-258v-224h79q15 0 15 -15v-104q0 -15 -15 -15h-292q-15 0 -15 15v104q0 15 15 15h44v224h-44q-15 0 -15 15v104q0 15 15 15h44v31q0 100 51.5 152t151.5 52q39 0 72.5 -12t50.5 -24t34 -28q3 -4 5 -5q13 -13 5 -22 l-60 -79q-10 -11 -22 -2q-28 24 -66 24q-53 0 -53 -56v-31h258v31q0 100 51.5 152t151.5 52q39 0 72.5 -12t50.5 -24t34 -28q3 -4 5 -5q13 -13 5 -22l-60 -79q-10 -11 -22 -2q-28 24 -66 24q-53 0 -53 -56v-31h127q15 0 15 -15v-104q0 -15 -15 -15h-127v-224h79q15 0 15 -15 v-104q0 -15 -15 -15zM1144 0h-248q-15 0 -15 15v104q0 15 15 15h44v451h-18q-15 0 -15 15v104q0 15 15 15h171q15 0 15 -15v-570h36q15 0 15 -15v-104q0 -15 -15 -15z" />
<glyph unicode=" "  horiz-adv-x="250" />
<glyph unicode="&#x09;" horiz-adv-x="250" />
<glyph unicode="&#xa0;" horiz-adv-x="250" />
<glyph unicode="!" horiz-adv-x="327" d="M217 148h-108q-15 0 -15 15l-15 582q0 15 15 15h138q15 0 15 -15l-15 -582q0 -15 -15 -15zM259 -37q0 -39 -27.5 -66.5t-66.5 -27.5t-66.5 27.5t-27.5 66.5t27.5 66.5t66.5 27.5t66.5 -27.5t27.5 -66.5z" />
<glyph unicode="&#x22;" horiz-adv-x="417" d="M153 528h-76q-7 0 -12.5 5t-5.5 13l-10 186q0 8 5.5 13t12.5 5h97q8 0 13.5 -5.5t4.5 -12.5l-11 -186q-2 -18 -18 -18zM339 528h-76q-7 0 -12.5 5t-5.5 13l-10 186q0 8 5.5 13t12.5 5h97q8 0 13.5 -5.5t4.5 -12.5l-11 -186q-2 -18 -18 -18z" />
<glyph unicode="#" horiz-adv-x="642" d="M543 92h-86l-24 -84q-5 -15 -19 -15h-108q-16 0 -11 15l24 84h-79l-24 -84q-4 -15 -19 -15h-108q-15 0 -11 15l24 84h-53q-15 0 -15 15v80q0 15 15 15h84l22 75h-57q-15 0 -15 15v80q0 15 15 15h89l23 80q4 15 19 15h108q15 0 11 -15l-23 -80h79l23 80q5 15 19 15h108 q16 0 11 -15l-23 -80h50q15 0 15 -15v-80q0 -15 -15 -15h-82l-22 -75h55q15 0 15 -15v-80q0 -15 -15 -15zM350 202l22 75h-79l-22 -75h79z" />
<glyph unicode="$" horiz-adv-x="680" d="M413 -80h-122q-15 0 -15 15v81q-51 21 -76 48h-5l2 -18q1 -15 -15 -15h-124q-15 0 -15 15v217q0 15 15 15h144q15 0 15 -15v-12q1 -4 3 -10t11.5 -22t23 -28.5t39.5 -22.5t58 -10t52 15t20 38q0 20 -27 35.5t-68 25.5t-88.5 27.5t-88.5 40t-68 65.5t-27 100 q0 92 58 151.5t157 66.5v68q0 15 15 15h122q15 0 15 -15v-94q20 -10 45 -33l-4 18q-1 15 15 15h124q15 0 15 -15v-227q0 -15 -15 -15h-144q-15 0 -15 15v16q0 32 -31.5 58t-90.5 26q-34 0 -52.5 -13.5t-18.5 -36.5q0 -25 29 -43t72.5 -28.5t94 -27.5t94 -38t72.5 -63 t29 -100q0 -83 -54 -143.5t-161 -67.5v-59q0 -15 -15 -15z" />
<glyph unicode="%" horiz-adv-x="859" d="M191 359q-72 0 -116 47t-44 138q0 89 45.5 134.5t114.5 45.5t113 -45.5t44 -134.5q0 -91 -42.5 -138t-114.5 -47zM191 460q49 0 49 82q0 83 -49 83q-52 0 -52 -83q0 -82 52 -82zM670 -7q-72 0 -116 47t-44 138q0 89 45.5 134.5t114.5 45.5t113 -45.5t44 -134.5 q0 -91 -42.5 -138t-114.5 -47zM670 94q49 0 49 82q0 83 -49 83q-52 0 -52 -83q0 -82 52 -82zM347 -74h-93q-16 0 -11 15l231 804q4 15 19 15h93q17 0 11 -15l-231 -804q-4 -15 -19 -15z" />
<glyph unicode="&#x26;" horiz-adv-x="700" d="M630 0h-131q-21 1 -46 36l-1 2q-68 -45 -153 -45q-121 0 -193 58t-72 149q0 134 150 203q-58 69 -58 138q0 81 52 132t145 51q96 0 148.5 -49t52.5 -130q0 -106 -135 -186l62 -84q3 21 3 90q0 15 15 15h190q15 0 15 -15v-81q0 -15 -15 -15h-72q-9 -65 -41 -124l8 -11h76 q15 0 15 -15v-104q0 -15 -15 -15zM370 150l-103 141q-62 -34 -62 -78q0 -41 25 -64t72 -23q39 0 68 24zM318 456q35 17 51 35.5t16 44.5q0 25 -14.5 41t-38.5 16q-27 0 -42 -17t-15 -44q0 -33 43 -76z" />
<glyph unicode="'" horiz-adv-x="231" d="M153 528h-76q-7 0 -12.5 5t-5.5 13l-10 186q0 8 5.5 13t12.5 5h97q8 0 13 -5t5 -13l-11 -186q-2 -18 -18 -18z" />
<glyph unicode="(" horiz-adv-x="443" d="M405 68v-122q0 -8 -5.5 -13t-12.5 -5q-59 0 -118 24.5t-112 72.5t-86 133t-33 193t33 191.5t86 130t111.5 69.5t118.5 23q7 0 12.5 -5.5t5.5 -12.5v-122q0 -18 -18 -18q-71 0 -129 -70.5t-58 -188.5q0 -119 58.5 -190.5t128.5 -71.5q7 0 12.5 -5t5.5 -13z" />
<glyph unicode=")" horiz-adv-x="443" d="M38 -54v122q0 8 5 13t13 5q70 0 128.5 71.5t58.5 190.5q0 118 -58 188.5t-129 70.5q-18 0 -18 18v122q0 7 5 12.5t13 5.5q60 0 118.5 -23t111.5 -69.5t86 -130t33 -191.5t-33 -193t-86 -133t-112 -72.5t-118 -24.5q-8 0 -13 5t-5 13z" />
<glyph unicode="*" horiz-adv-x="444" d="M256 406h-69q-8 0 -13.5 5.5t-4.5 12.5l24 100l-48 -90q-4 -7 -12.5 -6.5t-13.5 6.5l-48 49q-6 6 -6 13.5t6 11.5l91 50l-102 -25q-7 -1 -12.5 4.5t-5.5 13.5v69q0 8 5.5 14t12.5 4l101 -30l-91 55q-6 4 -6 12.5t6 13.5l49 48q6 6 13.5 6t11.5 -6l55 -90l-30 101 q-2 7 4 12.5t14 5.5h69q8 0 14 -5.5t4 -12.5l-26 -101l52 90q4 6 11.5 6t13.5 -6l49 -48q6 -5 6 -13.5t-6 -12.5l-88 -54l98 29q7 2 12.5 -4t5.5 -14v-69q0 -8 -5.5 -13.5t-12.5 -4.5l-99 22l88 -47q6 -4 6 -11.5t-6 -13.5l-48 -49q-5 -6 -13.5 -6t-12.5 6l-52 87l27 -97 q2 -7 -4 -12.5t-14 -5.5z" />
<glyph unicode="+" horiz-adv-x="525" d="M334 57h-138q-15 0 -15 15v127h-126q-7 0 -12.5 5.5t-5.5 12.5v122q0 7 5.5 12.5t12.5 5.5h126v134q0 15 15 15h138q15 0 15 -15v-134h121q8 0 13 -5.5t5 -12.5v-122q0 -7 -5 -12.5t-13 -5.5h-121v-127q0 -15 -15 -15z" />
<glyph unicode="," horiz-adv-x="255" d="M93 -105v40q0 7 8 7q17 0 29 10.5t12 27.5l-2 15q-6 -3 -17 -3q-31 0 -52 21t-21 52t21 52.5t52 21.5q38 0 60.5 -28t22.5 -77q0 -145 -105 -145q-8 0 -8 6z" />
<glyph unicode="-" horiz-adv-x="495" d="M417 187h-339q-8 0 -13 5.5t-5 12.5v122q0 7 5 12.5t13 5.5h339q7 0 12.5 -5.5t5.5 -12.5v-122q0 -7 -5.5 -12.5t-12.5 -5.5z" />
<glyph unicode="." horiz-adv-x="246" d="M197 65q0 -31 -21.5 -52t-52.5 -21t-52 21t-21 52t21 52.5t52 21.5t52.5 -21.5t21.5 -52.5z" />
<glyph unicode="/" horiz-adv-x="455" d="M176 -74h-138q-16 0 -11 15l231 804q4 15 19 15h138q15 0 11 -15l-231 -804q-5 -15 -19 -15z" />
<glyph unicode="0" horiz-adv-x="721" d="M364 -7q-144 0 -232 94.5t-88 275.5q0 178 91 269.5t229 91.5q137 0 225 -91t88 -270q0 -182 -85 -276t-228 -94zM364 158q127 0 127 202q0 103 -31 152t-97 49q-133 0 -133 -201q0 -98 35.5 -150t98.5 -52z" />
<glyph unicode="1" horiz-adv-x="553" d="M528 0h-456q-15 0 -15 15v116q0 15 15 15h150v377l-103 -70q-12 -9 -21 3l-69 100q-9 12 3 21l201 137q5 4 11 4h135q15 0 15 -15v-557h134q15 0 15 -15v-116q0 -15 -15 -15z" />
<glyph unicode="2" horiz-adv-x="673" d="M604 0h-541q-15 0 -15 15v62q0 67 21 118t54.5 81.5t73.5 53.5t80.5 38t74 29.5t54.5 34.5t21 46q0 39 -27.5 61t-72.5 22q-47 0 -76 -26.5t-29 -69.5q0 -15 -15 -15h-144q-15 0 -15 15q0 115 74 187t205 72q141 0 214 -68.5t73 -163.5q0 -69 -33.5 -118.5t-83.5 -76 t-101 -47t-93 -46t-53 -58.5h208v63q0 15 15 15h131q15 0 15 -15v-194q0 -15 -15 -15z" />
<glyph unicode="3" horiz-adv-x="639" d="M482 359v-3q5 -1 12 -3.5t26.5 -14t34 -27.5t26.5 -46.5t12 -68.5q0 -89 -77.5 -146t-204.5 -57q-29 0 -54.5 2.5t-47.5 9t-39 11.5t-35 16.5t-27.5 17t-25 20t-19 17.5t-17.5 19l-14 15q-11 11 1 21l105 97q12 10 21 -1q75 -80 151 -80q41 0 68.5 19t27.5 51 q0 60 -93 60h-62q-15 0 -15 15v103q0 15 15 15h39q102 0 102 71q0 32 -20.5 51.5t-60.5 19.5q-38 0 -64.5 -21t-26.5 -57q0 -15 -15 -15h-137q-15 0 -15 15q0 115 64 177t195 62q69 0 123 -20t84 -52t45 -65.5t15 -65.5q0 -35 -10 -64.5t-24.5 -46.5t-28.5 -29.5t-24 -16.5z " />
<glyph unicode="4" horiz-adv-x="627" d="M564 0h-395q-15 0 -15 15v116q0 15 15 15h150v69h-288q-15 0 -15 15v87v12t1.5 9t5 11.5t10.5 13.5l292 351q3 4 12 4h139q15 0 15 -15v-352h73q15 0 15 -15v-106q0 -15 -15 -15h-73v-69h73q15 0 15 -15v-116q0 -15 -15 -15zM319 336v154l-128 -154h128z" />
<glyph unicode="5" horiz-adv-x="649" d="M309 -7q-48 0 -90.5 10.5t-67.5 21t-54.5 34t-37 31.5t-29.5 31q-11 11 1 21l105 97q12 10 21 -1q75 -80 151 -80q53 0 82.5 25.5t29.5 68.5q0 36 -28 59.5t-91 23.5q-59 0 -123 -17.5t-70 -17.5q-28 0 -28 38v371q0 15 15 15h459q15 0 15 -15v-180q0 -15 -15 -15h-131 q-15 0 -15 15v43h-154v-110q53 10 98 10q128 0 191.5 -63.5t63.5 -168.5q0 -103 -81 -175t-217 -72z" />
<glyph unicode="6" horiz-adv-x="675" d="M380 467q127 0 188 -61.5t61 -165.5q0 -105 -74 -176t-209 -71q-136 0 -219 94t-83 276q0 178 91 269.5t229 91.5q127 0 190.5 -58.5t63.5 -153.5q0 -15 -15 -15h-137q-15 0 -15 15q0 19 -25.5 35.5t-62.5 16.5q-105 0 -126 -128q82 31 143 31zM345 158q47 0 72 24t25 65 q0 83 -113 83q-45 0 -96 -21q14 -151 112 -151z" />
<glyph unicode="7" horiz-adv-x="587" d="M341 0h-149q-15 0 -15 15q0 111 18.5 193.5t45.5 129t54.5 81t49 72t26.5 80.5h-187v-78q0 -15 -15 -15h-131q-15 0 -15 15v210q0 15 15 15h523q15 0 15 -15v-67q-1 -68 -24 -122t-55 -96t-64 -89.5t-54.5 -127.5t-22.5 -185q0 -16 -15 -16z" />
<glyph unicode="8" horiz-adv-x="664" d="M509 381v-3q5 -2 12.5 -6t27 -18.5t34.5 -32t27 -48t12 -64.5q0 -92 -74.5 -154t-214.5 -62t-216 62.5t-76 153.5q0 34 11.5 64t28.5 48.5t33.5 32t27.5 18.5l12 6v3q-3 1 -9 3.5t-20.5 14t-26 26.5t-20.5 43t-9 62q0 32 14.5 64.5t43.5 62.5t82.5 48.5t122.5 18.5 t122 -18.5t82 -48.5t43.5 -62.5t14.5 -64.5q0 -34 -9 -62t-21 -43t-24.5 -26t-21.5 -15zM343 310h-20q-51 0 -73.5 -24t-22.5 -56q0 -40 29 -63.5t78 -23.5t75.5 23.5t26.5 63.5q0 32 -22.5 56t-70.5 24zM411 495q0 34 -21 56t-60 22q-38 0 -58 -22t-20 -56q0 -75 80 -75 q79 0 79 75z" />
<glyph unicode="9" horiz-adv-x="675" d="M295 250q-127 0 -188 61.5t-61 165.5q0 105 74 176t209 71q136 0 219 -94t83 -276q0 -178 -91 -269.5t-229 -91.5q-127 0 -190.5 58.5t-63.5 153.5q0 15 15 15h137q15 0 15 -15q0 -19 25.5 -35.5t62.5 -16.5q103 0 126 128q-85 -31 -143 -31zM330 559q-47 0 -72 -24 t-25 -65q0 -83 113 -83q49 0 96 21q-14 151 -112 151z" />
<glyph unicode=":" horiz-adv-x="267" d="M207 65q0 -31 -21.5 -52t-52.5 -21t-52 21t-21 52t21 52.5t52 21.5t52.5 -21.5t21.5 -52.5zM207 414q0 -31 -21.5 -52t-52.5 -21t-52 21t-21 52t21 52.5t52 21.5t52.5 -21.5t21.5 -52.5z" />
<glyph unicode=";" horiz-adv-x="282" d="M211 414q0 -31 -21.5 -52t-52.5 -21t-52 21t-21 52t21 52.5t52 21.5t52.5 -21.5t21.5 -52.5zM107 -100v35q0 7 8 7q17 0 29 10.5t12 27.5l-2 15q-6 -3 -17 -3q-31 0 -52 21t-21 52t21 52.5t52 21.5q38 0 60.5 -28t22.5 -77q0 -140 -105 -140q-8 0 -8 6z" />
<glyph unicode="&#x3c;" horiz-adv-x="487" d="M406 49l-357 167q-18 8 -18 29v26q0 21 18 29l357 167q18 9 18 -8v-95q0 -8 -5.5 -16.5t-12.5 -11.5l-167 -78l167 -78q7 -3 12.5 -11.5t5.5 -16.5v-95q0 -17 -18 -8z" />
<glyph unicode="=" horiz-adv-x="527" d="M446 297h-365q-7 0 -12.5 5.5t-5.5 12.5v122q0 7 5.5 12.5t12.5 5.5h365q8 0 13 -5.5t5 -12.5v-122q0 -7 -5 -12.5t-13 -5.5zM446 64h-365q-7 0 -12.5 5t-5.5 13v122q0 8 5.5 13t12.5 5h365q8 0 13 -5t5 -13v-122q0 -8 -5 -13t-13 -5z" />
<glyph unicode="&#x3e;" horiz-adv-x="487" d="M456 271v-26q0 -21 -18 -29l-357 -167q-18 -9 -18 8v95q0 8 5.5 16.5t12.5 11.5l167 78l-167 78q-7 3 -12.5 11.5t-5.5 16.5v95q0 17 18 8l357 -167q18 -8 18 -29z" />
<glyph unicode="?" horiz-adv-x="594" d="M326 133h-138q-15 0 -15 15q0 68 21 117t50.5 74.5t59 45t50.5 41.5t21 51q0 39 -20.5 62t-54.5 23q-95 0 -95 -118q0 -15 -15 -15h-144q-15 0 -15 15q0 279 269 279q128 0 195 -70t67 -167q0 -58 -23 -100.5t-55 -67.5t-64.5 -47t-55.5 -52.5t-23 -70.5q0 -15 -15 -15z M367 -28q0 -43 -30 -73t-73 -30t-73 30t-30 73t30 73t73 30t73 -30t30 -73z" />
<glyph unicode="@" horiz-adv-x="801" d="M614 31l37 -83q6 -14 -6 -20q-11 -6 -30.5 -15t-82 -24t-125.5 -15q-153 0 -258 99t-105 257q0 115 55.5 206.5t146 140t195.5 48.5q148 0 237 -80.5t89 -201.5q0 -86 -40.5 -150.5t-100 -94.5t-126.5 -30q-27 0 -38.5 9t-11.5 29v9l-2 -3q-2 -4 -5.5 -8t-9 -9.5 t-13 -10.5t-16.5 -9.5t-21 -7t-25 -2.5q-50 0 -90.5 42.5t-40.5 127.5q0 93 57.5 151t137.5 58q25 0 43 -7t23 -15l6 -7l1 8q2 11 13 11h61q13 0 11 -15l-30 -242h2q46 0 73 47t27 113q0 76 -55 121.5t-156 45.5q-123 0 -195.5 -81t-72.5 -193q0 -114 69 -174.5t166 -60.5 q60 0 107 10.5t63 20.5l17 10q12 9 19 -5zM460 222l11 93q-1 4 -3.5 10t-14 16t-28.5 10q-39 0 -64.5 -30t-25.5 -84q0 -33 17.5 -48.5t42.5 -15.5q19 0 40.5 13.5t24.5 35.5z" />
<glyph unicode="A" horiz-adv-x="738" d="M739 0h-300q-15 0 -15 15v116q0 15 15 15h63l-24 68h-200l-24 -68h64q15 0 15 -15v-116q0 -15 -15 -15h-300q-15 0 -15 15v116q0 15 15 15h66l162 426h-77q-15 0 -15 15v116q0 15 15 15h229q34 0 51 -14.5t32 -52.5l193 -505h65q15 0 15 -15v-116q0 -15 -15 -15zM435 331 l-54 156h-5l-53 -156h112z" />
<glyph unicode="B" horiz-adv-x="692" d="M406 0h-347q-15 0 -15 15v116q0 15 15 15h64v426h-64q-15 0 -15 15v116q0 15 15 15h343q95 0 157 -56.5t62 -148.5q0 -88 -71 -146q110 -47 110 -159q0 -109 -63 -158.5t-191 -49.5zM295 146h89q49 0 75.5 21t26.5 58q0 34 -26.5 53.5t-75.5 19.5h-89v-152zM295 426h64 q40 0 64 18.5t24 50.5q0 38 -25 58t-68 20h-59v-147z" />
<glyph unicode="C" horiz-adv-x="768" d="M631 282l101 -69q10 -8 4 -22q-53 -114 -163 -163q-76 -35 -175 -35q-154 0 -258 99.5t-104 270.5q0 88 29 158.5t78.5 113.5t111 66t129.5 23q127 0 182 -74l-3 53q-1 15 15 15h124q15 0 15 -15v-253q0 -15 -15 -15h-144q-15 0 -15 15v10q0 34 -40.5 67t-105.5 33 q-79 0 -127 -53t-48 -147q0 -89 56.5 -146t132.5 -57q133 0 200 121q7 13 20 4z" />
<glyph unicode="D" horiz-adv-x="743" d="M392 0h-333q-15 0 -15 15v116q0 15 15 15h64v426h-64q-15 0 -15 15v116q0 15 15 15h277q98 0 181 -41t137 -126.5t54 -201.5q0 -105 -46 -186t-117.5 -122t-152.5 -41zM295 146h26q99 2 149 46.5t50 154.5q0 225 -212 225h-13v-426z" />
<glyph unicode="E" horiz-adv-x="705" d="M633 0h-574q-15 0 -15 15v116q0 15 15 15h64v426h-64q-15 0 -15 15v116q0 15 15 15h575q15 0 15 -15v-226q0 -15 -15 -15h-131q-15 0 -15 15v95h-193v-138h156q15 0 15 -15v-116q0 -15 -15 -15h-156v-142h192v95q0 15 15 15h131q15 0 15 -15v-226q0 -15 -15 -15z" />
<glyph unicode="F" horiz-adv-x="665" d="M421 0h-362q-15 0 -15 15v116q0 15 15 15h64v426h-64q-15 0 -15 15v116q0 15 15 15h575q15 0 15 -15v-226q0 -15 -15 -15h-131q-15 0 -15 15v95h-193v-138h156q15 0 15 -15v-116q0 -15 -15 -15h-156v-142h126q15 0 15 -15v-116q0 -15 -15 -15z" />
<glyph unicode="G" horiz-adv-x="784" d="M713 0h-115q-15 0 -15 15l1 43q-72 -65 -186 -65q-154 0 -258 99.5t-104 270.5q0 88 29 158.5t78.5 113.5t111 66t129.5 23q127 0 182 -74l-3 53q-1 15 15 15h124q15 0 15 -15v-253q0 -15 -15 -15h-144q-15 0 -15 15v10q0 34 -40.5 67t-105.5 33q-79 0 -127 -53t-48 -147 q0 -89 56.5 -146t132.5 -57q92 0 152 56v28h-170q-15 0 -15 15v105q0 15 15 15h320q15 0 15 -15v-346q0 -15 -15 -15z" />
<glyph unicode="H" horiz-adv-x="831" d="M772 0h-300q-15 0 -15 15v116q0 15 15 15h64v142h-241v-142h64q15 0 15 -15v-116q0 -15 -15 -15h-300q-15 0 -15 15v116q0 15 15 15h64v426h-64q-15 0 -15 15v116q0 15 15 15h300q15 0 15 -15v-116q0 -15 -15 -15h-64v-143h241v143h-64q-15 0 -15 15v116q0 15 15 15h300 q15 0 15 -15v-116q0 -15 -15 -15h-64v-426h64q15 0 15 -15v-116q0 -15 -15 -15z" />
<glyph unicode="I" horiz-adv-x="418" d="M359 0h-300q-15 0 -15 15v116q0 15 15 15h64v426h-64q-15 0 -15 15v116q0 15 15 15h300q15 0 15 -15v-116q0 -15 -15 -15h-64v-426h64q15 0 15 -15v-116q0 -15 -15 -15z" />
<glyph unicode="J" horiz-adv-x="471" d="M207 302v270h-64q-15 0 -15 15v116q0 15 15 15h300q15 0 15 -15v-116q0 -15 -15 -15h-64v-256q0 -169 -82 -242.5t-249 -73.5q-15 0 -15 15v116q0 15 15 15q88 0 123.5 40t35.5 116z" />
<glyph unicode="K" horiz-adv-x="775" d="M724 0h-141q-50 0 -81 69l-68 150q-15 32 -53 32h-86v-105h89q15 0 15 -15v-116q0 -15 -15 -15h-325q-15 0 -15 15v116q0 15 15 15h64v426h-64q-15 0 -15 15v116q0 15 15 15h276q15 0 15 -15v-116q0 -15 -15 -15h-40v-182h36q87 0 122.5 44t35.5 138h-64q-15 0 -15 15 v116q0 15 15 15h300q15 0 15 -15v-116q0 -15 -15 -15h-64q0 -171 -99 -255q29 -16 54 -73l40 -98h68q15 0 15 -15v-116q0 -15 -15 -15z" />
<glyph unicode="L" horiz-adv-x="639" d="M605 0h-546q-15 0 -15 15v116q0 15 15 15h64v426h-64q-15 0 -15 15v116q0 15 15 15h296q7 0 12.5 -5t5.5 -13v-110q0 -8 -5.5 -13t-12.5 -5h-60v-426h167v95q0 15 15 15h131q15 0 15 -15v-223q0 -8 -5.5 -13t-12.5 -5z" />
<glyph unicode="M" horiz-adv-x="944" d="M885 0h-270q-15 0 -15 15v116q0 15 15 15h34v252h-3l-103 -296q-17 -48 -71 -48t-71 48l-103 296h-3v-252h34q15 0 15 -15v-116q0 -15 -15 -15h-270q-15 0 -15 15v116q0 15 15 15h64v426h-64q-15 0 -15 15v116q0 15 15 15h212q51 0 72 -56l81 -210l45 -123h6 q20 56 46 123l83 210q23 56 72 56h209q15 0 15 -15v-116q0 -15 -15 -15h-64v-426h64q15 0 15 -15v-116q0 -15 -15 -15z" />
<glyph unicode="N" horiz-adv-x="809" d="M688 0h-118q-40 0 -71 48l-168 267q-8 12 -16 28l-13 26l-4 10h-3v-233h64q15 0 15 -15v-116q0 -15 -15 -15h-300q-15 0 -15 15v116q0 15 15 15h64v421h-64q-15 0 -15 15v121q0 15 15 15h191q18 0 32 -9t20.5 -17.5t19.5 -29.5l153 -245q12 -20 25 -47t20 -44l7 -17h4 v263h-64q-15 0 -15 15v116q0 15 15 15h300q15 0 15 -15v-116q0 -15 -15 -15h-64v-557q0 -15 -15 -15z" />
<glyph unicode="O" horiz-adv-x="798" d="M399 -7q-155 0 -259.5 104.5t-104.5 265.5q0 88 32 158.5t84.5 113.5t116 66t131.5 23t131.5 -23t116 -66t84.5 -113.5t32 -158.5q0 -169 -103 -269.5t-261 -100.5zM399 156q77 0 127.5 59t50.5 145q0 92 -50 146.5t-129 54.5q-78 0 -127.5 -55t-49.5 -146 q0 -86 50.5 -145t127.5 -59z" />
<glyph unicode="P" horiz-adv-x="665" d="M376 0h-317q-15 0 -15 15v116q0 15 15 15h64v426h-64q-15 0 -15 15v116q0 15 15 15h339q110 0 180.5 -73.5t70.5 -181.5q0 -106 -73 -170.5t-192 -64.5h-89v-82h81q15 0 15 -15v-116q0 -15 -15 -15zM295 362h67q113 0 113 101q0 52 -30 80.5t-81 28.5h-69v-210z" />
<glyph unicode="Q" horiz-adv-x="798" d="M692 -29l34 -97q5 -13 -7 -18q-21 -9 -65.5 -19t-89.5 -10q-64 0 -119.5 20t-90 49t-59.5 58t-35 49l-10 20q-98 41 -156.5 131t-58.5 209q0 88 32 158.5t84.5 113.5t116 66t131.5 23t131.5 -23t116 -66t84.5 -113.5t32 -158.5q0 -156 -88.5 -254t-228.5 -113 q23 -35 129 -35q63 0 98 15q16 7 19 -5zM399 157q77 0 127.5 58.5t50.5 144.5q0 92 -50 146.5t-129 54.5q-78 0 -127.5 -55t-49.5 -146q0 -86 50.5 -144.5t127.5 -58.5z" />
<glyph unicode="R" horiz-adv-x="732" d="M702 0h-146q-48 0 -81 69l-68 140q-21 42 -60 42h-52v-105h86q15 0 15 -15v-116q0 -15 -15 -15h-322q-15 0 -15 15v116q0 15 15 15h64v426h-64q-15 0 -15 15v116q0 15 15 15h344q111 0 181 -68t70 -174q0 -130 -107 -189q20 -20 34 -44l53 -97h68q15 0 15 -15v-116 q0 -15 -15 -15zM295 385h65q62 0 91 21t29 65q0 101 -120 101h-65v-187z" />
<glyph unicode="S" horiz-adv-x="688" d="M186 0h-124q-15 0 -15 15v243q0 15 15 15h144q15 0 15 -15v-12q1 -4 3.5 -10t13 -21.5t25.5 -27.5t43.5 -21.5t64.5 -9.5q35 0 53.5 15t18.5 35q0 26 -39.5 44t-95.5 34t-112 38.5t-95.5 69t-39.5 113.5q0 97 64.5 158t174.5 61q113 0 173 -60l-4 39q-1 15 15 15h124 q15 0 15 -15v-248q0 -15 -15 -15h-144q-15 0 -15 15v16q0 33 -32 61.5t-90 28.5q-41 0 -60.5 -15.5t-19.5 -40.5q0 -26 29.5 -45.5t74 -30.5t96.5 -28t96.5 -38t74 -61.5t29.5 -96.5q0 -88 -60.5 -150t-180.5 -62q-29 0 -56 4.5t-47 12.5t-37.5 17t-29.5 18t-20 17l-12 12 l-5 5l2 -64q1 -15 -15 -15z" />
<glyph unicode="T" horiz-adv-x="697" d="M498 0h-294q-8 0 -13 5t-5 13v110q0 8 5 13t13 5h61v426h-86v-94q0 -8 -5.5 -13t-12.5 -5h-125q-8 0 -13 5t-5 13v222q0 8 5 13t13 5h624q8 0 13 -5t5 -13v-222q0 -8 -5 -13t-13 -5h-125q-7 0 -12.5 5t-5.5 13v94h-80v-426h61q8 0 13 -5t5 -13v-110q0 -8 -5 -13t-13 -5z " />
<glyph unicode="U" horiz-adv-x="754" d="M490 259v313h-64q-15 0 -15 15v116q0 15 15 15h300q15 0 15 -15v-116q0 -15 -15 -15h-64v-304q0 -133 -77 -204t-206 -71q-130 0 -208.5 71t-78.5 204v304h-64q-15 0 -15 15v116q0 15 15 15h300q15 0 15 -15v-116q0 -15 -15 -15h-64v-308q0 -43 26 -75t89 -32q51 0 81 30 t30 72z" />
<glyph unicode="V" horiz-adv-x="757" d="M412 0h-66q-34 0 -51 14.5t-32 52.5l-199 505h-59q-15 0 -15 15v116q0 15 15 15h305q15 0 15 -15v-116q0 -15 -15 -15h-58l122 -336h10l121 336h-57q-15 0 -15 15v116q0 15 15 15h305q15 0 15 -15v-116q0 -15 -15 -15h-60l-198 -505q-15 -38 -32 -52.5t-51 -14.5z" />
<glyph unicode="W" horiz-adv-x="1038" d="M750 0h-66q-36 0 -55 15t-28 52l-80 342h-7l-77 -342q-9 -37 -28 -52t-55 -15h-66q-36 0 -54.5 14.5t-28.5 52.5l-139 505h-55q-15 0 -15 15v116q0 15 15 15h305q15 0 15 -15v-116q0 -15 -15 -15h-63l63 -336h10l113 482h158l115 -482h10l63 336h-63q-15 0 -15 15v116 q0 15 15 15h305q15 0 15 -15v-116q0 -15 -15 -15h-56l-138 -505q-10 -38 -28.5 -52.5t-54.5 -14.5z" />
<glyph unicode="X" horiz-adv-x="805" d="M759 0h-305q-15 0 -15 15v116q0 15 15 15h43l-95 115l-95 -115h44q15 0 15 -15v-116q0 -15 -15 -15h-305q-15 0 -15 15v116q0 15 15 15h70l177 208l-177 218h-70q-15 0 -15 15v116q0 15 15 15h305q15 0 15 -15v-116q0 -15 -15 -15h-44l95 -126l95 126h-43q-15 0 -15 15 v116q0 15 15 15h305q15 0 15 -15v-116q0 -15 -15 -15h-71l-177 -218l177 -208h71q15 0 15 -15v-116q0 -15 -15 -15z" />
<glyph unicode="Y" horiz-adv-x="723" d="M514 0h-307q-15 0 -15 15v116q0 15 15 15h67v125q-26 32 -201 301h-68q-15 0 -15 15v116q0 15 15 15h318q15 0 15 -15v-116q0 -15 -15 -15h-50l92 -156h5l89 156h-55q-15 0 -15 15v116q0 15 15 15h315q15 0 15 -15v-116q0 -15 -15 -15h-68q-163 -251 -204 -301v-125h67 q15 0 15 -15v-116q0 -15 -15 -15z" />
<glyph unicode="Z" horiz-adv-x="697" d="M629 0h-561q-8 0 -13 5t-5 13v101q0 21 33 61l328 392h-199v-92q0 -8 -5 -13t-13 -5h-126q-8 0 -13 5t-5 13v220q0 8 5 13t13 5h561q7 0 12.5 -5t5.5 -13v-88q0 -35 -30 -70l-331 -396h199v92q0 8 5.5 13t12.5 5h126q7 0 12.5 -5t5.5 -13v-220q0 -8 -5.5 -13t-12.5 -5z " />
<glyph unicode="[" horiz-adv-x="451" d="M395 -71h-291q-15 0 -15 15v807q0 15 15 15l291 -1q7 0 12.5 -5.5t5.5 -12.5v-122q0 -7 -5.5 -12.5t-12.5 -5.5h-138v-520h138q7 0 12.5 -5.5t5.5 -12.5v-122q0 -7 -5.5 -12.5t-12.5 -5.5z" />
<glyph unicode="\" horiz-adv-x="455" d="M195 745l231 -804q4 -15 -11 -15h-138q-15 0 -19 15l-231 804q-5 15 11 15h138q14 0 19 -15z" />
<glyph unicode="]" horiz-adv-x="451" d="M362 751v-807q0 -15 -15 -15h-291q-8 0 -13 5.5t-5 12.5v122q0 7 5 12.5t13 5.5h138v520h-138q-8 0 -13 5.5t-5 12.5v122q0 7 5 12.5t13 5.5l291 1q15 0 15 -15z" />
<glyph unicode="_" horiz-adv-x="632" d="M559 -179h-486q-7 0 -12.5 5.5t-5.5 12.5v122q0 7 5.5 12.5t12.5 5.5h486q7 0 12.5 -5.5t5.5 -12.5v-122q0 -7 -5.5 -12.5t-12.5 -5.5z" />
<glyph unicode="`" horiz-adv-x="354" d="M324 619l-58 -69q-12 -14 -26 -3l-209 159q-13 11 -2 25l73 87q14 15 26 3l194 -176q14 -12 2 -26z" />
<glyph unicode="a" horiz-adv-x="568" d="M544 0h-139q-49 0 -49 49v30h-2q-2 -4 -5.5 -9.5t-17.5 -21t-31 -27t-46.5 -21t-63.5 -9.5q-77 0 -121.5 40.5t-44.5 106.5q0 72 63.5 111t183.5 39h60v3q0 59 -73 59q-37 0 -65.5 -8t-43 -16t-17.5 -8q-10 0 -15 7l-66 84q-7 10 1 17q3 3 8.5 8t26 17.5t44 22t61.5 17.5 t79 8q104 0 166 -51t62 -160v-154h45q15 0 15 -15v-104q0 -15 -15 -15zM331 168v39h-48q-83 0 -83 -38q0 -37 57 -37q44 0 74 36z" />
<glyph unicode="b" horiz-adv-x="605" d="M197 0h-118q-15 0 -15 15v569h-45q-15 0 -15 15v104q0 15 15 15h190q15 0 15 -15v-209l-5 -50h5q1 2 4 6t14.5 13.5t24.5 16.5t36 13t48 6q103 0 163 -69.5t60 -181.5q0 -123 -62 -189t-163 -66q-42 0 -76 13.5t-47 26.5l-12 13h-2v-31q0 -15 -15 -15zM315 135 q44 0 68.5 31t24.5 83q0 50 -25.5 79t-67.5 29q-37 0 -63 -27t-26 -82q0 -56 24.5 -84.5t64.5 -28.5z" />
<glyph unicode="c" horiz-adv-x="571" d="M456 194l67 -73q11 -12 2 -24q-6 -9 -19.5 -22t-40.5 -33.5t-71.5 -34.5t-96.5 -14q-114 0 -191 69t-77 185t74 184t170 68q47 0 82 -15.5t47 -30.5l11 -15h2l-2 39q-1 15 15 15h90q15 0 15 -15v-195q0 -15 -15 -15h-112q-15 0 -15 15v12q-2 27 -25.5 44.5t-61.5 17.5 q-41 0 -72.5 -28t-31.5 -80q0 -53 32.5 -83t80.5 -30q31 0 61 14.5t44 28.5l15 15q12 14 23 1z" />
<glyph unicode="d" horiz-adv-x="627" d="M585 0h-139q-49 0 -49 49v8h-2q-2 -3 -5.5 -7t-16 -15t-27.5 -19.5t-39 -15.5t-51 -7q-101 0 -163 66t-62 189q0 112 62 181.5t166 69.5q40 0 70.5 -13.5t40.5 -27.5l11 -14h2q-2 21 -2 50v90h-45q-15 0 -15 15v104q0 15 15 15h190q15 0 15 -15v-569h44q15 0 15 -15v-104 q0 -15 -15 -15zM290 135q40 0 64.5 28.5t24.5 84.5q0 55 -26 82t-63 27q-42 0 -67.5 -29t-25.5 -79q0 -52 24.5 -83t68.5 -31z" />
<glyph unicode="e" horiz-adv-x="559" d="M508 224h-305q9 -45 38.5 -67t71.5 -22q34 0 65 13.5t45 27.5l14 14q12 14 23 1l63 -70q11 -12 2 -24q-6 -9 -19.5 -22t-40.5 -33.5t-71.5 -34.5t-96.5 -14q-114 0 -191 69t-77 185q0 77 39.5 136.5t96.5 87.5t119 28q121 0 181.5 -66t60.5 -191q0 -8 -5 -13t-13 -5z M206 308h161q-2 23 -19.5 42t-56.5 19q-72 0 -85 -61z" />
<glyph unicode="f" horiz-adv-x="428" d="M346 0h-292q-15 0 -15 15v104q0 15 15 15h44v224h-44q-15 0 -15 15v104q0 15 15 15h44v31q0 100 51.5 152t151.5 52q39 0 72.5 -12t50.5 -24t34 -28q3 -4 5 -5q13 -13 5 -22l-60 -79q-10 -11 -22 -2q-28 24 -66 24q-53 0 -53 -56v-31h127q15 0 15 -15v-104q0 -15 -15 -15 h-127v-224h79q15 0 15 -15v-104q0 -15 -15 -15z" />
<glyph unicode="g" horiz-adv-x="624" d="M267 -237q-44 0 -81 8.5t-66.5 25.5t-39 23.5t-27.5 21.5q-14 12 -6 23l61 89q7 12 22 1q2 -1 9 -6.5t9.5 -7.5t9.5 -6.5t11.5 -6.5t12.5 -5.5t15 -5t17 -3.5t21 -2.5t24 -0.5q121 0 121 89v47q-1 -2 -4 -6t-14.5 -13.5t-24.5 -16.5t-36 -13t-48 -6q-103 0 -163 69.5 t-60 181.5q0 123 62.5 190t162.5 67q42 0 76 -14t47 -28l12 -13h2v32q0 15 15 15h172q15 0 15 -15v-104q0 -15 -15 -15h-39v-358q0 -116 -77 -176.5t-196 -60.5zM289 134q37 0 63 27t26 82q0 56 -24.5 84.5t-64.5 28.5q-44 0 -68.5 -31t-24.5 -83q0 -50 25.5 -79t67.5 -29z " />
<glyph unicode="h" horiz-adv-x="615" d="M583 0h-164q-49 0 -49 49v214q0 44 -12 65.5t-50 21.5q-11 0 -19.5 -3t-14 -7t-10 -9.5t-7 -10.5t-3.5 -9.5t-2 -6.5v-3v-167h36q15 0 15 -15v-104q0 -15 -15 -15h-248q-15 0 -15 15v104q0 15 15 15h44v450h-44q-15 0 -15 15v104q0 15 15 15h197q15 0 15 -15v-184 q0 -18 -9 -75h3q40 55 123 55q79 0 123.5 -49t45.5 -128v-188h45q15 0 15 -15v-104q0 -15 -15 -15z" />
<glyph unicode="i" horiz-adv-x="349" d="M302 0h-248q-15 0 -15 15v104q0 15 15 15h44v224h-44q-15 0 -15 15v104q0 15 15 15h197q15 0 15 -15v-343h36q15 0 15 -15v-104q0 -15 -15 -15zM279 642q0 -43 -30 -73t-73 -30t-73 30t-30 73t30 73t73 30t73 -30t30 -73z" />
<glyph unicode="j" horiz-adv-x="317" d="M85 -33v391h-45q-15 0 -15 15v104q0 15 15 15h198q15 0 15 -15v-510q0 -100 -51.5 -152t-151.5 -52q-39 0 -73.5 12.5t-47 21.5t-34.5 29q-3 3 -5 4q-15 15 -4 27l57 76q12 14 26 3q1 -1 5 -4.5t5.5 -4.5t5.5 -4t6.5 -4t7 -3t9 -3t10.5 -1.5t13 -0.5q54 0 54 56zM264 642 q0 -43 -30 -73t-73 -30t-73 30t-30 73t30 73t73 30t73 -30t30 -73z" />
<glyph unicode="k" horiz-adv-x="630" d="M589 0h-109q-38 0 -70 44l-109 150l-49 -39v-21h36q15 0 15 -15v-104q0 -15 -15 -15h-248q-15 0 -15 15v104q0 15 15 15h44v450h-44q-15 0 -15 15v104q0 15 15 15h197q15 0 15 -15v-421l93 76h-31q-15 0 -15 15v104q0 15 15 15h248q15 0 15 -15v-104q0 -15 -15 -15h-53 l-99 -78l110 -146h69q15 0 15 -15v-104q0 -15 -15 -15z" />
<glyph unicode="l" horiz-adv-x="342" d="M291 0h-248q-15 0 -15 15v104q0 15 15 15h44v451h-44q-15 0 -15 15v104q0 15 15 15h197q15 0 15 -15v-570h36q15 0 15 -15v-104q0 -15 -15 -15z" />
<glyph unicode="m" horiz-adv-x="913" d="M881 0h-164q-49 0 -49 49v214q0 44 -12 65.5t-50 21.5q-30 0 -42 -16.5t-12 -30.5v-169h45q15 0 15 -15v-104q0 -15 -15 -15h-248q-15 0 -15 15v104q0 15 15 15h35v129q0 44 -12 65.5t-50 21.5q-11 0 -19.5 -3t-14 -7t-10 -9.5t-7 -10.5t-3.5 -9.5t-2 -6.5v-3v-167h22 q15 0 15 -15v-104q0 -15 -15 -15h-234q-15 0 -15 15v104q0 15 15 15h44v224h-44q-15 0 -15 15v104q0 15 15 15h172q15 0 15 -15v-63h4q0 1 3.5 9t14 21t25.5 25t41.5 21t58.5 9q102 0 141 -82q41 82 143 82q79 0 121.5 -49t42.5 -128v-188h45q15 0 15 -15v-104 q0 -15 -15 -15z" />
<glyph unicode="n" horiz-adv-x="629" d="M597 0h-164q-49 0 -49 49v214q0 44 -12 65.5t-50 21.5q-21 0 -35 -11.5t-17 -20t-4 -16.5v-168h36q15 0 15 -15v-104q0 -15 -15 -15h-248q-15 0 -15 15v104q0 15 15 15h44v224h-44q-15 0 -15 15v104q0 15 15 15h172q15 0 15 -15v-62h4q1 3 3.5 9t13 20.5t24.5 25.5 t40.5 20t58.5 9q79 0 122.5 -49t44.5 -128v-188h45q15 0 15 -15v-104q0 -15 -15 -15z" />
<glyph unicode="o" horiz-adv-x="592" d="M295 -7q-124 0 -194.5 69t-70.5 185q0 115 73 183.5t193 68.5t193 -68.5t73 -183.5q0 -116 -71.5 -185t-195.5 -69zM295 135q45 0 70.5 31t25.5 82q0 50 -25.5 79t-69.5 29t-69.5 -29t-25.5 -79q0 -51 25 -82t69 -31z" />
<glyph unicode="p" horiz-adv-x="625" d="M316 -226h-277q-15 0 -15 15v104q0 15 15 15h45v450h-39q-15 0 -15 15v104q0 15 15 15h172q15 0 15 -15l-1 -32h3q5 6 14 15t44 24t77 15q100 0 162.5 -66.5t62.5 -189.5q0 -112 -60 -181t-163 -69q-40 0 -72 11t-43 22l-12 11h-3q3 -29 3 -40v-89h72q15 0 15 -15v-104 q0 -15 -15 -15zM335 134q42 0 67.5 29t25.5 79q0 52 -24.5 83t-68.5 31q-40 0 -64.5 -28.5t-24.5 -84.5q0 -55 26 -82t63 -27z" />
<glyph unicode="q" horiz-adv-x="605" d="M586 -226h-277q-15 0 -15 15v104q0 15 15 15h72v90l2 50h-2q-1 -2 -4 -6t-14.5 -13.5t-24.5 -16.5t-36 -13t-48 -6q-103 0 -163 69.5t-60 181.5q0 123 62 189t163 66q42 0 76 -13.5t46 -26.5l13 -13h2v31q0 15 15 15h118q15 0 15 -15v-569h45q15 0 15 -15v-104 q0 -15 -15 -15zM290 135q37 0 63 27t26 82q0 56 -24.5 84.5t-64.5 28.5q-44 0 -68.5 -31t-24.5 -83q0 -50 25.5 -79t67.5 -29z" />
<glyph unicode="r" horiz-adv-x="472" d="M302 0h-248q-15 0 -15 15v104q0 15 15 15h44v224h-44q-15 0 -15 15v104q0 15 15 15h172q15 0 15 -15v-102h5q2 5 5.5 13.5t19 30t35.5 37.5t55.5 29.5t77.5 13.5q7 0 12.5 -5.5t5.5 -12.5v-134q0 -7 -5.5 -12.5t-12.5 -5.5h-44q-49 0 -89 -31.5t-40 -74.5v-89h36 q15 0 15 -15v-104q0 -15 -15 -15z" />
<glyph unicode="s" horiz-adv-x="526" d="M292 -8q-38 0 -73 13t-51 26l-16 13h-2q2 -18 2 -26t-5 -13t-13 -5h-80q-8 0 -13 5t-5 13l1 155q0 7 5.5 12.5t12.5 5.5h94q18 0 18 -17v-3q1 -2 2.5 -5.5t8.5 -12t16.5 -15t26.5 -12t38 -5.5q50 0 50 30q0 13 -26.5 21.5t-64.5 16.5t-75.5 21.5t-64 47t-26.5 83.5 q0 69 47.5 113.5t136.5 44.5q90 0 134 -51h2q-3 20 -3 23q0 18 18 18h73q8 0 13 -5.5t5 -12.5l-1 -157q0 -8 -5.5 -13t-12.5 -5h-94q-7 0 -12.5 5t-5.5 13v5q0 21 -23 35.5t-59 14.5q-47 0 -47 -33q0 -19 28 -29t68 -17t80.5 -20t68.5 -46t28 -85q0 -59 -48 -103t-151 -44z " />
<glyph unicode="t" horiz-adv-x="446" d="M386 163l57 -76q11 -12 -4 -27q-44 -39 -76 -52q-38 -15 -84 -15q-100 0 -151.5 52t-51.5 152v161h-41q-7 0 -12.5 5t-5.5 13v98q0 8 5.5 13t12.5 5h41v119q0 7 5 12.5t13 5.5h133q7 0 12.5 -5.5t5.5 -12.5v-119h124q7 0 12.5 -5t5.5 -13v-98q0 -8 -5.5 -13t-12.5 -5 h-124v-161q0 -56 53 -56q7 0 13 0.5t10.5 1.5t9 3t7 3t6.5 4t5.5 4t5.5 4.5t5 4.5q14 11 26 -3z" />
<glyph unicode="u" d="M576 0h-139q-49 0 -49 49v28h-3q-1 -3 -2.5 -9t-11 -20.5t-22 -25.5t-38 -20t-57.5 -9q-80 0 -128 49.5t-48 127.5v188h-45q-15 0 -15 15v104q0 15 15 15h164q49 0 49 -49v-214q0 -44 12 -65.5t50 -21.5q30 0 43 17.5t13 30.5v168h-36q-15 0 -15 15v104q0 15 15 15h189 q15 0 15 -15v-343h44q15 0 15 -15v-104q0 -15 -15 -15z" />
<glyph unicode="v" horiz-adv-x="637" d="M409 0h-180q-20 0 -27.5 5.5t-14.5 25.5l-112 327h-50q-15 0 -15 15v104q0 15 15 15h253q15 0 15 -15v-104q0 -15 -15 -15h-29l69 -219h2l69 219h-31q-15 0 -15 15v104q0 15 15 15h255q15 0 15 -15v-104q0 -15 -15 -15h-51l-111 -327q-7 -20 -14.5 -25.5t-27.5 -5.5z" />
<glyph unicode="w" horiz-adv-x="898" d="M676 0h-143q-42 0 -48 38l-35 199h-2l-34 -199q-6 -38 -48 -38h-143q-21 0 -31.5 9t-16.5 29l-100 320h-50q-15 0 -15 15v104q0 15 15 15h255q15 0 15 -15v-104q0 -15 -15 -15h-33l51 -219h2l57 219h-8q-15 0 -15 15v104q0 15 15 15h200q15 0 15 -15v-104q0 -15 -15 -15 h-7l57 -219h2l49 219h-32q-15 0 -15 15v104q0 15 15 15h255q15 0 15 -15v-104q0 -15 -15 -15h-50l-99 -320q-6 -20 -16.5 -29t-31.5 -9z" />
<glyph unicode="x" d="M561 0h-241q-15 0 -15 15v104q0 15 15 15h22l-66 57l-45 -57h8q15 0 15 -15v-104q0 -15 -15 -15h-185q-15 0 -15 15v104q0 15 15 15h45l103 121l-117 103h-30q-15 0 -15 15v104q0 15 15 15h241q15 0 15 -15v-104q0 -15 -15 -15h-27l71 -61l45 61h-8q-15 0 -15 15v104 q0 15 15 15h185q15 0 15 -15v-104q0 -15 -15 -15h-45l-101 -125l116 -99h29q15 0 15 -15v-104q0 -15 -15 -15z" />
<glyph unicode="y" horiz-adv-x="623" d="M256 -33l11 33h-35q-21 0 -31 8.5t-17 29.5l-109 320h-49q-15 0 -15 15v104q0 15 15 15h239q15 0 15 -15v-104q0 -15 -15 -15h-19l59 -219h2l69 219h-31q-15 0 -15 15v104q0 15 15 15h255q15 0 15 -15v-104q0 -15 -15 -15h-51l-137 -391q-20 -57 -33 -86.5t-35 -61 t-51.5 -44t-71.5 -12.5q-39 0 -73.5 12.5t-47 21.5t-34.5 29q-3 3 -5 4q-15 15 -7 24l64 82q9 10 22 0q1 -1 5.5 -5t6.5 -5.5t6.5 -4.5t8 -4t9 -3t12 -2.5t14.5 -0.5q16 0 27.5 9.5t16 19.5t10.5 27z" />
<glyph unicode="z" horiz-adv-x="566" d="M507 0h-448q-15 0 -15 15v82q0 21 5.5 31.5t20.5 23.5l243 206h-144v-57q0 -15 -15 -15h-95q-15 0 -15 15v176q0 15 15 15h448q15 0 15 -15v-79q0 -32 -29 -58l-236 -206h140v51q0 15 15 15h95q15 0 15 -15v-170q0 -15 -15 -15z" />
<glyph unicode="{" horiz-adv-x="439" d="M401 68v-122q0 -8 -5.5 -13t-12.5 -5q-60 0 -106 9.5t-85 32.5t-59.5 65.5t-20.5 104.5v59q0 49 -22 72.5t-47 25.5q-7 0 -12.5 5.5t-5.5 12.5v63q0 8 5.5 13t12.5 5q25 2 47 25.5t22 72.5v59q0 62 20.5 104.5t59.5 65.5t85 32.5t106 9.5q7 0 12.5 -5.5t5.5 -12.5v-122 q0 -7 -5.5 -12.5t-12.5 -5.5q-56 -1 -78.5 -15t-22.5 -59v-38q0 -40 -15 -67t-29 -34l-15 -8v-78l6 -3t14.5 -10.5t18 -19.5t14 -31.5t6.5 -45.5v-38q0 -45 22.5 -59t78.5 -15q7 0 12.5 -5t5.5 -13z" />
<glyph unicode="|" horiz-adv-x="344" d="M241 -131h-138q-15 0 -15 15v861q0 15 15 15h138q15 0 15 -15v-861q0 -15 -15 -15z" />
<glyph unicode="}" horiz-adv-x="439" d="M56 -72q-8 0 -13 5t-5 13v122q0 8 5 13t13 5q56 1 78.5 15t22.5 59v38q0 25 6 45.5t14.5 32t17.5 19.5t15 11l6 2v78l-6 3t-14.5 10t-18 19t-14 31.5t-6.5 45.5v38q0 45 -22.5 59t-78.5 15q-8 0 -13 5.5t-5 12.5v122q0 7 5 12.5t13 5.5q60 0 106 -9.5t85 -32.5 t59.5 -65.5t20.5 -104.5v-59q0 -49 22 -72.5t47 -25.5q8 0 13 -5t5 -13v-63q0 -7 -5 -12.5t-13 -5.5q-25 -2 -47 -25.5t-22 -72.5v-59q0 -62 -20.5 -104.5t-59.5 -65.5t-85 -32.5t-106 -9.5z" />
<glyph unicode="&#xa1;" horiz-adv-x="325" d="M108 344h108q15 0 15 -15l15 -582q0 -15 -15 -15h-138q-15 0 -15 15l15 582q0 15 15 15zM70 529q0 39 27.5 66.5t66.5 27.5t66.5 -27.5t27.5 -66.5t-27.5 -66.5t-66.5 -27.5t-66.5 27.5t-27.5 66.5z" />
<glyph unicode="&#xa2;" horiz-adv-x="603" d="M346 -14h-91q-15 0 -15 15v55q-89 19 -144 84t-55 163q0 101 58 166.5t141 81.5l1 70q-1 15 15 15h90q15 0 15 -15v-79q20 -8 36 -20t22 -20l6 -8h2l-2 39q-1 15 15 15h90q15 0 15 -15v-195q0 -15 -15 -15h-112q-15 0 -15 15v12q-2 27 -25.5 44.5t-61.5 17.5 q-41 0 -72.5 -28t-31.5 -80q0 -53 32.5 -83t80.5 -30q31 0 61 14.5t44 28.5l15 15q12 14 23 1l67 -73q11 -12 2 -24q-7 -11 -23 -27.5t-59 -40.5t-94 -32v-52q0 -15 -15 -15z" />
<glyph unicode="&#xa3;" horiz-adv-x="702" d="M550 229h-177q-15 -48 -51 -78h318q15 0 15 -15v-121q0 -15 -15 -15h-560q-15 0 -15 15v112q0 21 13 26q1 0 9.5 2.5t18 5t22.5 8.5t24 13.5t21.5 20t16.5 26.5h-134q-15 0 -15 15v80q0 15 15 15h103q-2 2 -11 12.5l-12 14t-11 13.5t-11.5 15.5t-9.5 15.5t-9 18.5t-6 19 t-4.5 21.5t-1.5 23q0 95 74.5 163.5t217.5 68.5q131 0 205 -72t74 -187v-15q0 -15 -15 -15h-149q-15 0 -15 15v15q0 43 -27.5 70.5t-72.5 27.5t-72.5 -24.5t-27.5 -65.5q0 -26 15 -48t39.5 -46t35.5 -40h185q15 0 15 -15v-80q0 -15 -15 -15z" />
<glyph unicode="&#xa4;" horiz-adv-x="652" d="M325 93q-95 0 -160 42l-60 -68q-12 -14 -26 -2l-7 6q-14 12 -2 26l59 67q-69 67 -69 183q0 114 71 182l-61 70q-12 14 2 26l7 6q14 12 26 -2l63 -72q65 42 158 42q88 0 154 -39l61 69q12 14 26 2l7 -6q14 -12 2 -26l-59 -67q75 -70 75 -185q0 -118 -73 -186l57 -64 q12 -14 -2 -26l-7 -6q-14 -12 -26 2l-58 66q-65 -40 -158 -40zM325 235q45 0 70.5 31t25.5 82q0 50 -25.5 79t-69.5 29t-69.5 -29t-25.5 -79q0 -51 25 -82t69 -31z" />
<glyph unicode="&#xa5;" horiz-adv-x="804" d="M199 303h90l-30 45h-113q-15 0 -15 15v69q0 15 15 15h47l-81 125h-68q-15 0 -15 15v116q0 15 15 15h318q15 0 15 -15v-116q0 -15 -15 -15h-50l92 -156h5l89 156h-55q-15 0 -15 15v116q0 15 15 15h315q15 0 15 -15v-116q0 -15 -15 -15h-68q-13 -20 -41 -63t-41 -62h49 q15 0 15 -15v-69q0 -15 -15 -15h-115l-31 -45h93q15 0 15 -15v-69q0 -15 -15 -15h-118v-58h67q15 0 15 -15v-116q0 -15 -15 -15h-307q-15 0 -15 15v116q0 15 15 15h67v58h-114q-15 0 -15 15v69q0 15 15 15z" />
<glyph unicode="&#xa6;" horiz-adv-x="348" d="M243 410h-138q-15 0 -15 15v320q0 15 15 15h138q15 0 15 -15v-320q0 -15 -15 -15zM243 -131h-138q-15 0 -15 15v320q0 15 15 15h138q15 0 15 -15v-320q0 -15 -15 -15z" />
<glyph unicode="&#xa7;" horiz-adv-x="701" d="M652 205q0 -73 -39 -125q39 -42 39 -100q0 -88 -60.5 -150t-180.5 -62q-27 0 -53 4t-46 10t-37.5 14t-30 15.5t-21.5 13.5t-14 10l-5 4l2 -49q2 -15 -15 -15h-124q-15 0 -15 15v248q0 15 15 15h144q15 0 15 -15v-12q1 -4 3 -10t11.5 -22t23 -28.5t39.5 -22.5t58 -10 t52 15t20 38q0 20 -27 35.5t-68 25.5t-88.5 27.5t-88.5 40t-68 65.5t-27 100q0 79 34 127q-34 42 -34 98q0 97 64.5 158t174.5 61q113 0 173 -60l-4 39q-2 15 15 15h124q15 0 15 -15v-248q0 -15 -15 -15h-144q-15 0 -15 15v16q0 32 -31.5 58t-90.5 26q-34 0 -52.5 -13.5 t-18.5 -36.5q0 -25 29 -43t72.5 -28.5t94 -27.5t94 -38t72.5 -63t29 -100zM448 211q0 15 -9.5 27t-32.5 23t-40.5 17.5t-55.5 19t-56 18.5q-8 -14 -8 -36q0 -10 3 -18.5t10 -16t14 -13.5t20.5 -12.5t23 -10.5t27.5 -10l28.5 -9.5t31.5 -10t31 -9.5q13 19 13 41z" />
<glyph unicode="&#xa8;" horiz-adv-x="372" d="M155 627q0 -31 -21.5 -52t-52.5 -21q-30 0 -51 21t-21 52t21 52.5t51 21.5q31 0 52.5 -21.5t21.5 -52.5zM363 627q0 -31 -21.5 -52t-52.5 -21q-30 0 -51 21t-21 52t21 52.5t51 21.5q31 0 52.5 -21.5t21.5 -52.5z" />
<glyph unicode="&#xa9;" horiz-adv-x="686" d="M640 348q0 -121 -88 -209t-209 -88t-209 88t-88 209t88 209t209 88t209 -88t88 -209zM553 348q0 87 -61.5 148.5t-148.5 61.5t-148.5 -61.5t-61.5 -148.5t61.5 -148.5t148.5 -61.5t148.5 61.5t61.5 148.5zM419 304l56 -38q9 -6 3 -14q-8 -15 -20 -29.5t-44.5 -31 t-72.5 -16.5q-70 0 -119.5 48t-49.5 128t49.5 128t119.5 48q40 0 72.5 -16.5t45 -31t20.5 -29.5q6 -8 -3 -14l-57 -42q-9 -6 -13 1q-18 34 -65 34q-27 0 -47 -21t-20 -56q0 -36 20.5 -57.5t52.5 -21.5q46 0 60 28q5 8 12 3z" />
<glyph unicode="&#xaa;" horiz-adv-x="359" d="M128 470q-38 0 -60.5 20t-22.5 53q0 79 123 79h30v1q0 23 -36 23q-18 0 -32.5 -4t-22 -8t-8.5 -4q-5 0 -8 4l-33 45q-3 5 1 8q4 4 12 10t36.5 16.5t60.5 10.5q114 0 114 -106v-74h23q7 0 7 -7v-55q0 -8 -7 -8h-70q-24 0 -24 25v15h-1q-1 -2 -3 -5t-9 -10.5t-15.5 -13 t-23 -10.5t-31.5 -5zM164 543q22 0 34 16v23h-23q-39 0 -39 -22q0 -17 28 -17z" />
<glyph unicode="&#xab;" horiz-adv-x="631" d="M294 49l-244 167q-18 13 -18 29v26q0 16 18 29l244 167q7 5 12.5 2t5.5 -10v-95q0 -16 -18 -28l-116 -78l116 -78q18 -12 18 -28v-95q0 -7 -5.5 -10t-12.5 2zM555 49l-244 167q-18 13 -18 29v26q0 16 18 29l244 167q7 5 12.5 2t5.5 -10v-95q0 -16 -18 -28l-116 -78 l116 -78q18 -12 18 -28v-95q0 -7 -5.5 -10t-12.5 2z" />
<glyph unicode="&#xac;" horiz-adv-x="660" d="M578 141h-106q-15 0 -15 15v135h-389q-8 0 -13 5.5t-5 12.5v97q0 8 5 13t13 5h507q7 0 12.5 -5t5.5 -13v-250q0 -15 -15 -15z" />
<glyph unicode="&#xae;" horiz-adv-x="686" d="M640 348q0 -121 -88 -209t-209 -88t-209 88t-88 209t88 209t209 88t209 -88t88 -209zM343 127q91 0 155.5 64.5t64.5 156.5t-64.5 156t-155.5 64q-92 0 -156.5 -64.5t-64.5 -155.5q0 -92 65 -156.5t156 -64.5zM481 179h-67q-15 0 -26 22l-51 94q-8 14 -17 15h-4v-50h23 q6 0 6 -5v-70q0 -6 -6 -6h-121q-5 0 -5 6v70q0 5 5 5h15v185h-15q-5 0 -5 6v70q0 5 5 5h142q53 0 83.5 -30t30.5 -83q0 -74 -65 -96q5 -7 9 -13l26 -44h37q5 0 5 -5v-70q0 -6 -5 -6zM316 381h41q30 0 30 32t-30 32h-41v-64z" />
<glyph unicode="&#xaf;" horiz-adv-x="415" d="M372 548h-329q-7 0 -12.5 5t-5.5 13v97q0 7 5.5 12.5t12.5 5.5h329q8 0 13 -5.5t5 -12.5v-97q0 -8 -5 -13t-13 -5z" />
<glyph unicode="&#xb0;" horiz-adv-x="255" d="M127 414q-32 0 -54 21.5t-22 60.5q0 34 22 57t54 23t54.5 -23t22.5 -57q0 -39 -22 -60.5t-55 -21.5zM127 468q25 0 25 28q0 12 -7 19t-18 7q-10 0 -17 -7t-7 -19q0 -13 7 -20.5t17 -7.5z" />
<glyph unicode="&#xb1;" horiz-adv-x="567" d="M355 213h-138q-15 0 -15 15v127h-126q-8 0 -13 5.5t-5 12.5v122q0 7 5 12.5t13 5.5h126v134q0 15 15 15h138q15 0 15 -15v-134h121q7 0 12.5 -5.5t5.5 -12.5v-122q0 -7 -5.5 -12.5t-12.5 -5.5h-121v-127q0 -15 -15 -15zM491 11h-415q-8 0 -13 5.5t-5 12.5v122q0 7 5 12.5 t13 5.5h415q7 0 12.5 -5.5t5.5 -12.5v-122q0 -7 -5.5 -12.5t-12.5 -5.5z" />
<glyph unicode="&#xb2;" horiz-adv-x="410" d="M345 361h-279q-8 0 -8 7v39q1 43 20.5 72t47 43t54 24t45.5 22t19 29q0 40 -46 40q-24 0 -37 -14t-13 -37q0 -7 -8 -7h-74q-8 0 -8 7q0 59 37.5 98t102.5 39q71 0 108.5 -34.5t37.5 -81.5q0 -41 -24 -68.5t-53 -38.5t-59 -26t-38 -33h93v27q0 7 8 7h74q8 0 8 -7v-100 q0 -7 -8 -7z" />
<glyph unicode="&#xb3;" horiz-adv-x="375" d="M183 358q-13 0 -25 1.5t-21 3t-19 5.5t-16 6t-14 7.5t-11.5 8t-10.5 9t-8.5 8t-7.5 8.5l-6 7q-7 5 0 10l53 49q6 4 10 -1q35 -35 76 -35q48 0 48 30q0 28 -47 28h-31q-7 0 -7 7v54q0 8 7 8h20q48 0 48 33q0 32 -38 32q-40 0 -40 -33q0 -8 -7 -8h-74q-8 0 -8 8 q0 119 130 119q67 0 101.5 -32t34.5 -69q0 -17 -5 -32t-12 -23.5t-14.5 -14.5t-12.5 -8l-5 -3l6 -3q6 -2 14 -7.5t16 -14t14 -23.5t6 -34q0 -44 -40 -72.5t-104 -28.5z" />
<glyph unicode="&#xb4;" horiz-adv-x="354" d="M323 705l-209 -159q-14 -11 -26 3l-58 69q-12 14 2 26l194 176q14 11 26 -3l73 -87q11 -14 -2 -25z" />
<glyph unicode="&#xb5;" horiz-adv-x="625" d="M584 0h-139q-49 0 -49 49v28h-3q-1 -3 -2.5 -9t-11 -20.5t-22 -25.5t-38 -20t-57.5 -9h-8v-204q0 -15 -15 -15h-138q-15 0 -15 15v569h-45q-15 0 -15 15v104q0 15 15 15h164q49 0 49 -49v-214q0 -44 12 -65.5t50 -21.5q30 0 43 17.5t13 30.5v168h-36q-15 0 -15 15v104 q0 15 15 15h189q15 0 15 -15v-343h44q15 0 15 -15v-104q0 -15 -15 -15z" />
<glyph unicode="&#xb6;" horiz-adv-x="843" d="M721 -78h-147q-15 0 -15 15v630h-65v-630q0 -15 -15 -15h-147q-15 0 -15 15v299h-40q-113 0 -179 59t-66 178t65 182t170 63h493q15 0 15 -15v-121q0 -15 -15 -15h-24v-630q0 -15 -15 -15z" />
<glyph unicode="&#xb7;" horiz-adv-x="257" d="M202 315q0 -31 -21.5 -52t-52.5 -21t-52 21t-21 52t21 52.5t52 21.5t52.5 -21.5t21.5 -52.5z" />
<glyph unicode="&#xb8;" horiz-adv-x="253" d="M134 -165q-27 0 -52 8.5t-37 16.5l-12 8q-15 9 -4 25l14 19q11 15 26 3q21 -14 49 -14t28 18q0 11 -6 16.5t-24 5.5q-20 0 -26 3.5t-2 15.5l22 59h64l-13 -38q11 0 23 -2.5t28 -17.5t16 -42q0 -38 -26 -61t-68 -23z" />
<glyph unicode="&#xb9;" horiz-adv-x="351" d="M301 362h-230q-8 0 -8 7v66q0 7 8 7h75v177l-50 -34q-6 -4 -10 2l-37 53q-4 5 2 10l100 69q2 2 9 2h76q7 0 7 -8v-271h58q8 0 8 -7v-66q0 -7 -8 -7z" />
<glyph unicode="&#xba;" horiz-adv-x="321" d="M161 471q-51 0 -86 35.5t-35 92.5q0 58 35.5 91.5t85.5 33.5t85 -34t35 -91t-35 -92.5t-85 -35.5zM161 545q20 0 33 14t13 39q0 24 -14 38.5t-32 14.5q-19 0 -33.5 -14.5t-14.5 -38.5t14 -38.5t34 -14.5z" />
<glyph unicode="&#xbb;" horiz-adv-x="631" d="M337 49q-7 -5 -12.5 -2t-5.5 10v95q0 16 18 28l116 78l-116 78q-18 12 -18 28v95q0 7 5.5 10t12.5 -2l244 -167q18 -13 18 -29v-26q0 -16 -18 -29zM76 49q-7 -5 -12.5 -2t-5.5 10v95q0 16 18 28l116 78l-116 78q-18 12 -18 28v95q0 7 5.5 10t12.5 -2l244 -167 q18 -13 18 -29v-26q0 -16 -18 -29z" />
<glyph unicode="&#xbc;" horiz-adv-x="747" d="M300 -74h-93q-15 0 -11 15l231 804q5 15 19 15h93q17 0 11 -15l-231 -804q-4 -15 -19 -15zM267 362h-230q-8 0 -8 7v66q0 7 8 7h75v177l-50 -34q-6 -4 -10 2l-37 53q-4 5 2 10l100 69q2 2 9 2h76q7 0 7 -8v-271h58q8 0 8 -7v-66q0 -7 -8 -7zM719 0h-205q-8 0 -8 8v65 q0 7 8 7h75v28h-149q-8 0 -8 7v44q0 12 9 23l151 175q1 2 6 2h80q8 0 8 -7v-171h33q8 0 8 -8v-58q0 -7 -8 -7h-33v-28h33q8 0 8 -7v-65q0 -8 -8 -8zM589 168v77l-64 -77h64z" />
<glyph unicode="&#xbd;" horiz-adv-x="807" d="M318 -74h-93q-15 0 -11 15l231 804q5 15 19 15h93q17 0 11 -15l-231 -804q-4 -15 -19 -15zM765 0h-279q-8 0 -8 7v39q1 43 20.5 72t47 43t54 24t45.5 22t19 29q0 40 -46 40q-24 0 -37 -14t-13 -37q0 -7 -8 -7h-74q-8 0 -8 7q0 59 37.5 98t102.5 39q71 0 108.5 -34.5 t37.5 -81.5q0 -41 -24 -68.5t-53 -38.5t-59 -26t-38 -33h93v27q0 7 8 7h74q8 0 8 -7v-100q0 -7 -8 -7zM285 362h-230q-8 0 -8 7v66q0 7 8 7h75v177l-50 -34q-6 -4 -10 2l-37 53q-4 5 2 10l100 69q2 2 9 2h76q7 0 7 -8v-271h58q8 0 8 -7v-66q0 -7 -8 -7z" />
<glyph unicode="&#xbe;" horiz-adv-x="778" d="M330 -74h-93q-15 0 -11 15l231 804q5 15 19 15h93q17 0 11 -15l-231 -804q-4 -15 -19 -15zM749 0h-205q-8 0 -8 8v65q0 7 8 7h75v28h-149q-8 0 -8 7v44q0 12 9 23l151 175q1 2 6 2h80q8 0 8 -7v-171h33q8 0 8 -8v-58q0 -7 -8 -7h-33v-28h33q8 0 8 -7v-65q0 -8 -8 -8z M619 168v77l-64 -77h64zM150 358q-13 0 -25 1.5t-21 3t-19 5.5t-16 6t-14 7.5t-11.5 8t-10.5 9t-8.5 8t-7.5 8.5l-6 7q-7 5 0 10l53 49q6 4 10 -1q35 -35 76 -35q48 0 48 30q0 28 -47 28h-31q-7 0 -7 7v54q0 8 7 8h20q48 0 48 33q0 32 -38 32q-40 0 -40 -33q0 -8 -7 -8h-74 q-8 0 -8 8q0 119 130 119q67 0 101.5 -32t34.5 -69q0 -28 -12.5 -48t-24.5 -26l-12 -7l6 -3q6 -2 14 -7.5t16 -14t14 -23.5t6 -34q0 -44 -40 -72.5t-104 -28.5z" />
<glyph unicode="&#xbf;" horiz-adv-x="586" d="M264 234h138q15 0 15 -15q0 -68 -21 -117t-50.5 -74.5t-59 -45t-50.5 -41.5t-21 -51q0 -39 20.5 -62t54.5 -23q95 0 95 118q0 15 15 15h144q15 0 15 -15q0 -279 -269 -279q-128 0 -195 70t-67 167q0 58 23 100.5t55 67.5t64.5 47t55.5 52.5t23 70.5q0 15 15 15zM223 405 q0 43 30 73t73 30t73 -30t30 -73t-30 -73t-73 -30t-73 30t-30 73z" />
<glyph unicode="&#xc0;" horiz-adv-x="738" d="M739 0h-300q-15 0 -15 15v116q0 15 15 15h63l-24 68h-200l-24 -68h64q15 0 15 -15v-116q0 -15 -15 -15h-300q-15 0 -15 15v116q0 15 15 15h66l162 426h-77q-15 0 -15 15v116q0 15 15 15h229q34 0 51 -14.5t32 -52.5l193 -505h65q15 0 15 -15v-116q0 -15 -15 -15zM435 331 l-54 156h-5l-53 -156h112zM462 845l-58 -69q-12 -14 -26 -3l-209 159q-13 11 -2 25l73 87q14 15 26 3l194 -176q14 -12 2 -26z" />
<glyph unicode="&#xc1;" horiz-adv-x="738" d="M739 0h-300q-15 0 -15 15v116q0 15 15 15h63l-24 68h-200l-24 -68h64q15 0 15 -15v-116q0 -15 -15 -15h-300q-15 0 -15 15v116q0 15 15 15h66l162 426h-77q-15 0 -15 15v116q0 15 15 15h229q34 0 51 -14.5t32 -52.5l193 -505h65q15 0 15 -15v-116q0 -15 -15 -15zM435 331 l-54 156h-5l-53 -156h112zM605 931l-209 -159q-14 -11 -26 3l-58 69q-12 14 2 26l194 176q14 11 26 -3l73 -87q11 -14 -2 -25z" />
<glyph unicode="&#xc2;" horiz-adv-x="738" d="M739 0h-300q-15 0 -15 15v116q0 15 15 15h63l-24 68h-200l-24 -68h64q15 0 15 -15v-116q0 -15 -15 -15h-300q-15 0 -15 15v116q0 15 15 15h66l162 426h-77q-15 0 -15 15v116q0 15 15 15h229q34 0 51 -14.5t32 -52.5l193 -505h65q15 0 15 -15v-116q0 -15 -15 -15zM435 331 l-54 156h-5l-53 -156h112zM558 844l-57 -67q-11 -14 -25 -2l-111 101l-110 -101q-13 -13 -25 2l-57 67q-10 14 2 26l179 162q4 4 11 4q6 0 14 -6l177 -160q12 -12 2 -26z" />
<glyph unicode="&#xc3;" horiz-adv-x="738" d="M739 0h-300q-15 0 -15 15v116q0 15 15 15h63l-24 68h-200l-24 -68h64q15 0 15 -15v-116q0 -15 -15 -15h-300q-15 0 -15 15v116q0 15 15 15h66l162 426h-77q-15 0 -15 15v116q0 15 15 15h229q34 0 51 -14.5t32 -52.5l193 -505h65q15 0 15 -15v-116q0 -15 -15 -15zM435 331 l-54 156h-5l-53 -156h112zM487 946h56q15 0 15 -15q0 -72 -29 -112.5t-89 -40.5q-37 0 -65.5 17t-49 34t-39.5 17q-20 0 -29.5 -11.5t-9.5 -47.5q0 -15 -15 -15h-56q-15 0 -15 15q0 70 29.5 111t88.5 41q38 0 66.5 -18.5t48.5 -37t39 -18.5t29 14t10 52q0 15 15 15z" />
<glyph unicode="&#xc4;" horiz-adv-x="738" d="M739 0h-300q-15 0 -15 15v116q0 15 15 15h63l-24 68h-200l-24 -68h64q15 0 15 -15v-116q0 -15 -15 -15h-300q-15 0 -15 15v116q0 15 15 15h66l162 426h-77q-15 0 -15 15v116q0 15 15 15h229q34 0 51 -14.5t32 -52.5l193 -505h65q15 0 15 -15v-116q0 -15 -15 -15zM435 331 l-54 156h-5l-53 -156h112zM337 853q0 -31 -21.5 -52t-52.5 -21q-30 0 -51 21t-21 52t21 52.5t51 21.5q31 0 52.5 -21.5t21.5 -52.5zM545 853q0 -31 -21.5 -52t-52.5 -21q-30 0 -51 21t-21 52t21 52.5t51 21.5q31 0 52.5 -21.5t21.5 -52.5z" />
<glyph unicode="&#xc5;" horiz-adv-x="738" d="M739 0h-300q-15 0 -15 15v116q0 15 15 15h63l-24 68h-200l-24 -68h64q15 0 15 -15v-116q0 -15 -15 -15h-300q-15 0 -15 15v116q0 15 15 15h66l162 426h-77q-15 0 -15 15v116q0 15 15 15h229q34 0 51 -14.5t32 -52.5l193 -505h65q15 0 15 -15v-116q0 -15 -15 -15zM435 331 l-54 156h-5l-53 -156h112zM370 772q-35 0 -59.5 25.5t-24.5 60.5t24.5 60.5t59.5 25.5t59.5 -25.5t24.5 -60.5t-24.5 -60.5t-59.5 -25.5zM370 830q11 0 18.5 8.5t7.5 19.5t-7.5 19.5t-18.5 8.5t-18.5 -8.5t-7.5 -19.5t7.5 -19.5t18.5 -8.5z" />
<glyph unicode="&#xc6;" horiz-adv-x="1065" d="M1007 0h-575q-15 0 -15 15v116q0 15 15 15h64v142h-197l-50 -142h64q15 0 15 -15v-116q0 -15 -15 -15h-300q-15 0 -15 15v116q0 15 15 15h64l162 426h-75q-15 0 -15 15v116q0 15 15 15h843q15 0 15 -15v-226q0 -15 -15 -15h-131q-15 0 -15 15v95h-193v-138h156 q15 0 15 -15v-116q0 -15 -15 -15h-156v-142h192v95q0 15 15 15h132q15 0 15 -15v-226q0 -15 -15 -15zM496 434v138h-87l-53 -138h140z" />
<glyph unicode="&#xc7;" horiz-adv-x="768" d="M396 -165q-27 0 -52 8.5t-37 16.5l-12 8q-15 9 -4 25l14 19q11 15 26 3q21 -14 49 -14t28 18q0 11 -6 16.5t-24 5.5q-20 0 -26 3.5t-2 15.5l13 35q-141 11 -234 109t-93 259q0 88 29 158.5t78.5 113.5t111 66t129.5 23q127 0 182 -74l-3 53q-1 15 15 15h124q15 0 15 -15 v-253q0 -15 -15 -15h-144q-15 0 -15 15v10q0 34 -40.5 67t-105.5 33q-79 0 -127 -53t-48 -147q0 -89 56.5 -146t132.5 -57q133 0 200 121q7 13 20 4l101 -69q10 -8 4 -22q-53 -114 -163 -163q-65 -30 -146 -34l-4 -13q11 0 23 -2.5t28 -17.5t16 -42q0 -38 -26 -61t-68 -23z " />
<glyph unicode="&#xc8;" horiz-adv-x="705" d="M633 0h-574q-15 0 -15 15v116q0 15 15 15h64v426h-64q-15 0 -15 15v116q0 15 15 15h575q15 0 15 -15v-226q0 -15 -15 -15h-131q-15 0 -15 15v95h-193v-138h156q15 0 15 -15v-116q0 -15 -15 -15h-156v-142h192v95q0 15 15 15h131q15 0 15 -15v-226q0 -15 -15 -15zM458 845 l-58 -69q-12 -14 -26 -3l-209 159q-13 11 -2 25l73 87q14 15 26 3l194 -176q14 -12 2 -26z" />
<glyph unicode="&#xc9;" horiz-adv-x="705" d="M633 0h-574q-15 0 -15 15v116q0 15 15 15h64v426h-64q-15 0 -15 15v116q0 15 15 15h575q15 0 15 -15v-226q0 -15 -15 -15h-131q-15 0 -15 15v95h-193v-138h156q15 0 15 -15v-116q0 -15 -15 -15h-156v-142h192v95q0 15 15 15h131q15 0 15 -15v-226q0 -15 -15 -15zM567 931 l-209 -159q-14 -11 -26 3l-58 69q-12 14 2 26l194 176q14 11 26 -3l73 -87q11 -14 -2 -25z" />
<glyph unicode="&#xca;" horiz-adv-x="705" d="M633 0h-574q-15 0 -15 15v116q0 15 15 15h64v426h-64q-15 0 -15 15v116q0 15 15 15h575q15 0 15 -15v-226q0 -15 -15 -15h-131q-15 0 -15 15v95h-193v-138h156q15 0 15 -15v-116q0 -15 -15 -15h-156v-142h192v95q0 15 15 15h131q15 0 15 -15v-226q0 -15 -15 -15zM526 844 l-57 -67q-11 -14 -25 -2l-111 101l-110 -101q-13 -13 -25 2l-57 67q-10 14 2 26l179 162q4 4 11 4t14 -6l177 -160q12 -12 2 -26z" />
<glyph unicode="&#xcb;" horiz-adv-x="705" d="M633 0h-574q-15 0 -15 15v116q0 15 15 15h64v426h-64q-15 0 -15 15v116q0 15 15 15h575q15 0 15 -15v-226q0 -15 -15 -15h-131q-15 0 -15 15v95h-193v-138h156q15 0 15 -15v-116q0 -15 -15 -15h-156v-142h192v95q0 15 15 15h131q15 0 15 -15v-226q0 -15 -15 -15zM349 853 q0 -31 -21.5 -52t-52.5 -21q-30 0 -51 21t-21 52t21 52.5t51 21.5q31 0 52.5 -21.5t21.5 -52.5zM557 853q0 -31 -21.5 -52t-52.5 -21q-30 0 -51 21t-21 52t21 52.5t51 21.5q31 0 52.5 -21.5t21.5 -52.5z" />
<glyph unicode="&#xcc;" horiz-adv-x="418" d="M358 0h-300q-15 0 -15 15v116q0 15 15 15h64v426h-64q-15 0 -15 15v116q0 15 15 15h300q15 0 15 -15v-116q0 -15 -15 -15h-64v-426h64q15 0 15 -15v-116q0 -15 -15 -15zM295 845l-58 -69q-12 -14 -26 -3l-209 159q-13 11 -2 25l73 87q14 15 26 3l194 -176q14 -12 2 -26z " />
<glyph unicode="&#xcd;" horiz-adv-x="418" d="M359 0h-300q-15 0 -15 15v116q0 15 15 15h64v426h-64q-15 0 -15 15v116q0 15 15 15h300q15 0 15 -15v-116q0 -15 -15 -15h-64v-426h64q15 0 15 -15v-116q0 -15 -15 -15zM439 931l-209 -159q-14 -11 -26 3l-58 69q-12 14 2 26l194 176q14 11 26 -3l73 -87q11 -14 -2 -25z " />
<glyph unicode="&#xce;" horiz-adv-x="418" d="M359 0h-300q-15 0 -15 15v116q0 15 15 15h64v426h-64q-15 0 -15 15v116q0 15 15 15h300q15 0 15 -15v-116q0 -15 -15 -15h-64v-426h64q15 0 15 -15v-116q0 -15 -15 -15zM409 844l-57 -67q-11 -14 -25 -2l-111 101l-110 -101q-13 -13 -25 2l-57 67q-10 14 2 26l179 162 q4 4 11 4q6 0 14 -6l177 -160q12 -12 2 -26z" />
<glyph unicode="&#xcf;" horiz-adv-x="418" d="M359 0h-300q-15 0 -15 15v116q0 15 15 15h64v426h-64q-15 0 -15 15v116q0 15 15 15h300q15 0 15 -15v-116q0 -15 -15 -15h-64v-426h64q15 0 15 -15v-116q0 -15 -15 -15zM188 853q0 -31 -21.5 -52t-52.5 -21q-30 0 -51 21t-21 52t21 52.5t51 21.5q31 0 52.5 -21.5 t21.5 -52.5zM396 853q0 -31 -21.5 -52t-52.5 -21q-30 0 -51 21t-21 52t21 52.5t51 21.5q31 0 52.5 -21.5t21.5 -52.5z" />
<glyph unicode="&#xd0;" horiz-adv-x="743" d="M392 0h-333q-15 0 -15 15v116q0 15 15 15h64v139h-61q-8 0 -13 5.5t-5 12.5v97q0 8 5 13t13 5h61v154h-64q-15 0 -15 15v116q0 15 15 15h277q98 0 181 -41t137 -126.5t54 -201.5q0 -105 -46 -186t-117.5 -122t-152.5 -41zM295 146h26q101 2 152.5 46.5t51.5 154.5 q0 225 -217 225h-13v-154h89q8 0 13 -5t5 -13v-97q0 -7 -5 -12.5t-13 -5.5h-89v-139z" />
<glyph unicode="&#xd1;" horiz-adv-x="809" d="M688 0h-118q-40 0 -71 48l-168 267q-8 12 -16 28l-13 26l-4 10h-3v-233h64q15 0 15 -15v-116q0 -15 -15 -15h-300q-15 0 -15 15v116q0 15 15 15h64v421h-64q-15 0 -15 15v121q0 15 15 15h191q18 0 32 -9t20.5 -17.5t19.5 -29.5l153 -245q12 -20 25 -47t20 -44l7 -17h4 v263h-64q-15 0 -15 15v116q0 15 15 15h300q15 0 15 -15v-116q0 -15 -15 -15h-64v-557q0 -15 -15 -15zM539 946h56q15 0 15 -15q0 -72 -29 -112.5t-89 -40.5q-37 0 -65.5 17t-49 34t-39.5 17q-20 0 -29.5 -11.5t-9.5 -47.5q0 -15 -15 -15h-56q-15 0 -15 15q0 70 29.5 111 t88.5 41q38 0 66.5 -18.5t48.5 -37t39 -18.5t29 14t10 52q0 15 15 15z" />
<glyph unicode="&#xd2;" horiz-adv-x="798" d="M399 -7q-155 0 -259.5 104.5t-104.5 265.5q0 88 32 158.5t84.5 113.5t116 66t131.5 23t131.5 -23t116 -66t84.5 -113.5t32 -158.5q0 -169 -103 -269.5t-261 -100.5zM399 156q77 0 127.5 59t50.5 145q0 92 -50 146.5t-129 54.5q-78 0 -127.5 -55t-49.5 -146 q0 -86 50.5 -145t127.5 -59zM468 845l-58 -69q-12 -14 -26 -3l-209 159q-13 11 -2 25l73 87q14 15 26 3l194 -176q14 -12 2 -26z" />
<glyph unicode="&#xd3;" horiz-adv-x="798" d="M399 -7q-155 0 -259.5 104.5t-104.5 265.5q0 88 32 158.5t84.5 113.5t116 66t131.5 23t131.5 -23t116 -66t84.5 -113.5t32 -158.5q0 -169 -103 -269.5t-261 -100.5zM399 156q77 0 127.5 59t50.5 145q0 92 -50 146.5t-129 54.5q-78 0 -127.5 -55t-49.5 -146 q0 -86 50.5 -145t127.5 -59zM542 931l-209 -159q-14 -11 -26 3l-58 69q-12 14 2 26l194 176q14 11 26 -3l73 -87q11 -14 -2 -25z" />
<glyph unicode="&#xd4;" horiz-adv-x="798" d="M399 -7q-155 0 -259.5 104.5t-104.5 265.5q0 88 32 158.5t84.5 113.5t116 66t131.5 23t131.5 -23t116 -66t84.5 -113.5t32 -158.5q0 -169 -103 -269.5t-261 -100.5zM399 156q77 0 127.5 59t50.5 145q0 92 -50 146.5t-129 54.5q-78 0 -127.5 -55t-49.5 -146 q0 -86 50.5 -145t127.5 -59zM597 844l-57 -67q-11 -14 -25 -2l-111 101l-110 -101q-13 -13 -25 2l-57 67q-10 14 2 26l179 162q4 4 11 4q6 0 14 -6l177 -160q12 -12 2 -26z" />
<glyph unicode="&#xd5;" horiz-adv-x="798" d="M399 -7q-155 0 -259.5 104.5t-104.5 265.5q0 88 32 158.5t84.5 113.5t116 66t131.5 23t131.5 -23t116 -66t84.5 -113.5t32 -158.5q0 -169 -103 -269.5t-261 -100.5zM399 156q77 0 127.5 59t50.5 145q0 92 -50 146.5t-129 54.5q-78 0 -127.5 -55t-49.5 -146 q0 -86 50.5 -145t127.5 -59zM553 946h56q15 0 15 -15q0 -72 -29 -112.5t-89 -40.5q-37 0 -65.5 17t-49 34t-39.5 17q-20 0 -29.5 -11.5t-9.5 -47.5q0 -15 -15 -15h-56q-15 0 -15 15q0 70 29.5 111t88.5 41q38 0 66.5 -18.5t48.5 -37t39 -18.5t29 14t10 52q0 15 15 15z" />
<glyph unicode="&#xd6;" horiz-adv-x="798" d="M399 -7q-155 0 -259.5 104.5t-104.5 265.5q0 88 32 158.5t84.5 113.5t116 66t131.5 23t131.5 -23t116 -66t84.5 -113.5t32 -158.5q0 -169 -103 -269.5t-261 -100.5zM399 156q77 0 127.5 59t50.5 145q0 92 -50 146.5t-129 54.5q-78 0 -127.5 -55t-49.5 -146 q0 -86 50.5 -145t127.5 -59zM375 853q0 -31 -21.5 -52t-52.5 -21q-30 0 -51 21t-21 52t21 52.5t51 21.5q31 0 52.5 -21.5t21.5 -52.5zM583 853q0 -31 -21.5 -52t-52.5 -21q-30 0 -51 21t-21 52t21 52.5t51 21.5q31 0 52.5 -21.5t21.5 -52.5z" />
<glyph unicode="&#xd7;" horiz-adv-x="508" d="M455 188l-88 -87q-12 -12 -24 0l-83 84l-88 -87q-12 -10 -22 0l-97 97q-10 12 0 22l87 87l-79 80q-11 11 0 24l87 87q12 12 25 -1l78 -79l76 76q11 11 22 1l97 -97q10 -11 0 -21l-76 -76l85 -85q11 -14 0 -25z" />
<glyph unicode="&#xd8;" horiz-adv-x="798" d="M399 -7q-25 0 -51 3l-10 -36q-4 -15 -19 -15h-73q-16 0 -11 15l17 61q-99 41 -158 132t-59 210q0 88 32 158.5t84.5 113.5t116 66t131.5 23q30 0 54 -4l13 44q4 15 19 15h73q17 0 11 -15l-20 -70q95 -40 154.5 -124t59.5 -207q0 -169 -103 -269.5t-261 -100.5zM221 360 q0 -114 79 -172l107 373h-9q-78 0 -127.5 -55t-49.5 -146zM399 157q77 0 127.5 58.5t50.5 144.5q0 114 -76 169l-107 -372h5z" />
<glyph unicode="&#xd9;" horiz-adv-x="754" d="M490 259v313h-64q-15 0 -15 15v116q0 15 15 15h300q15 0 15 -15v-116q0 -15 -15 -15h-64v-304q0 -133 -77 -204t-206 -71q-130 0 -208.5 71t-78.5 204v304h-64q-15 0 -15 15v116q0 15 15 15h300q15 0 15 -15v-116q0 -15 -15 -15h-64v-308q0 -43 26 -75t89 -32q51 0 81 30 t30 72zM531 845l-58 -69q-12 -14 -26 -3l-209 159q-13 11 -2 25l73 87q14 15 26 3l194 -176q14 -12 2 -26z" />
<glyph unicode="&#xda;" horiz-adv-x="754" d="M490 259v313h-64q-15 0 -15 15v116q0 15 15 15h300q15 0 15 -15v-116q0 -15 -15 -15h-64v-304q0 -133 -77 -204t-206 -71q-130 0 -208.5 71t-78.5 204v304h-64q-15 0 -15 15v116q0 15 15 15h300q15 0 15 -15v-116q0 -15 -15 -15h-64v-308q0 -43 26 -75t89 -32q51 0 81 30 t30 72zM554 931l-209 -159q-14 -11 -26 3l-58 69q-12 14 2 26l194 176q14 11 26 -3l73 -87q11 -14 -2 -25z" />
<glyph unicode="&#xdb;" horiz-adv-x="754" d="M490 259v313h-64q-15 0 -15 15v116q0 15 15 15h300q15 0 15 -15v-116q0 -15 -15 -15h-64v-304q0 -133 -77 -204t-206 -71q-130 0 -208.5 71t-78.5 204v304h-64q-15 0 -15 15v116q0 15 15 15h300q15 0 15 -15v-116q0 -15 -15 -15h-64v-308q0 -43 26 -75t89 -32q51 0 81 30 t30 72zM573 844l-57 -67q-11 -14 -25 -2l-111 101l-110 -101q-13 -13 -25 2l-57 67q-10 14 2 26l179 162q4 4 11 4t14 -6l177 -160q12 -12 2 -26z" />
<glyph unicode="&#xdc;" horiz-adv-x="754" d="M490 259v313h-64q-15 0 -15 15v116q0 15 15 15h300q15 0 15 -15v-116q0 -15 -15 -15h-64v-304q0 -133 -77 -204t-206 -71q-130 0 -208.5 71t-78.5 204v304h-64q-15 0 -15 15v116q0 15 15 15h300q15 0 15 -15v-116q0 -15 -15 -15h-64v-308q0 -43 26 -75t89 -32q51 0 81 30 t30 72zM344 853q0 -31 -21.5 -52t-52.5 -21q-30 0 -51 21t-21 52t21 52.5t51 21.5q31 0 52.5 -21.5t21.5 -52.5zM552 853q0 -31 -21.5 -52t-52.5 -21q-30 0 -51 21t-21 52t21 52.5t51 21.5q31 0 52.5 -21.5t21.5 -52.5z" />
<glyph unicode="&#xdd;" horiz-adv-x="723" d="M514 0h-307q-15 0 -15 15v116q0 15 15 15h67v125q-26 32 -201 301h-68q-15 0 -15 15v116q0 15 15 15h318q15 0 15 -15v-116q0 -15 -15 -15h-50l92 -156h5l89 156h-55q-15 0 -15 15v116q0 15 15 15h315q15 0 15 -15v-116q0 -15 -15 -15h-68q-163 -251 -204 -301v-125h67 q15 0 15 -15v-116q0 -15 -15 -15zM498 931l-209 -159q-14 -11 -26 3l-58 69q-12 14 2 26l194 176q14 11 26 -3l73 -87q11 -14 -2 -25z" />
<glyph unicode="&#xde;" horiz-adv-x="639" d="M340 0h-272q-15 0 -15 15v104q0 15 15 15h45v450h-39q-15 0 -15 15v104q0 15 15 15h187q15 0 15 -15v-119h94q118 0 184.5 -57.5t66.5 -160.5q0 -102 -67.5 -154.5t-197.5 -52.5h-88v-25h72q15 0 15 -15v-104q0 -15 -15 -15zM270 293h101q76 0 76 73q0 72 -76 72h-101 v-145z" />
<glyph unicode="&#xdf;" horiz-adv-x="740" d="M288 0h-248q-15 0 -15 15v104q0 15 15 15h44v336q0 119 72 186.5t191 67.5q109 0 165.5 -47t56.5 -105q0 -30 -11 -55t-27.5 -40.5t-32.5 -28t-27 -26t-11 -26.5q0 -19 27.5 -34t67 -30t79.5 -35.5t67.5 -61t27.5 -95.5q0 -56 -53 -101.5t-146 -45.5q-25 0 -48 4 t-40.5 10t-33.5 16.5t-27.5 19.5t-22.5 22.5t-17.5 22.5t-13 22.5t-9.5 19.5t-7 17l-4 11q-6 13 9 20l75 34q14 6 21 -5q1 -2 7 -15t12.5 -23t17 -21.5t27 -18.5t36.5 -7q35 0 35 30q0 24 -24.5 41.5t-59.5 30.5t-69.5 29.5t-59 49t-24.5 79.5q0 30 13.5 53t30 35.5t30 29 t13.5 34.5t-18 31.5t-48 13.5q-79 0 -79 -109v-336h36q15 0 15 -15v-104q0 -15 -15 -15z" />
<glyph unicode="&#xe0;" horiz-adv-x="568" d="M544 0h-139q-49 0 -49 49v30h-2q-2 -4 -5.5 -9.5t-17.5 -21t-31 -27t-46.5 -21t-63.5 -9.5q-77 0 -121.5 40.5t-44.5 106.5q0 72 63.5 111t183.5 39h60v3q0 59 -73 59q-37 0 -65.5 -8t-43 -16t-17.5 -8q-10 0 -15 7l-66 84q-7 10 1 17q3 3 8.5 8t26 17.5t44 22t61.5 17.5 t79 8q104 0 166 -51t62 -160v-154h45q15 0 15 -15v-104q0 -15 -15 -15zM331 168v39h-48q-83 0 -83 -38q0 -37 57 -37q44 0 74 36zM404 619l-58 -69q-12 -14 -26 -3l-209 159q-13 11 -2 25l73 87q14 15 26 3l194 -176q14 -12 2 -26z" />
<glyph unicode="&#xe1;" horiz-adv-x="568" d="M544 0h-139q-49 0 -49 49v30h-2q-2 -4 -5.5 -9.5t-17.5 -21t-31 -27t-46.5 -21t-63.5 -9.5q-77 0 -121.5 40.5t-44.5 106.5q0 72 63.5 111t183.5 39h60v3q0 59 -73 59q-37 0 -65.5 -8t-43 -16t-17.5 -8q-10 0 -15 7l-66 84q-7 10 1 17q3 3 8.5 8t26 17.5t44 22t61.5 17.5 t79 8q104 0 166 -51t62 -160v-154h45q15 0 15 -15v-104q0 -15 -15 -15zM331 168v39h-48q-83 0 -83 -38q0 -37 57 -37q44 0 74 36zM471 705l-209 -159q-14 -11 -26 3l-58 69q-12 14 2 26l194 176q14 11 26 -3l73 -87q11 -14 -2 -25z" />
<glyph unicode="&#xe2;" horiz-adv-x="568" d="M544 0h-139q-49 0 -49 49v30h-2q-2 -4 -5.5 -9.5t-17.5 -21t-31 -27t-46.5 -21t-63.5 -9.5q-77 0 -121.5 40.5t-44.5 106.5q0 72 63.5 111t183.5 39h60v3q0 59 -73 59q-37 0 -65.5 -8t-43 -16t-17.5 -8q-10 0 -15 7l-66 84q-7 10 1 17q3 3 8.5 8t26 17.5t44 22t61.5 17.5 t79 8q104 0 166 -51t62 -160v-154h45q15 0 15 -15v-104q0 -15 -15 -15zM331 168v39h-48q-83 0 -83 -38q0 -37 57 -37q44 0 74 36zM499 618l-57 -67q-11 -14 -25 -2l-111 101l-110 -101q-13 -13 -25 2l-57 67q-10 14 2 26l179 162q4 4 11 4q6 0 14 -6l177 -160q12 -12 2 -26z " />
<glyph unicode="&#xe3;" horiz-adv-x="568" d="M544 0h-139q-49 0 -49 49v30h-2q-2 -4 -5.5 -9.5t-17.5 -21t-31 -27t-46.5 -21t-63.5 -9.5q-77 0 -121.5 40.5t-44.5 106.5q0 72 63.5 111t183.5 39h60v3q0 59 -73 59q-37 0 -65.5 -8t-43 -16t-17.5 -8q-10 0 -15 7l-66 84q-7 10 1 17q3 3 8.5 8t26 17.5t44 22t61.5 17.5 t79 8q104 0 166 -51t62 -160v-154h45q15 0 15 -15v-104q0 -15 -15 -15zM331 168v39h-48q-83 0 -83 -38q0 -37 57 -37q44 0 74 36zM440 720h56q15 0 15 -15q0 -72 -29 -112.5t-89 -40.5q-37 0 -65.5 17t-49 34t-39.5 17q-20 0 -29.5 -11.5t-9.5 -47.5q0 -15 -15 -15h-56 q-15 0 -15 15q0 70 29.5 111t88.5 41q38 0 66.5 -18.5t48.5 -37t39 -18.5t29 14t10 52q0 15 15 15z" />
<glyph unicode="&#xe4;" horiz-adv-x="568" d="M544 0h-139q-49 0 -49 49v30h-2q-2 -4 -5.5 -9.5t-17.5 -21t-31 -27t-46.5 -21t-63.5 -9.5q-77 0 -121.5 40.5t-44.5 106.5q0 72 63.5 111t183.5 39h60v3q0 59 -73 59q-37 0 -65.5 -8t-43 -16t-17.5 -8q-10 0 -15 7l-66 84q-7 10 1 17q3 3 8.5 8t26 17.5t44 22t61.5 17.5 t79 8q104 0 166 -51t62 -160v-154h45q15 0 15 -15v-104q0 -15 -15 -15zM331 168v39h-48q-83 0 -83 -38q0 -37 57 -37q44 0 74 36zM271 627q0 -31 -21.5 -52t-52.5 -21q-30 0 -51 21t-21 52t21 52.5t51 21.5q31 0 52.5 -21.5t21.5 -52.5zM479 627q0 -31 -21.5 -52t-52.5 -21 q-30 0 -51 21t-21 52t21 52.5t51 21.5q31 0 52.5 -21.5t21.5 -52.5z" />
<glyph unicode="&#xe5;" horiz-adv-x="568" d="M544 0h-139q-49 0 -49 49v30h-2q-2 -4 -5.5 -9.5t-17.5 -21t-31 -27t-46.5 -21t-63.5 -9.5q-77 0 -121.5 40.5t-44.5 106.5q0 72 63.5 111t183.5 39h60v3q0 59 -73 59q-37 0 -65.5 -8t-43 -16t-17.5 -8q-10 0 -15 7l-66 84q-7 10 1 17q3 3 8.5 8t26 17.5t44 22t61.5 17.5 t79 8q104 0 166 -51t62 -160v-154h45q15 0 15 -15v-104q0 -15 -15 -15zM331 168v39h-48q-83 0 -83 -38q0 -37 57 -37q44 0 74 36zM294 546q-35 0 -59.5 25.5t-24.5 60.5t24.5 60.5t59.5 25.5t59.5 -25.5t24.5 -60.5t-24.5 -60.5t-59.5 -25.5zM294 604q11 0 18.5 8.5 t7.5 19.5t-7.5 19.5t-18.5 8.5t-18.5 -8.5t-7.5 -19.5t7.5 -19.5t18.5 -8.5z" />
<glyph unicode="&#xe6;" horiz-adv-x="861" d="M810 224h-305q9 -45 38.5 -67t71.5 -22q34 0 65 13.5t45 27.5l14 14q12 14 23 1l63 -70q11 -12 2 -24q-6 -9 -19.5 -22t-40.5 -33.5t-71.5 -34.5t-96.5 -14q-67 0 -124.5 25t-93.5 72v-2q-28 -39 -77.5 -67.5t-113.5 -28.5q-77 0 -121.5 40t-44.5 106q0 72 63.5 111 t183.5 39h60v1q0 61 -73 61q-37 0 -65.5 -8t-43 -16t-17.5 -8q-10 0 -15 7l-66 84q-7 10 1 17q3 3 8.5 8t26 17.5t44 22t61.5 17.5t79 8q104 0 163 -49q69 49 152 49q121 0 181.5 -66t60.5 -191q0 -8 -5 -13t-13 -5zM331 168v39h-48q-83 0 -83 -38q0 -37 57 -37q44 0 74 36z M508 308h161q-2 23 -19.5 42t-56.5 19q-72 0 -85 -61z" />
<glyph unicode="&#xe7;" horiz-adv-x="571" d="M289 -165q-27 0 -52 8.5t-37 16.5l-12 8q-15 9 -4 25l14 19q11 15 26 3q21 -14 49 -14t28 18q0 11 -6 16.5t-24 5.5q-20 0 -26 3.5t-2 15.5l13 36q-99 12 -163 78.5t-64 172.5q0 116 74 184t170 68q47 0 82 -15.5t47 -30.5l11 -15h2l-2 39q-1 15 15 15h90q15 0 15 -15 v-195q0 -15 -15 -15h-112q-15 0 -15 15v12q-2 27 -25.5 44.5t-61.5 17.5q-41 0 -72.5 -28t-31.5 -80q0 -53 32.5 -83t80.5 -30q31 0 61 14.5t44 28.5l15 15q12 14 23 1l67 -73q11 -12 2 -24q-6 -9 -18 -21t-36.5 -31.5t-64.5 -33.5t-86 -17l-4 -13q11 0 23 -2.5t28 -17.5 t16 -42q0 -38 -26 -61t-68 -23z" />
<glyph unicode="&#xe8;" horiz-adv-x="559" d="M508 224h-305q9 -45 38.5 -67t71.5 -22q34 0 65 13.5t45 27.5l14 14q12 14 23 1l63 -70q11 -12 2 -24q-6 -9 -19.5 -22t-40.5 -33.5t-71.5 -34.5t-96.5 -14q-114 0 -191 69t-77 185q0 77 39.5 136.5t96.5 87.5t119 28q121 0 181.5 -66t60.5 -191q0 -8 -5 -13t-13 -5z M206 308h161q-2 23 -19.5 42t-56.5 19q-72 0 -85 -61zM422 619l-58 -69q-12 -14 -26 -3l-209 159q-13 11 -2 25l73 87q14 15 26 3l194 -176q14 -12 2 -26z" />
<glyph unicode="&#xe9;" horiz-adv-x="559" d="M508 224h-305q9 -45 38.5 -67t71.5 -22q34 0 65 13.5t45 27.5l14 14q12 14 23 1l63 -70q11 -12 2 -24q-6 -9 -19.5 -22t-40.5 -33.5t-71.5 -34.5t-96.5 -14q-114 0 -191 69t-77 185q0 77 39.5 136.5t96.5 87.5t119 28q121 0 181.5 -66t60.5 -191q0 -8 -5 -13t-13 -5z M206 308h161q-2 23 -19.5 42t-56.5 19q-72 0 -85 -61zM488 705l-209 -159q-14 -11 -26 3l-58 69q-12 14 2 26l194 176q14 11 26 -3l73 -87q11 -14 -2 -25z" />
<glyph unicode="&#xea;" horiz-adv-x="559" d="M508 224h-305q9 -45 38.5 -67t71.5 -22q34 0 65 13.5t45 27.5l14 14q12 14 23 1l63 -70q11 -12 2 -24q-6 -9 -19.5 -22t-40.5 -33.5t-71.5 -34.5t-96.5 -14q-114 0 -191 69t-77 185q0 77 39.5 136.5t96.5 87.5t119 28q121 0 181.5 -66t60.5 -191q0 -8 -5 -13t-13 -5z M206 308h161q-2 23 -19.5 42t-56.5 19q-72 0 -85 -61zM501 618l-57 -67q-11 -14 -25 -2l-111 101l-110 -101q-13 -13 -25 2l-57 67q-10 14 2 26l179 162q4 4 11 4q6 0 14 -6l177 -160q12 -12 2 -26z" />
<glyph unicode="&#xeb;" horiz-adv-x="559" d="M508 224h-305q9 -45 38.5 -67t71.5 -22q34 0 65 13.5t45 27.5l14 14q12 14 23 1l63 -70q11 -12 2 -24q-6 -9 -19.5 -22t-40.5 -33.5t-71.5 -34.5t-96.5 -14q-114 0 -191 69t-77 185q0 77 39.5 136.5t96.5 87.5t119 28q121 0 181.5 -66t60.5 -191q0 -8 -5 -13t-13 -5z M206 308h161q-2 23 -19.5 42t-56.5 19q-72 0 -85 -61zM267 627q0 -31 -21.5 -52t-52.5 -21q-30 0 -51 21t-21 52t21 52.5t51 21.5q31 0 52.5 -21.5t21.5 -52.5zM475 627q0 -31 -21.5 -52t-52.5 -21q-30 0 -51 21t-21 52t21 52.5t51 21.5q31 0 52.5 -21.5t21.5 -52.5z" />
<glyph unicode="&#xec;" horiz-adv-x="349" d="M234 619l-58 -69q-12 -14 -26 -3l-209 159q-13 11 -2 25l73 87q14 15 26 3l194 -176q14 -12 2 -26zM301 0h-248q-15 0 -15 15v104q0 15 15 15h44v224h-44q-15 0 -15 15v104q0 15 15 15h197q15 0 15 -15v-343h36q15 0 15 -15v-104q0 -15 -15 -15z" />
<glyph unicode="&#xed;" horiz-adv-x="349" d="M404 705l-209 -159q-14 -11 -26 3l-58 69q-12 14 2 26l194 176q14 11 26 -3l73 -87q11 -14 -2 -25zM302 0h-248q-15 0 -15 15v104q0 15 15 15h44v224h-44q-15 0 -15 15v104q0 15 15 15h197q15 0 15 -15v-343h36q15 0 15 -15v-104q0 -15 -15 -15z" />
<glyph unicode="&#xee;" horiz-adv-x="349" d="M370 618l-57 -67q-11 -14 -25 -2l-111 101l-110 -101q-13 -13 -25 2l-57 67q-10 14 2 26l179 162q4 4 11 4t14 -6l177 -160q12 -12 2 -26zM302 0h-248q-15 0 -15 15v104q0 15 15 15h44v224h-44q-15 0 -15 15v104q0 15 15 15h197q15 0 15 -15v-343h36q15 0 15 -15v-104 q0 -15 -15 -15z" />
<glyph unicode="&#xef;" horiz-adv-x="349" d="M133 627q0 -31 -21.5 -52t-52.5 -21q-30 0 -51 21t-21 52t21 52.5t51 21.5q31 0 52.5 -21.5t21.5 -52.5zM341 627q0 -31 -21.5 -52t-52.5 -21q-30 0 -51 21t-21 52t21 52.5t51 21.5q31 0 52.5 -21.5t21.5 -52.5zM302 0h-248q-15 0 -15 15v104q0 15 15 15h44v224h-44 q-15 0 -15 15v104q0 15 15 15h197q15 0 15 -15v-343h36q15 0 15 -15v-104q0 -15 -15 -15z" />
<glyph unicode="&#xf0;" horiz-adv-x="621" d="M536 659l-30 -31q81 -98 81 -265q0 -185 -76 -277.5t-211 -92.5q-128 0 -198 71t-70 176q0 97 64.5 154.5t199.5 57.5q68 0 116 -23q-6 49 -20 84l-31 -31q-13 -13 -26 0l-41 42q-12 12 0 25l30 29q-13 4 -31 4q-73 0 -73 -35q0 -15 -15 -15h-122q-15 0 -15 15 q0 79 56 128t168 49q79 0 144 -37l37 36q13 13 26 0l37 -39q12 -12 0 -25zM293 135q60 0 87.5 42t32.5 135q-45 18 -86 18q-66 0 -94.5 -29.5t-28.5 -69.5q0 -45 23 -70.5t66 -25.5z" />
<glyph unicode="&#xf1;" horiz-adv-x="629" d="M597 0h-164q-49 0 -49 49v214q0 44 -12 65.5t-50 21.5q-21 0 -35 -11.5t-17 -20t-4 -16.5v-168h36q15 0 15 -15v-104q0 -15 -15 -15h-248q-15 0 -15 15v104q0 15 15 15h44v224h-44q-15 0 -15 15v104q0 15 15 15h172q15 0 15 -15v-62h4q1 3 3.5 9t13 20.5t24.5 25.5 t40.5 20t58.5 9q79 0 122.5 -49t44.5 -128v-188h45q15 0 15 -15v-104q0 -15 -15 -15zM429 720h56q15 0 15 -15q0 -72 -29 -112.5t-89 -40.5q-37 0 -65.5 17t-49 34t-39.5 17q-20 0 -29.5 -11.5t-9.5 -47.5q0 -15 -15 -15h-56q-15 0 -15 15q0 70 29.5 111t88.5 41 q38 0 66.5 -18.5t48.5 -37t39 -18.5t29 14t10 52q0 15 15 15z" />
<glyph unicode="&#xf2;" horiz-adv-x="592" d="M295 -7q-124 0 -194.5 69t-70.5 185q0 115 73 183.5t193 68.5t193 -68.5t73 -183.5q0 -116 -71.5 -185t-195.5 -69zM295 135q45 0 70.5 31t25.5 82q0 50 -25.5 79t-69.5 29t-69.5 -29t-25.5 -79q0 -51 25 -82t69 -31zM412 619l-58 -69q-12 -14 -26 -3l-209 159 q-13 11 -2 25l73 87q14 15 26 3l194 -176q14 -12 2 -26z" />
<glyph unicode="&#xf3;" horiz-adv-x="592" d="M295 -7q-124 0 -194.5 69t-70.5 185q0 115 73 183.5t193 68.5t193 -68.5t73 -183.5q0 -116 -71.5 -185t-195.5 -69zM295 135q45 0 70.5 31t25.5 82q0 50 -25.5 79t-69.5 29t-69.5 -29t-25.5 -79q0 -51 25 -82t69 -31zM496 705l-209 -159q-14 -11 -26 3l-58 69 q-12 14 2 26l194 176q14 11 26 -3l73 -87q11 -14 -2 -25z" />
<glyph unicode="&#xf4;" horiz-adv-x="592" d="M295 -7q-124 0 -194.5 69t-70.5 185q0 115 73 183.5t193 68.5t193 -68.5t73 -183.5q0 -116 -71.5 -185t-195.5 -69zM295 135q45 0 70.5 31t25.5 82q0 50 -25.5 79t-69.5 29t-69.5 -29t-25.5 -79q0 -51 25 -82t69 -31zM502 618l-57 -67q-11 -14 -25 -2l-111 101l-110 -101 q-13 -13 -25 2l-57 67q-10 14 2 26l179 162q4 4 11 4t14 -6l177 -160q12 -12 2 -26z" />
<glyph unicode="&#xf5;" horiz-adv-x="592" d="M295 -7q-124 0 -194.5 69t-70.5 185q0 115 73 183.5t193 68.5t193 -68.5t73 -183.5q0 -116 -71.5 -185t-195.5 -69zM295 135q45 0 70.5 31t25.5 82q0 50 -25.5 79t-69.5 29t-69.5 -29t-25.5 -79q0 -51 25 -82t69 -31zM444 720h56q15 0 15 -15q0 -72 -29 -112.5t-89 -40.5 q-37 0 -65.5 17t-49 34t-39.5 17q-20 0 -29.5 -11.5t-9.5 -47.5q0 -15 -15 -15h-56q-15 0 -15 15q0 70 29.5 111t88.5 41q38 0 66.5 -18.5t48.5 -37t39 -18.5t29 14t10 52q0 15 15 15z" />
<glyph unicode="&#xf6;" horiz-adv-x="592" d="M295 -7q-124 0 -194.5 69t-70.5 185q0 115 73 183.5t193 68.5t193 -68.5t73 -183.5q0 -116 -71.5 -185t-195.5 -69zM295 135q45 0 70.5 31t25.5 82q0 50 -25.5 79t-69.5 29t-69.5 -29t-25.5 -79q0 -51 25 -82t69 -31zM270 627q0 -31 -21.5 -52t-52.5 -21q-30 0 -51 21 t-21 52t21 52.5t51 21.5q31 0 52.5 -21.5t21.5 -52.5zM478 627q0 -31 -21.5 -52t-52.5 -21q-30 0 -51 21t-21 52t21 52.5t51 21.5q31 0 52.5 -21.5t21.5 -52.5z" />
<glyph unicode="&#xf7;" horiz-adv-x="453" d="M396 238h-339q-7 0 -12.5 5t-5.5 13v122q0 8 5.5 13t12.5 5h339q8 0 13 -5t5 -13v-122q0 -8 -5 -13t-13 -5zM307 133q0 -31 -21.5 -52t-52.5 -21t-52 21t-21 52t21 52.5t52 21.5t52.5 -21.5t21.5 -52.5zM307 497q0 -31 -21.5 -52t-52.5 -21t-52 21t-21 52t21 52.5 t52 21.5t52.5 -21.5t21.5 -52.5z" />
<glyph unicode="&#xf8;" horiz-adv-x="592" d="M295 -7q-42 0 -85 10l-9 -18q-8 -15 -19 -15h-33q-7 0 -11 4.5t0 10.5l19 37q-61 31 -94 89t-33 136q0 115 73 183.5t193 68.5q50 0 95 -14l5 9q8 15 19 15h33q8 0 11 -4t0 -11l-15 -30q118 -67 118 -217q0 -116 -71.5 -185t-195.5 -69zM201 248q0 -55 27 -85l96 189 q-12 4 -28 4q-44 0 -69.5 -29t-25.5 -79zM295 135q45 0 70.5 31t25.5 82q0 44 -20 72l-94 -184q6 -1 18 -1z" />
<glyph unicode="&#xf9;" d="M576 0h-139q-49 0 -49 49v28h-3q-1 -3 -2.5 -9t-11 -20.5t-22 -25.5t-38 -20t-57.5 -9q-80 0 -128 49.5t-48 127.5v188h-45q-15 0 -15 15v104q0 15 15 15h164q49 0 49 -49v-214q0 -44 12 -65.5t50 -21.5q30 0 43 17.5t13 30.5v168h-36q-15 0 -15 15v104q0 15 15 15h189 q15 0 15 -15v-343h44q15 0 15 -15v-104q0 -15 -15 -15zM377 619l-58 -69q-12 -14 -26 -3l-209 159q-13 11 -2 25l73 87q14 15 26 3l194 -176q14 -12 2 -26z" />
<glyph unicode="&#xfa;" d="M576 0h-139q-49 0 -49 49v28h-3q-1 -3 -2.5 -9t-11 -20.5t-22 -25.5t-38 -20t-57.5 -9q-80 0 -128 49.5t-48 127.5v188h-45q-15 0 -15 15v104q0 15 15 15h164q49 0 49 -49v-214q0 -44 12 -65.5t50 -21.5q30 0 43 17.5t13 30.5v168h-36q-15 0 -15 15v104q0 15 15 15h189 q15 0 15 -15v-343h44q15 0 15 -15v-104q0 -15 -15 -15zM442 705l-209 -159q-14 -11 -26 3l-58 69q-12 14 2 26l194 176q14 11 26 -3l73 -87q11 -14 -2 -25z" />
<glyph unicode="&#xfb;" d="M576 0h-139q-49 0 -49 49v28h-3q-1 -3 -2.5 -9t-11 -20.5t-22 -25.5t-38 -20t-57.5 -9q-80 0 -128 49.5t-48 127.5v188h-45q-15 0 -15 15v104q0 15 15 15h164q49 0 49 -49v-214q0 -44 12 -65.5t50 -21.5q30 0 43 17.5t13 30.5v168h-36q-15 0 -15 15v104q0 15 15 15h189 q15 0 15 -15v-343h44q15 0 15 -15v-104q0 -15 -15 -15zM473 618l-57 -67q-11 -14 -25 -2l-111 101l-110 -101q-13 -13 -25 2l-57 67q-10 14 2 26l179 162q4 4 11 4q6 0 14 -6l177 -160q12 -12 2 -26z" />
<glyph unicode="&#xfc;" d="M576 0h-139q-49 0 -49 49v28h-3q-1 -3 -2.5 -9t-11 -20.5t-22 -25.5t-38 -20t-57.5 -9q-80 0 -128 49.5t-48 127.5v188h-45q-15 0 -15 15v104q0 15 15 15h164q49 0 49 -49v-214q0 -44 12 -65.5t50 -21.5q30 0 43 17.5t13 30.5v168h-36q-15 0 -15 15v104q0 15 15 15h189 q15 0 15 -15v-343h44q15 0 15 -15v-104q0 -15 -15 -15zM255 627q0 -31 -21.5 -52t-52.5 -21q-30 0 -51 21t-21 52t21 52.5t51 21.5q31 0 52.5 -21.5t21.5 -52.5zM463 627q0 -31 -21.5 -52t-52.5 -21q-30 0 -51 21t-21 52t21 52.5t51 21.5q31 0 52.5 -21.5t21.5 -52.5z" />
<glyph unicode="&#xfd;" horiz-adv-x="623" d="M256 -33l11 33h-35q-21 0 -31 8.5t-17 29.5l-109 320h-49q-15 0 -15 15v104q0 15 15 15h239q15 0 15 -15v-104q0 -15 -15 -15h-19l59 -219h2l69 219h-31q-15 0 -15 15v104q0 15 15 15h255q15 0 15 -15v-104q0 -15 -15 -15h-51l-137 -391q-20 -57 -33 -86.5t-35 -61 t-51.5 -44t-71.5 -12.5q-39 0 -73.5 12.5t-47 21.5t-34.5 29q-3 3 -5 4q-15 15 -7 24l64 82q9 10 22 0q1 -1 5.5 -5t6.5 -5.5t6.5 -4.5t8 -4t9 -3t12 -2.5t14.5 -0.5q16 0 27.5 9.5t16 19.5t10.5 27zM515 705l-209 -159q-14 -11 -26 3l-58 69q-12 14 2 26l194 176 q14 11 26 -3l73 -87q11 -14 -2 -25z" />
<glyph unicode="&#xfe;" horiz-adv-x="605" d="M296 -227h-277q-15 0 -15 15v104q0 15 15 15h45v677h-39q-15 0 -15 15v104q0 15 15 15h192q15 0 15 -15v-240q46 37 117 37q100 0 162.5 -67t62.5 -190q0 -112 -60 -181t-163 -69q-40 0 -72 11t-43 22l-12 11h-2q2 -30 2 -40v-90h72q15 0 15 -15v-104q0 -15 -15 -15z M315 134q42 0 67.5 29t25.5 79q0 52 -24.5 83t-68.5 31q-40 0 -64.5 -28.5t-24.5 -84.5q0 -55 26 -82t63 -27z" />
<glyph unicode="&#xff;" horiz-adv-x="623" d="M256 -33l11 33h-35q-21 0 -31 8.5t-17 29.5l-109 320h-49q-15 0 -15 15v104q0 15 15 15h239q15 0 15 -15v-104q0 -15 -15 -15h-19l59 -219h2l69 219h-31q-15 0 -15 15v104q0 15 15 15h255q15 0 15 -15v-104q0 -15 -15 -15h-51l-137 -391q-20 -57 -33 -86.5t-35 -61 t-51.5 -44t-71.5 -12.5q-39 0 -73.5 12.5t-47 21.5t-34.5 29q-3 3 -5 4q-15 15 -7 24l64 82q9 10 22 0q1 -1 5.5 -5t6.5 -5.5t6.5 -4.5t8 -4t9 -3t12 -2.5t14.5 -0.5q16 0 27.5 9.5t16 19.5t10.5 27zM278 627q0 -31 -21.5 -52t-52.5 -21q-30 0 -51 21t-21 52t21 52.5 t51 21.5q31 0 52.5 -21.5t21.5 -52.5zM486 627q0 -31 -21.5 -52t-52.5 -21q-30 0 -51 21t-21 52t21 52.5t51 21.5q31 0 52.5 -21.5t21.5 -52.5z" />
<glyph unicode="&#x100;" horiz-adv-x="738" d="M739 0h-300q-15 0 -15 15v116q0 15 15 15h63l-24 68h-200l-24 -68h64q15 0 15 -15v-116q0 -15 -15 -15h-300q-15 0 -15 15v116q0 15 15 15h66l162 426h-77q-15 0 -15 15v116q0 15 15 15h229q34 0 51 -14.5t32 -52.5l193 -505h65q15 0 15 -15v-116q0 -15 -15 -15zM435 331 l-54 156h-5l-53 -156h112zM518 774h-329q-7 0 -12.5 5t-5.5 13v97q0 7 5.5 12.5t12.5 5.5h329q8 0 13 -5.5t5 -12.5v-97q0 -8 -5 -13t-13 -5z" />
<glyph unicode="&#x101;" horiz-adv-x="568" d="M544 0h-139q-49 0 -49 49v30h-2q-2 -4 -5.5 -9.5t-17.5 -21t-31 -27t-46.5 -21t-63.5 -9.5q-77 0 -121.5 40.5t-44.5 106.5q0 72 63.5 111t183.5 39h60v3q0 59 -73 59q-37 0 -65.5 -8t-43 -16t-17.5 -8q-10 0 -15 7l-66 84q-7 10 1 17q3 3 8.5 8t26 17.5t44 22t61.5 17.5 t79 8q104 0 166 -51t62 -160v-154h45q15 0 15 -15v-104q0 -15 -15 -15zM331 168v39h-48q-83 0 -83 -38q0 -37 57 -37q44 0 74 36zM457 548h-329q-8 0 -13 5t-5 13v97q0 7 5 12.5t13 5.5h329q7 0 12.5 -5.5t5.5 -12.5v-97q0 -8 -5.5 -13t-12.5 -5z" />
<glyph unicode="&#x102;" horiz-adv-x="738" d="M739 0h-300q-15 0 -15 15v116q0 15 15 15h63l-24 68h-200l-24 -68h64q15 0 15 -15v-116q0 -15 -15 -15h-300q-15 0 -15 15v116q0 15 15 15h66l162 426h-77q-15 0 -15 15v116q0 15 15 15h229q34 0 51 -14.5t32 -52.5l193 -505h65q15 0 15 -15v-116q0 -15 -15 -15zM435 331 l-54 156h-5l-53 -156h112zM427 926h72q7 0 12.5 -5t5.5 -13q0 -66 -46 -104.5t-117 -38.5t-115.5 38.5t-44.5 104.5q0 8 5 13t13 5h72q8 0 13 -5t5 -13q0 -23 15 -38.5t37 -15.5q24 0 39.5 15t15.5 39q0 8 5.5 13t12.5 5z" />
<glyph unicode="&#x103;" horiz-adv-x="568" d="M544 0h-139q-49 0 -49 49v30h-2q-2 -4 -5.5 -9.5t-17.5 -21t-31 -27t-46.5 -21t-63.5 -9.5q-77 0 -121.5 40.5t-44.5 106.5q0 72 63.5 111t183.5 39h60v3q0 59 -73 59q-37 0 -65.5 -8t-43 -16t-17.5 -8q-10 0 -15 7l-66 84q-7 10 1 17q3 3 8.5 8t26 17.5t44 22t61.5 17.5 t79 8q104 0 166 -51t62 -160v-154h45q15 0 15 -15v-104q0 -15 -15 -15zM331 168v39h-48q-83 0 -83 -38q0 -37 57 -37q44 0 74 36zM350 700h72q8 0 13 -5t5 -13q0 -66 -46 -104.5t-117 -38.5t-115.5 38.5t-44.5 104.5q0 8 5.5 13t12.5 5h72q7 0 12.5 -5t5.5 -13 q0 -23 15 -38.5t37 -15.5q25 0 40 15t15 39q0 8 5 13t13 5z" />
<glyph unicode="&#x104;" horiz-adv-x="738" d="M740 -98l13 -21q10 -15 -5 -25q-43 -38 -111 -38q-44 0 -69 22.5t-25 61.5q0 34 20 60t51 38h-175q-15 0 -15 15v116q0 15 15 15h63l-24 68h-200l-24 -68h64q15 0 15 -15v-116q0 -15 -15 -15h-300q-15 0 -15 15v116q0 15 15 15h66l162 426h-77q-15 0 -15 15v116 q0 15 15 15h229q34 0 51 -14.5t32 -52.5l193 -505h65q15 0 15 -15v-116q0 -15 -15 -15h-39q-61 -36 -61 -77q0 -28 31 -28q23 0 45 13q16 9 25 -6zM435 331l-54 156h-5l-53 -156h112z" />
<glyph unicode="&#x105;" horiz-adv-x="568" d="M540 -98l13 -21q10 -15 -5 -25q-43 -38 -111 -38q-44 0 -69 22.5t-25 61.5q0 34 20 60t51 38h-9q-49 0 -49 49v30h-2q-2 -4 -5.5 -9.5t-17.5 -21t-31 -27t-46.5 -21t-63.5 -9.5q-77 0 -121.5 40.5t-44.5 106.5q0 72 63.5 111t183.5 39h60v3q0 59 -73 59q-37 0 -65.5 -8 t-43 -16t-17.5 -8q-10 0 -15 7l-66 84q-7 10 1 17q3 3 8.5 8t26 17.5t44 22t61.5 17.5t79 8q104 0 166 -51t62 -160v-154h45q15 0 15 -15v-104q0 -15 -15 -15h-44q-61 -36 -61 -77q0 -28 31 -28q23 0 45 13q16 9 25 -6zM331 168v39h-48q-83 0 -83 -38q0 -37 57 -37 q44 0 74 36z" />
<glyph unicode="&#x106;" horiz-adv-x="768" d="M631 282l101 -69q10 -8 4 -22q-53 -114 -163 -163q-76 -35 -175 -35q-154 0 -258 99.5t-104 270.5q0 88 29 158.5t78.5 113.5t111 66t129.5 23q127 0 182 -74l-3 53q-1 15 15 15h124q15 0 15 -15v-253q0 -15 -15 -15h-144q-15 0 -15 15v10q0 34 -40.5 67t-105.5 33 q-79 0 -127 -53t-48 -147q0 -89 56.5 -146t132.5 -57q133 0 200 121q7 13 20 4zM601 931l-209 -159q-14 -11 -26 3l-58 69q-12 14 2 26l194 176q14 11 26 -3l73 -87q11 -14 -2 -25z" />
<glyph unicode="&#x107;" horiz-adv-x="571" d="M456 194l67 -73q11 -12 2 -24q-6 -9 -19.5 -22t-40.5 -33.5t-71.5 -34.5t-96.5 -14q-114 0 -191 69t-77 185t74 184t170 68q47 0 82 -15.5t47 -30.5l11 -15h2l-2 39q-1 15 15 15h90q15 0 15 -15v-195q0 -15 -15 -15h-112q-15 0 -15 15v12q-2 27 -25.5 44.5t-61.5 17.5 q-41 0 -72.5 -28t-31.5 -80q0 -53 32.5 -83t80.5 -30q31 0 61 14.5t44 28.5l15 15q12 14 23 1zM500 705l-209 -159q-14 -11 -26 3l-58 69q-12 14 2 26l194 176q14 11 26 -3l73 -87q11 -14 -2 -25z" />
<glyph unicode="&#x108;" horiz-adv-x="768" d="M631 282l101 -69q10 -8 4 -22q-53 -114 -163 -163q-76 -35 -175 -35q-154 0 -258 99.5t-104 270.5q0 88 29 158.5t78.5 113.5t111 66t129.5 23q127 0 182 -74l-3 53q-1 15 15 15h124q15 0 15 -15v-253q0 -15 -15 -15h-144q-15 0 -15 15v10q0 34 -40.5 67t-105.5 33 q-79 0 -127 -53t-48 -147q0 -89 56.5 -146t132.5 -57q133 0 200 121q7 13 20 4zM596 844l-57 -67q-11 -14 -25 -2l-111 101l-110 -101q-13 -13 -25 2l-57 67q-10 14 2 26l179 162q4 4 11 4t14 -6l177 -160q12 -12 2 -26z" />
<glyph unicode="&#x109;" horiz-adv-x="571" d="M456 194l67 -73q11 -12 2 -24q-6 -9 -19.5 -22t-40.5 -33.5t-71.5 -34.5t-96.5 -14q-114 0 -191 69t-77 185t74 184t170 68q47 0 82 -15.5t47 -30.5l11 -15h2l-2 39q-1 15 15 15h90q15 0 15 -15v-195q0 -15 -15 -15h-112q-15 0 -15 15v12q-2 27 -25.5 44.5t-61.5 17.5 q-41 0 -72.5 -28t-31.5 -80q0 -53 32.5 -83t80.5 -30q31 0 61 14.5t44 28.5l15 15q12 14 23 1zM474 618l-57 -67q-11 -14 -25 -2l-111 101l-110 -101q-13 -13 -25 2l-57 67q-10 14 2 26l179 162q4 4 11 4t14 -6l177 -160q12 -12 2 -26z" />
<glyph unicode="&#x10a;" horiz-adv-x="768" d="M631 282l101 -69q10 -8 4 -22q-53 -114 -163 -163q-76 -35 -175 -35q-154 0 -258 99.5t-104 270.5q0 88 29 158.5t78.5 113.5t111 66t129.5 23q127 0 182 -74l-3 53q-1 15 15 15h124q15 0 15 -15v-253q0 -15 -15 -15h-144q-15 0 -15 15v10q0 34 -40.5 67t-105.5 33 q-79 0 -127 -53t-48 -147q0 -89 56.5 -146t132.5 -57q133 0 200 121q7 13 20 4zM467 853q0 -28 -19.5 -47t-47.5 -19t-47 19t-19 47t19 47.5t47 19.5t47.5 -19.5t19.5 -47.5z" />
<glyph unicode="&#x10b;" horiz-adv-x="571" d="M456 194l67 -73q11 -12 2 -24q-6 -9 -19.5 -22t-40.5 -33.5t-71.5 -34.5t-96.5 -14q-114 0 -191 69t-77 185t74 184t170 68q47 0 82 -15.5t47 -30.5l11 -15h2l-2 39q-1 15 15 15h90q15 0 15 -15v-195q0 -15 -15 -15h-112q-15 0 -15 15v12q-2 27 -25.5 44.5t-61.5 17.5 q-41 0 -72.5 -28t-31.5 -80q0 -53 32.5 -83t80.5 -30q31 0 61 14.5t44 28.5l15 15q12 14 23 1zM356 627q0 -28 -19.5 -47t-47.5 -19t-47 19t-19 47t19 47.5t47 19.5t47.5 -19.5t19.5 -47.5z" />
<glyph unicode="&#x10c;" horiz-adv-x="768" d="M631 282l101 -69q10 -8 4 -22q-53 -114 -163 -163q-76 -35 -175 -35q-154 0 -258 99.5t-104 270.5q0 88 29 158.5t78.5 113.5t111 66t129.5 23q127 0 182 -74l-3 53q-1 15 15 15h124q15 0 15 -15v-253q0 -15 -15 -15h-144q-15 0 -15 15v10q0 34 -40.5 67t-105.5 33 q-79 0 -127 -53t-48 -147q0 -89 56.5 -146t132.5 -57q133 0 200 121q7 13 20 4zM597 947l-177 -160q-8 -6 -14 -6q-7 0 -11 4l-179 162q-12 12 -2 26l57 67q10 13 25 2l110 -105l111 105q14 12 25 -2l57 -67q10 -14 -2 -26z" />
<glyph unicode="&#x10d;" horiz-adv-x="571" d="M456 194l67 -73q11 -12 2 -24q-6 -9 -19.5 -22t-40.5 -33.5t-71.5 -34.5t-96.5 -14q-114 0 -191 69t-77 185t74 184t170 68q47 0 82 -15.5t47 -30.5l11 -15h2l-2 39q-1 15 15 15h90q15 0 15 -15v-195q0 -15 -15 -15h-112q-15 0 -15 15v12q-2 27 -25.5 44.5t-61.5 17.5 q-41 0 -72.5 -28t-31.5 -80q0 -53 32.5 -83t80.5 -30q31 0 61 14.5t44 28.5l15 15q12 14 23 1zM495 721l-177 -160q-8 -6 -14 -6q-7 0 -11 4l-179 162q-12 12 -2 26l57 67q10 13 25 2l110 -105l111 105q14 12 25 -2l57 -67q10 -14 -2 -26z" />
<glyph unicode="&#x10e;" horiz-adv-x="743" d="M392 0h-333q-15 0 -15 15v116q0 15 15 15h64v426h-64q-15 0 -15 15v116q0 15 15 15h277q98 0 181 -41t137 -126.5t54 -201.5q0 -105 -46 -186t-117.5 -122t-152.5 -41zM295 146h26q99 2 149 46.5t50 154.5q0 225 -212 225h-13v-426zM539 947l-177 -160q-8 -6 -14 -6 q-7 0 -11 4l-179 162q-12 12 -2 26l57 67q10 13 25 2l110 -105l111 105q14 12 25 -2l57 -67q10 -14 -2 -26z" />
<glyph unicode="&#x10f;" horiz-adv-x="627" d="M585 0h-139q-49 0 -49 49v8h-2q-2 -3 -5.5 -7t-16 -15t-27.5 -19.5t-39 -15.5t-51 -7q-101 0 -163 66t-62 189q0 112 62 181.5t166 69.5q40 0 70.5 -13.5t40.5 -27.5l11 -14h2q-2 21 -2 50v90h-45q-15 0 -15 15v104q0 15 15 15h190q15 0 15 -15v-569h44q15 0 15 -15v-104 q0 -15 -15 -15zM290 135q40 0 64.5 28.5t24.5 84.5q0 55 -26 82t-63 27q-42 0 -67.5 -29t-25.5 -79q0 -52 24.5 -83t68.5 -31zM617 499v40q0 7 8 7q17 0 29 10.5t12 27.5l-2 15q-6 -3 -17 -3q-31 0 -52 21t-21 52t21 52.5t52 21.5q38 0 60.5 -28t22.5 -77q0 -145 -105 -145 q-8 0 -8 6z" />
<glyph unicode="&#x110;" horiz-adv-x="743" d="M392 0h-333q-15 0 -15 15v116q0 15 15 15h64v139h-61q-8 0 -13 5.5t-5 12.5v97q0 8 5 13t13 5h61v154h-64q-15 0 -15 15v116q0 15 15 15h277q98 0 181 -41t137 -126.5t54 -201.5q0 -105 -46 -186t-117.5 -122t-152.5 -41zM295 146h26q101 2 152.5 46.5t51.5 154.5 q0 225 -217 225h-13v-154h89q8 0 13 -5t5 -13v-97q0 -7 -5 -12.5t-13 -5.5h-89v-139z" />
<glyph unicode="&#x111;" horiz-adv-x="627" d="M585 0h-139q-49 0 -49 49v8h-2q-2 -3 -5.5 -7t-16 -15t-27.5 -19.5t-39 -15.5t-51 -7q-101 0 -163 66t-62 189q0 112 62 181.5t166 69.5q40 0 70.5 -13.5t40.5 -27.5l11 -14h2q-2 21 -2 50v16h-53q-11 0 -11 11v26q0 11 11 11h53v26h-45q-15 0 -15 15v104q0 15 15 15h190 q15 0 15 -15v-145h46q11 0 11 -11v-26q0 -11 -11 -11h-46v-376h44q15 0 15 -15v-104q0 -15 -15 -15zM290 135q40 0 64.5 28.5t24.5 84.5q0 55 -26 82t-63 27q-42 0 -67.5 -29t-25.5 -79q0 -52 24.5 -83t68.5 -31z" />
<glyph unicode="&#x112;" horiz-adv-x="705" d="M633 0h-574q-15 0 -15 15v116q0 15 15 15h64v426h-64q-15 0 -15 15v116q0 15 15 15h575q15 0 15 -15v-226q0 -15 -15 -15h-131q-15 0 -15 15v95h-193v-138h156q15 0 15 -15v-116q0 -15 -15 -15h-156v-142h192v95q0 15 15 15h131q15 0 15 -15v-226q0 -15 -15 -15zM534 774 h-329q-7 0 -12.5 5t-5.5 13v97q0 7 5.5 12.5t12.5 5.5h329q8 0 13 -5.5t5 -12.5v-97q0 -8 -5 -13t-13 -5z" />
<glyph unicode="&#x113;" horiz-adv-x="559" d="M508 224h-305q9 -45 38.5 -67t71.5 -22q34 0 65 13.5t45 27.5l14 14q12 14 23 1l63 -70q11 -12 2 -24q-6 -9 -19.5 -22t-40.5 -33.5t-71.5 -34.5t-96.5 -14q-114 0 -191 69t-77 185q0 77 39.5 136.5t96.5 87.5t119 28q121 0 181.5 -66t60.5 -191q0 -8 -5 -13t-13 -5z M206 308h161q-2 23 -19.5 42t-56.5 19q-72 0 -85 -61zM452 548h-329q-7 0 -12.5 5t-5.5 13v97q0 7 5.5 12.5t12.5 5.5h329q8 0 13 -5.5t5 -12.5v-97q0 -8 -5 -13t-13 -5z" />
<glyph unicode="&#x114;" horiz-adv-x="705" d="M633 0h-574q-15 0 -15 15v116q0 15 15 15h64v426h-64q-15 0 -15 15v116q0 15 15 15h575q15 0 15 -15v-226q0 -15 -15 -15h-131q-15 0 -15 15v95h-193v-138h156q15 0 15 -15v-116q0 -15 -15 -15h-156v-142h192v95q0 15 15 15h131q15 0 15 -15v-226q0 -15 -15 -15zM436 926 h72q8 0 13 -5t5 -13q0 -66 -46 -104.5t-117 -38.5t-115.5 38.5t-44.5 104.5q0 8 5.5 13t12.5 5h72q7 0 12.5 -5t5.5 -13q0 -23 15 -38.5t37 -15.5q25 0 40 15t15 39q0 8 5 13t13 5z" />
<glyph unicode="&#x115;" horiz-adv-x="559" d="M508 224h-305q9 -45 38.5 -67t71.5 -22q34 0 65 13.5t45 27.5l14 14q12 14 23 1l63 -70q11 -12 2 -24q-6 -9 -19.5 -22t-40.5 -33.5t-71.5 -34.5t-96.5 -14q-114 0 -191 69t-77 185q0 77 39.5 136.5t96.5 87.5t119 28q121 0 181.5 -66t60.5 -191q0 -8 -5 -13t-13 -5z M206 308h161q-2 23 -19.5 42t-56.5 19q-72 0 -85 -61zM375 700h72q7 0 12.5 -5t5.5 -13q0 -66 -46 -104.5t-117 -38.5t-115.5 38.5t-44.5 104.5q0 8 5 13t13 5h72q8 0 13 -5t5 -13q0 -23 15 -38.5t37 -15.5q24 0 39.5 15t15.5 39q0 8 5.5 13t12.5 5z" />
<glyph unicode="&#x116;" horiz-adv-x="705" d="M633 0h-574q-15 0 -15 15v116q0 15 15 15h64v426h-64q-15 0 -15 15v116q0 15 15 15h575q15 0 15 -15v-226q0 -15 -15 -15h-131q-15 0 -15 15v95h-193v-138h156q15 0 15 -15v-116q0 -15 -15 -15h-156v-142h192v95q0 15 15 15h131q15 0 15 -15v-226q0 -15 -15 -15zM427 853 q0 -28 -19.5 -47t-47.5 -19t-47 19t-19 47t19 47.5t47 19.5t47.5 -19.5t19.5 -47.5z" />
<glyph unicode="&#x117;" horiz-adv-x="559" d="M508 224h-305q9 -45 38.5 -67t71.5 -22q34 0 65 13.5t45 27.5l14 14q12 14 23 1l63 -70q11 -12 2 -24q-6 -9 -19.5 -22t-40.5 -33.5t-71.5 -34.5t-96.5 -14q-114 0 -191 69t-77 185q0 77 39.5 136.5t96.5 87.5t119 28q121 0 181.5 -66t60.5 -191q0 -8 -5 -13t-13 -5z M206 308h161q-2 23 -19.5 42t-56.5 19q-72 0 -85 -61zM371 627q0 -28 -19.5 -47t-47.5 -19t-47 19t-19 47t19 47.5t47 19.5t47.5 -19.5t19.5 -47.5z" />
<glyph unicode="&#x118;" horiz-adv-x="705" d="M622 -98l13 -21q10 -15 -5 -25q-43 -38 -111 -38q-44 0 -69 22.5t-25 61.5q0 34 20 60t51 38h-437q-15 0 -15 15v116q0 15 15 15h64v426h-64q-15 0 -15 15v116q0 15 15 15h575q15 0 15 -15v-226q0 -15 -15 -15h-131q-15 0 -15 15v95h-193v-138h156q15 0 15 -15v-116 q0 -15 -15 -15h-156v-142h192v95q0 15 15 15h131q15 0 15 -15v-226q0 -15 -15 -15h-51q-61 -36 -61 -77q0 -28 31 -28q23 0 45 13q16 9 25 -6z" />
<glyph unicode="&#x119;" horiz-adv-x="559" d="M396 -98l13 -21q10 -15 -5 -25q-43 -38 -111 -38q-44 0 -69 22.5t-25 61.5q0 62 60 94q-100 11 -165 78t-65 173q0 77 39.5 136.5t96.5 87.5t119 28q121 0 181.5 -66t60.5 -191q0 -8 -5 -13t-13 -5h-305q9 -45 38.5 -67t71.5 -22q34 0 65 13.5t45 27.5l14 14q12 14 23 1 l63 -70q11 -12 2 -24q-7 -11 -23 -27t-58 -40t-92 -32q-57 -35 -57 -75q0 -28 31 -28q23 0 45 13q16 9 25 -6zM206 308h161q-2 23 -19.5 42t-56.5 19q-72 0 -85 -61z" />
<glyph unicode="&#x11a;" horiz-adv-x="705" d="M633 0h-574q-15 0 -15 15v116q0 15 15 15h64v426h-64q-15 0 -15 15v116q0 15 15 15h575q15 0 15 -15v-226q0 -15 -15 -15h-131q-15 0 -15 15v95h-193v-138h156q15 0 15 -15v-116q0 -15 -15 -15h-156v-142h192v95q0 15 15 15h131q15 0 15 -15v-226q0 -15 -15 -15zM575 947 l-177 -160q-8 -6 -14 -6q-7 0 -11 4l-179 162q-12 12 -2 26l57 67q10 13 25 2l110 -105l111 105q14 12 25 -2l57 -67q10 -14 -2 -26z" />
<glyph unicode="&#x11b;" horiz-adv-x="559" d="M508 224h-305q9 -45 38.5 -67t71.5 -22q34 0 65 13.5t45 27.5l14 14q12 14 23 1l63 -70q11 -12 2 -24q-6 -9 -19.5 -22t-40.5 -33.5t-71.5 -34.5t-96.5 -14q-114 0 -191 69t-77 185q0 77 39.5 136.5t96.5 87.5t119 28q121 0 181.5 -66t60.5 -191q0 -8 -5 -13t-13 -5z M206 308h161q-2 23 -19.5 42t-56.5 19q-72 0 -85 -61zM493 721l-177 -160q-8 -6 -14 -6q-7 0 -11 4l-179 162q-12 12 -2 26l57 67q10 13 25 2l110 -105l111 105q14 12 25 -2l57 -67q10 -14 -2 -26z" />
<glyph unicode="&#x11c;" horiz-adv-x="784" d="M713 0h-115q-15 0 -15 15l1 43q-72 -65 -186 -65q-154 0 -258 99.5t-104 270.5q0 88 29 158.5t78.5 113.5t111 66t129.5 23q127 0 182 -74l-3 53q-1 15 15 15h124q15 0 15 -15v-253q0 -15 -15 -15h-144q-15 0 -15 15v10q0 34 -40.5 67t-105.5 33q-79 0 -127 -53t-48 -147 q0 -89 56.5 -146t132.5 -57q92 0 152 56v28h-170q-15 0 -15 15v105q0 15 15 15h320q15 0 15 -15v-346q0 -15 -15 -15zM597 844l-57 -67q-11 -14 -25 -2l-111 101l-110 -101q-13 -13 -25 2l-57 67q-10 14 2 26l179 162q4 4 11 4q6 0 14 -6l177 -160q12 -12 2 -26z" />
<glyph unicode="&#x11d;" horiz-adv-x="624" d="M267 -237q-44 0 -81 8.5t-66.5 25.5t-39 23.5t-27.5 21.5q-14 12 -6 23l61 89q7 12 22 1q2 -1 9 -6.5t9.5 -7.5t9.5 -6.5t11.5 -6.5t12.5 -5.5t15 -5t17 -3.5t21 -2.5t24 -0.5q121 0 121 89v47q-1 -2 -4 -6t-14.5 -13.5t-24.5 -16.5t-36 -13t-48 -6q-103 0 -163 69.5 t-60 181.5q0 123 62.5 190t162.5 67q42 0 76 -14t47 -28l12 -13h2v32q0 15 15 15h172q15 0 15 -15v-104q0 -15 -15 -15h-39v-358q0 -116 -77 -176.5t-196 -60.5zM289 134q37 0 63 27t26 82q0 56 -24.5 84.5t-64.5 28.5q-44 0 -68.5 -31t-24.5 -83q0 -50 25.5 -79t67.5 -29z M491 618l-57 -67q-11 -14 -25 -2l-111 101l-110 -101q-13 -13 -25 2l-57 67q-10 14 2 26l179 162q4 4 11 4q6 0 14 -6l177 -160q12 -12 2 -26z" />
<glyph unicode="&#x11e;" horiz-adv-x="784" d="M713 0h-115q-15 0 -15 15l1 43q-72 -65 -186 -65q-154 0 -258 99.5t-104 270.5q0 88 29 158.5t78.5 113.5t111 66t129.5 23q127 0 182 -74l-3 53q-1 15 15 15h124q15 0 15 -15v-253q0 -15 -15 -15h-144q-15 0 -15 15v10q0 34 -40.5 67t-105.5 33q-79 0 -127 -53t-48 -147 q0 -89 56.5 -146t132.5 -57q92 0 152 56v28h-170q-15 0 -15 15v105q0 15 15 15h320q15 0 15 -15v-346q0 -15 -15 -15zM495 926h72q7 0 12.5 -5t5.5 -13q0 -66 -46 -104.5t-117 -38.5t-115.5 38.5t-44.5 104.5q0 8 5 13t13 5h72q8 0 13 -5t5 -13q0 -23 15 -38.5t37 -15.5 q24 0 39.5 15t15.5 39q0 8 5.5 13t12.5 5z" />
<glyph unicode="&#x11f;" horiz-adv-x="624" d="M267 -237q-44 0 -81 8.5t-66.5 25.5t-39 23.5t-27.5 21.5q-14 12 -6 23l61 89q7 12 22 1q2 -1 9 -6.5t9.5 -7.5t9.5 -6.5t11.5 -6.5t12.5 -5.5t15 -5t17 -3.5t21 -2.5t24 -0.5q121 0 121 89v47q-1 -2 -4 -6t-14.5 -13.5t-24.5 -16.5t-36 -13t-48 -6q-103 0 -163 69.5 t-60 181.5q0 123 62.5 190t162.5 67q42 0 76 -14t47 -28l12 -13h2v32q0 15 15 15h172q15 0 15 -15v-104q0 -15 -15 -15h-39v-358q0 -116 -77 -176.5t-196 -60.5zM289 134q37 0 63 27t26 82q0 56 -24.5 84.5t-64.5 28.5q-44 0 -68.5 -31t-24.5 -83q0 -50 25.5 -79t67.5 -29z M371 700h72q7 0 12.5 -5t5.5 -13q0 -66 -46 -104.5t-117 -38.5t-115.5 38.5t-44.5 104.5q0 8 5 13t13 5h72q8 0 13 -5t5 -13q0 -23 15 -38.5t37 -15.5q24 0 39.5 15t15.5 39q0 8 5.5 13t12.5 5z" />
<glyph unicode="&#x120;" horiz-adv-x="784" d="M713 0h-115q-15 0 -15 15l1 43q-72 -65 -186 -65q-154 0 -258 99.5t-104 270.5q0 88 29 158.5t78.5 113.5t111 66t129.5 23q127 0 182 -74l-3 53q-1 15 15 15h124q15 0 15 -15v-253q0 -15 -15 -15h-144q-15 0 -15 15v10q0 34 -40.5 67t-105.5 33q-79 0 -127 -53t-48 -147 q0 -89 56.5 -146t132.5 -57q92 0 152 56v28h-170q-15 0 -15 15v105q0 15 15 15h320q15 0 15 -15v-346q0 -15 -15 -15zM466 853q0 -28 -19.5 -47t-47.5 -19t-47 19t-19 47t19 47.5t47 19.5t47.5 -19.5t19.5 -47.5z" />
<glyph unicode="&#x121;" horiz-adv-x="624" d="M267 -237q-44 0 -81 8.5t-66.5 25.5t-39 23.5t-27.5 21.5q-14 12 -6 23l61 89q7 12 22 1q2 -1 9 -6.5t9.5 -7.5t9.5 -6.5t11.5 -6.5t12.5 -5.5t15 -5t17 -3.5t21 -2.5t24 -0.5q121 0 121 89v47q-1 -2 -4 -6t-14.5 -13.5t-24.5 -16.5t-36 -13t-48 -6q-103 0 -163 69.5 t-60 181.5q0 123 62.5 190t162.5 67q42 0 76 -14t47 -28l12 -13h2v32q0 15 15 15h172q15 0 15 -15v-104q0 -15 -15 -15h-39v-358q0 -116 -77 -176.5t-196 -60.5zM289 134q37 0 63 27t26 82q0 56 -24.5 84.5t-64.5 28.5q-44 0 -68.5 -31t-24.5 -83q0 -50 25.5 -79t67.5 -29z M366 627q0 -28 -19.5 -47t-47.5 -19t-47 19t-19 47t19 47.5t47 19.5t47.5 -19.5t19.5 -47.5z" />
<glyph unicode="&#x122;" horiz-adv-x="784" d="M713 0h-115q-15 0 -15 15l1 43q-72 -65 -186 -65q-154 0 -258 99.5t-104 270.5q0 88 29 158.5t78.5 113.5t111 66t129.5 23q127 0 182 -74l-3 53q-1 15 15 15h124q15 0 15 -15v-253q0 -15 -15 -15h-144q-15 0 -15 15v10q0 34 -40.5 67t-105.5 33q-79 0 -127 -53t-48 -147 q0 -89 56.5 -146t132.5 -57q92 0 152 56v28h-170q-15 0 -15 15v105q0 15 15 15h320q15 0 15 -15v-346q0 -15 -15 -15zM378 -289v40q0 7 8 7q17 0 29 10.5t12 27.5l-2 15q-6 -3 -17 -3q-31 0 -52 21t-21 52t21 52.5t52 21.5q38 0 60.5 -28t22.5 -77q0 -145 -105 -145 q-8 0 -8 6z" />
<glyph unicode="&#x123;" horiz-adv-x="624" d="M267 -237q-44 0 -81 8.5t-66.5 25.5t-39 23.5t-27.5 21.5q-14 12 -6 23l61 89q7 12 22 1q2 -1 9 -6.5t9.5 -7.5t9.5 -6.5t11.5 -6.5t12.5 -5.5t15 -5t17 -3.5t21 -2.5t24 -0.5q121 0 121 89v47q-1 -2 -4 -6t-14.5 -13.5t-24.5 -16.5t-36 -13t-48 -6q-103 0 -163 69.5 t-60 181.5q0 123 62.5 190t162.5 67q42 0 76 -14t47 -28l12 -13h2v32q0 15 15 15h172q15 0 15 -15v-104q0 -15 -15 -15h-39v-358q0 -116 -77 -176.5t-196 -60.5zM289 134q37 0 63 27t26 82q0 56 -24.5 84.5t-64.5 28.5q-44 0 -68.5 -31t-24.5 -83q0 -50 25.5 -79t67.5 -29z M312 777v-40q0 -7 -8 -7q-17 0 -29 -10.5t-12 -27.5l2 -15q6 3 17 3q31 0 52 -21t21 -52t-21 -52.5t-52 -21.5q-38 0 -60.5 28t-22.5 77q0 145 105 145q8 0 8 -6z" />
<glyph unicode="&#x124;" horiz-adv-x="831" d="M772 0h-300q-15 0 -15 15v116q0 15 15 15h64v142h-241v-142h64q15 0 15 -15v-116q0 -15 -15 -15h-300q-15 0 -15 15v116q0 15 15 15h64v426h-64q-15 0 -15 15v116q0 15 15 15h300q15 0 15 -15v-116q0 -15 -15 -15h-64v-143h241v143h-64q-15 0 -15 15v116q0 15 15 15h300 q15 0 15 -15v-116q0 -15 -15 -15h-64v-426h64q15 0 15 -15v-116q0 -15 -15 -15zM608 844l-57 -67q-11 -14 -25 -2l-111 101l-110 -101q-13 -13 -25 2l-57 67q-10 14 2 26l179 162q4 4 11 4t14 -6l177 -160q12 -12 2 -26z" />
<glyph unicode="&#x125;" horiz-adv-x="615" d="M583 0h-164q-49 0 -49 49v214q0 44 -12 65.5t-50 21.5q-11 0 -19.5 -3t-14 -7t-10 -9.5t-7 -10.5t-3.5 -9.5t-2 -6.5v-3v-167h36q15 0 15 -15v-104q0 -15 -15 -15h-248q-15 0 -15 15v104q0 15 15 15h44v450h-44q-15 0 -15 15v104q0 15 15 15h197q15 0 15 -15v-184 q0 -18 -9 -75h3q40 55 123 55q79 0 123.5 -49t45.5 -128v-188h45q15 0 15 -15v-104q0 -15 -15 -15zM480 809l-57 -67q-11 -14 -25 -2l-111 101l-110 -101q-13 -13 -25 2l-57 67q-10 14 2 26l179 162q4 4 11 4t14 -6l177 -160q12 -12 2 -26z" />
<glyph unicode="&#x126;" horiz-adv-x="831" d="M772 0h-300q-15 0 -15 15v116q0 15 15 15h64v142h-241v-142h64q15 0 15 -15v-116q0 -15 -15 -15h-300q-15 0 -15 15v116q0 15 15 15h64v319h-41q-11 0 -11 11v45q0 11 11 11h41v40h-64q-15 0 -15 15v116q0 15 15 15h300q15 0 15 -15v-116q0 -15 -15 -15h-64v-40h241v40 h-64q-15 0 -15 15v116q0 15 15 15h300q15 0 15 -15v-116q0 -15 -15 -15h-64v-40h27q11 0 11 -11v-45q0 -11 -11 -11h-27v-319h64q15 0 15 -15v-116q0 -15 -15 -15zM536 429v36h-241v-36h241z" />
<glyph unicode="&#x127;" horiz-adv-x="615" d="M583 0h-164q-49 0 -49 49v214q0 44 -12 65.5t-50 21.5q-11 0 -19.5 -3t-14 -7t-10 -9.5t-7 -10.5t-3.5 -9.5t-2 -6.5v-3v-167h36q15 0 15 -15v-104q0 -15 -15 -15h-248q-15 0 -15 15v104q0 15 15 15h44v388h-53q-11 0 -11 11v26q0 11 11 11h53v14h-44q-15 0 -15 15v104 q0 15 15 15h197q15 0 15 -15v-133h38q11 0 11 -11v-26q0 -11 -11 -11h-38v-3q0 -31 -7 -75h1q40 55 123 55q79 0 122.5 -49t44.5 -128l2 -188h45q15 0 15 -15v-104q0 -15 -15 -15z" />
<glyph unicode="&#x128;" horiz-adv-x="418" d="M359 0h-300q-15 0 -15 15v116q0 15 15 15h64v426h-64q-15 0 -15 15v116q0 15 15 15h300q15 0 15 -15v-116q0 -15 -15 -15h-64v-426h64q15 0 15 -15v-116q0 -15 -15 -15zM341 946h56q15 0 15 -15q0 -72 -29 -112.5t-89 -40.5q-37 0 -65.5 17t-49 34t-39.5 17 q-20 0 -29.5 -11.5t-9.5 -47.5q0 -15 -15 -15h-56q-15 0 -15 15q0 70 29.5 111t88.5 41q38 0 66.5 -18.5t48.5 -37t39 -18.5t29 14t10 52q0 15 15 15z" />
<glyph unicode="&#x129;" horiz-adv-x="349" d="M286 720h56q15 0 15 -15q0 -72 -29 -112.5t-89 -40.5q-37 0 -65.5 17t-49 34t-39.5 17q-20 0 -29.5 -11.5t-9.5 -47.5q0 -15 -15 -15h-56q-15 0 -15 15q0 70 29.5 111t88.5 41q38 0 66.5 -18.5t48.5 -37t39 -18.5t29 14t10 52q0 15 15 15zM302 0h-248q-15 0 -15 15v104 q0 15 15 15h44v224h-44q-15 0 -15 15v104q0 15 15 15h197q15 0 15 -15v-343h36q15 0 15 -15v-104q0 -15 -15 -15z" />
<glyph unicode="&#x12a;" horiz-adv-x="418" d="M359 0h-300q-15 0 -15 15v116q0 15 15 15h64v426h-64q-15 0 -15 15v116q0 15 15 15h300q15 0 15 -15v-116q0 -15 -15 -15h-64v-426h64q15 0 15 -15v-116q0 -15 -15 -15zM376 774h-329q-7 0 -12.5 5t-5.5 13v97q0 7 5.5 12.5t12.5 5.5h329q8 0 13 -5.5t5 -12.5v-97 q0 -8 -5 -13t-13 -5z" />
<glyph unicode="&#x12b;" horiz-adv-x="349" d="M329 548h-329q-8 0 -13 5t-5 13v97q0 7 5 12.5t13 5.5h329q7 0 12.5 -5.5t5.5 -12.5v-97q0 -8 -5.5 -13t-12.5 -5zM302 0h-248q-15 0 -15 15v104q0 15 15 15h44v224h-44q-15 0 -15 15v104q0 15 15 15h197q15 0 15 -15v-343h36q15 0 15 -15v-104q0 -15 -15 -15z" />
<glyph unicode="&#x12c;" horiz-adv-x="418" d="M359 0h-300q-15 0 -15 15v116q0 15 15 15h64v426h-64q-15 0 -15 15v116q0 15 15 15h300q15 0 15 -15v-116q0 -15 -15 -15h-64v-426h64q15 0 15 -15v-116q0 -15 -15 -15zM287 926h72q7 0 12.5 -5t5.5 -13q0 -66 -46 -104.5t-117 -38.5t-115.5 38.5t-44.5 104.5q0 8 5 13 t13 5h72q8 0 13 -5t5 -13q0 -23 15 -38.5t37 -15.5q24 0 39.5 15t15.5 39q0 8 5.5 13t12.5 5z" />
<glyph unicode="&#x12d;" horiz-adv-x="349" d="M302 0h-248q-15 0 -15 15v104q0 15 15 15h44v224h-44q-15 0 -15 15v104q0 15 15 15h197q15 0 15 -15v-343h36q15 0 15 -15v-104q0 -15 -15 -15zM233 700h72q7 0 12.5 -5t5.5 -13q0 -66 -46 -104.5t-117 -38.5t-115.5 38.5t-44.5 104.5q0 8 5 13t13 5h72q8 0 13 -5t5 -13 q0 -23 15 -38.5t37 -15.5q24 0 39.5 15t15.5 39q0 8 5.5 13t12.5 5z" />
<glyph unicode="&#x12e;" horiz-adv-x="418" d="M360 -98l13 -21q10 -15 -5 -25q-43 -38 -111 -38q-44 0 -69 22.5t-25 61.5q0 34 20 60t51 38h-175q-15 0 -15 15v116q0 15 15 15h64v426h-64q-15 0 -15 15v116q0 15 15 15h300q15 0 15 -15v-116q0 -15 -15 -15h-64v-426h64q15 0 15 -15v-116q0 -15 -15 -15h-39 q-61 -36 -61 -77q0 -28 31 -28q23 0 45 13q16 9 25 -6z" />
<glyph unicode="&#x12f;" horiz-adv-x="349" d="M286 -98l13 -21q10 -15 -5 -25q-43 -38 -111 -38q-44 0 -69 22.5t-25 61.5q0 34 20 60t51 38h-106q-15 0 -15 15v104q0 15 15 15h44v224h-44q-15 0 -15 15v104q0 15 15 15h197q15 0 15 -15v-343h36q15 0 15 -15v-104q0 -15 -15 -15h-56q-61 -36 -61 -77q0 -28 31 -28 q23 0 45 13q16 9 25 -6zM279 642q0 -43 -30 -73t-73 -30t-73 30t-30 73t30 73t73 30t73 -30t30 -73z" />
<glyph unicode="&#x130;" horiz-adv-x="418" d="M359 0h-300q-15 0 -15 15v116q0 15 15 15h64v426h-64q-15 0 -15 15v116q0 15 15 15h300q15 0 15 -15v-116q0 -15 -15 -15h-64v-426h64q15 0 15 -15v-116q0 -15 -15 -15zM277 853q0 -28 -19.5 -47t-47.5 -19t-47 19t-19 47t19 47.5t47 19.5t47.5 -19.5t19.5 -47.5z" />
<glyph unicode="&#x131;" horiz-adv-x="349" d="M302 0h-248q-15 0 -15 15v104q0 15 15 15h44v224h-44q-15 0 -15 15v104q0 15 15 15h197q15 0 15 -15v-343h36q15 0 15 -15v-104q0 -15 -15 -15z" />
<glyph unicode="&#x134;" horiz-adv-x="471" d="M207 302v270h-64q-15 0 -15 15v116q0 15 15 15h300q15 0 15 -15v-116q0 -15 -15 -15h-64v-256q0 -169 -82 -242.5t-249 -73.5q-15 0 -15 15v116q0 15 15 15q88 0 123.5 40t35.5 116zM481 844l-57 -67q-11 -14 -25 -2l-111 101l-110 -101q-13 -13 -25 2l-57 67 q-10 14 2 26l179 162q4 4 11 4q6 0 14 -6l177 -160q12 -12 2 -26z" />
<glyph unicode="&#x135;" horiz-adv-x="317" d="M85 -33v391h-45q-15 0 -15 15v104q0 15 15 15h198q15 0 15 -15v-510q0 -100 -51.5 -152t-151.5 -52q-39 0 -73.5 12.5t-47 21.5t-34.5 29q-3 3 -5 4q-15 15 -4 27l57 76q12 14 26 3q1 -1 5 -4.5t5.5 -4.5t5.5 -4t6.5 -4t7 -3t9 -3t10.5 -1.5t13 -0.5q54 0 54 56zM344 618 l-57 -67q-11 -14 -25 -2l-111 101l-110 -101q-13 -13 -25 2l-57 67q-10 14 2 26l179 162q4 4 11 4t14 -6l177 -160q12 -12 2 -26z" />
<glyph unicode="&#x136;" horiz-adv-x="775" d="M724 0h-141q-50 0 -81 69l-68 150q-15 32 -53 32h-86v-105h89q15 0 15 -15v-116q0 -15 -15 -15h-325q-15 0 -15 15v116q0 15 15 15h64v426h-64q-15 0 -15 15v116q0 15 15 15h276q15 0 15 -15v-116q0 -15 -15 -15h-40v-182h36q87 0 122.5 44t35.5 138h-64q-15 0 -15 15 v116q0 15 15 15h300q15 0 15 -15v-116q0 -15 -15 -15h-64q0 -171 -99 -255q29 -16 54 -73l40 -98h68q15 0 15 -15v-116q0 -15 -15 -15zM375 -289v40q0 7 8 7q17 0 29 10.5t12 27.5l-2 15q-6 -3 -17 -3q-31 0 -52 21t-21 52t21 52.5t52 21.5q38 0 60.5 -28t22.5 -77 q0 -145 -105 -145q-8 0 -8 6z" />
<glyph unicode="&#x137;" horiz-adv-x="630" d="M589 0h-109q-38 0 -70 44l-109 150l-49 -39v-21h36q15 0 15 -15v-104q0 -15 -15 -15h-248q-15 0 -15 15v104q0 15 15 15h44v450h-44q-15 0 -15 15v104q0 15 15 15h197q15 0 15 -15v-421l93 76h-31q-15 0 -15 15v104q0 15 15 15h248q15 0 15 -15v-104q0 -15 -15 -15h-53 l-99 -78l110 -146h69q15 0 15 -15v-104q0 -15 -15 -15zM261 -289v40q0 7 8 7q17 0 29 10.5t12 27.5l-2 15q-6 -3 -17 -3q-31 0 -52 21t-21 52t21 52.5t52 21.5q38 0 60.5 -28t22.5 -77q0 -145 -105 -145q-8 0 -8 6z" />
<glyph unicode="&#x138;" horiz-adv-x="647" d="M606 0h-109q-38 0 -70 44l-109 150l-49 -39v-21h36q15 0 15 -15v-104q0 -15 -15 -15h-248q-15 0 -15 15v104q0 15 15 15h44v224h-44q-15 0 -15 15v104q0 15 15 15h197q15 0 15 -15v-195l93 76h-31q-15 0 -15 15v104q0 15 15 15h248q15 0 15 -15v-104q0 -15 -15 -15h-53 l-99 -78l110 -146h69q15 0 15 -15v-104q0 -15 -15 -15z" />
<glyph unicode="&#x139;" horiz-adv-x="639" d="M605 0h-546q-15 0 -15 15v116q0 15 15 15h64v426h-64q-15 0 -15 15v116q0 15 15 15h296q7 0 12.5 -5t5.5 -13v-110q0 -8 -5.5 -13t-12.5 -5h-60v-426h167v95q0 15 15 15h131q15 0 15 -15v-223q0 -8 -5.5 -13t-12.5 -5zM482 931l-209 -159q-14 -11 -26 3l-58 69 q-12 14 2 26l194 176q14 11 26 -3l73 -87q11 -14 -2 -25z" />
<glyph unicode="&#x13a;" horiz-adv-x="342" d="M291 0h-248q-15 0 -15 15v104q0 15 15 15h44v451h-44q-15 0 -15 15v104q0 15 15 15h197q15 0 15 -15v-570h36q15 0 15 -15v-104q0 -15 -15 -15zM326 921l-209 -159q-14 -11 -26 3l-58 69q-12 14 2 26l194 176q14 11 26 -3l73 -87q11 -14 -2 -25z" />
<glyph unicode="&#x13b;" horiz-adv-x="639" d="M605 0h-546q-15 0 -15 15v116q0 15 15 15h64v426h-64q-15 0 -15 15v116q0 15 15 15h296q7 0 12.5 -5t5.5 -13v-110q0 -8 -5.5 -13t-12.5 -5h-60v-426h167v95q0 15 15 15h131q15 0 15 -15v-223q0 -8 -5.5 -13t-12.5 -5zM297 -289v40q0 7 8 7q17 0 29 10.5t12 27.5l-2 15 q-6 -3 -17 -3q-31 0 -52 21t-21 52t21 52.5t52 21.5q38 0 60.5 -28t22.5 -77q0 -145 -105 -145q-8 0 -8 6z" />
<glyph unicode="&#x13c;" horiz-adv-x="342" d="M291 0h-248q-15 0 -15 15v104q0 15 15 15h44v451h-44q-15 0 -15 15v104q0 15 15 15h197q15 0 15 -15v-570h36q15 0 15 -15v-104q0 -15 -15 -15zM134 -289v40q0 7 8 7q17 0 29 10.5t12 27.5l-2 15q-6 -3 -17 -3q-31 0 -52 21t-21 52t21 52.5t52 21.5q38 0 60.5 -28 t22.5 -77q0 -145 -105 -145q-8 0 -8 6z" />
<glyph unicode="&#x13d;" horiz-adv-x="640" d="M605 0h-546q-15 0 -15 15v116q0 15 15 15h64v426h-64q-15 0 -15 15v116q0 15 15 15h296q7 0 12.5 -5t5.5 -13v-110q0 -8 -5.5 -13t-12.5 -5h-60v-426h167v95q0 15 15 15h131q15 0 15 -15v-223q0 -8 -5.5 -13t-12.5 -5zM448 472v40q0 7 8 7q17 0 29 10.5t12 27.5l-2 15 q-6 -3 -17 -3q-31 0 -52 21t-21 52t21 52.5t52 21.5q38 0 60.5 -28t22.5 -77q0 -145 -105 -145q-8 0 -8 6z" />
<glyph unicode="&#x13e;" horiz-adv-x="342" d="M291 0h-248q-15 0 -15 15v104q0 15 15 15h44v451h-44q-15 0 -15 15v104q0 15 15 15h197q15 0 15 -15v-570h36q15 0 15 -15v-104q0 -15 -15 -15zM335 499v40q0 7 8 7q17 0 29 10.5t12 27.5l-2 15q-6 -3 -17 -3q-31 0 -52 21t-21 52t21 52.5t52 21.5q38 0 60.5 -28 t22.5 -77q0 -145 -105 -145q-8 0 -8 6z" />
<glyph unicode="&#x13f;" horiz-adv-x="639" d="M605 0h-546q-15 0 -15 15v116q0 15 15 15h64v426h-64q-15 0 -15 15v116q0 15 15 15h296q7 0 12.5 -5t5.5 -13v-110q0 -8 -5.5 -13t-12.5 -5h-60v-426h167v95q0 15 15 15h131q15 0 15 -15v-223q0 -8 -5.5 -13t-12.5 -5zM481 352q0 -28 -19.5 -47t-47.5 -19t-47 19t-19 47 t19 47.5t47 19.5t47.5 -19.5t19.5 -47.5z" />
<glyph unicode="&#x140;" horiz-adv-x="396" d="M291 0h-248q-15 0 -15 15v104q0 15 15 15h44v451h-44q-15 0 -15 15v104q0 15 15 15h197q15 0 15 -15v-570h36q15 0 15 -15v-104q0 -15 -15 -15zM435 375q0 -28 -19.5 -47t-47.5 -19t-47 19t-19 47t19 47.5t47 19.5t47.5 -19.5t19.5 -47.5z" />
<glyph unicode="&#x141;" horiz-adv-x="640" d="M606 0h-546q-15 0 -15 15v116q0 15 15 15h64v69l-34 -34q-13 -13 -26 0l-37 37q-13 12 0 25l97 96v233h-64q-15 0 -15 15v116q0 15 15 15h296q8 0 13 -5t5 -13v-110q0 -8 -5 -13t-13 -5h-60v-61l29 29q13 13 26 0l37 -37q12 -13 0 -25l-92 -92v-240h167v95q0 15 15 15 h131q15 0 15 -15v-223q0 -8 -5 -13t-13 -5z" />
<glyph unicode="&#x142;" horiz-adv-x="353" d="M301 0h-248q-15 0 -15 15v104q0 15 15 15h44v88l-41 -41q-13 -13 -26 0l-37 37q-13 12 0 25l104 103v239h-44q-15 0 -15 15v104q0 15 15 15h197q15 0 15 -15v-190l26 26q13 13 26 0l37 -37q12 -13 0 -25l-89 -89v-255h36q15 0 15 -15v-104q0 -15 -15 -15z" />
<glyph unicode="&#x143;" horiz-adv-x="809" d="M688 0h-118q-40 0 -71 48l-168 267q-8 12 -16 28l-13 26l-4 10h-3v-233h64q15 0 15 -15v-116q0 -15 -15 -15h-300q-15 0 -15 15v116q0 15 15 15h64v421h-64q-15 0 -15 15v121q0 15 15 15h191q18 0 32 -9t20.5 -17.5t19.5 -29.5l153 -245q12 -20 25 -47t20 -44l7 -17h4 v263h-64q-15 0 -15 15v116q0 15 15 15h300q15 0 15 -15v-116q0 -15 -15 -15h-64v-557q0 -15 -15 -15zM548 931l-209 -159q-14 -11 -26 3l-58 69q-12 14 2 26l194 176q14 11 26 -3l73 -87q11 -14 -2 -25z" />
<glyph unicode="&#x144;" horiz-adv-x="629" d="M597 0h-164q-49 0 -49 49v214q0 44 -12 65.5t-50 21.5q-21 0 -35 -11.5t-17 -20t-4 -16.5v-168h36q15 0 15 -15v-104q0 -15 -15 -15h-248q-15 0 -15 15v104q0 15 15 15h44v224h-44q-15 0 -15 15v104q0 15 15 15h172q15 0 15 -15v-62h4q1 3 3.5 9t13 20.5t24.5 25.5 t40.5 20t58.5 9q79 0 122.5 -49t44.5 -128v-188h45q15 0 15 -15v-104q0 -15 -15 -15zM482 705l-209 -159q-14 -11 -26 3l-58 69q-12 14 2 26l194 176q14 11 26 -3l73 -87q11 -14 -2 -25z" />
<glyph unicode="&#x145;" horiz-adv-x="809" d="M688 0h-118q-40 0 -71 48l-168 267q-8 12 -16 28l-13 26l-4 10h-3v-233h64q15 0 15 -15v-116q0 -15 -15 -15h-300q-15 0 -15 15v116q0 15 15 15h64v421h-64q-15 0 -15 15v121q0 15 15 15h191q18 0 32 -9t20.5 -17.5t19.5 -29.5l153 -245q12 -20 25 -47t20 -44l7 -17h4 v263h-64q-15 0 -15 15v116q0 15 15 15h300q15 0 15 -15v-116q0 -15 -15 -15h-64v-557q0 -15 -15 -15zM364 -289v40q0 7 8 7q17 0 29 10.5t12 27.5l-2 15q-6 -3 -17 -3q-31 0 -52 21t-21 52t21 52.5t52 21.5q38 0 60.5 -28t22.5 -77q0 -145 -105 -145q-8 0 -8 6z" />
<glyph unicode="&#x146;" horiz-adv-x="629" d="M597 0h-164q-49 0 -49 49v214q0 44 -12 65.5t-50 21.5q-21 0 -35 -11.5t-17 -20t-4 -16.5v-168h36q15 0 15 -15v-104q0 -15 -15 -15h-248q-15 0 -15 15v104q0 15 15 15h44v224h-44q-15 0 -15 15v104q0 15 15 15h172q15 0 15 -15v-62h4q1 3 3.5 9t13 20.5t24.5 25.5 t40.5 20t58.5 9q79 0 122.5 -49t44.5 -128v-188h45q15 0 15 -15v-104q0 -15 -15 -15zM267 -289v40q0 7 8 7q17 0 29 10.5t12 27.5l-2 15q-6 -3 -17 -3q-31 0 -52 21t-21 52t21 52.5t52 21.5q38 0 60.5 -28t22.5 -77q0 -145 -105 -145q-8 0 -8 6z" />
<glyph unicode="&#x147;" horiz-adv-x="809" d="M688 0h-118q-40 0 -71 48l-168 267q-8 12 -16 28l-13 26l-4 10h-3v-233h64q15 0 15 -15v-116q0 -15 -15 -15h-300q-15 0 -15 15v116q0 15 15 15h64v421h-64q-15 0 -15 15v121q0 15 15 15h191q18 0 32 -9t20.5 -17.5t19.5 -29.5l153 -245q12 -20 25 -47t20 -44l7 -17h4 v263h-64q-15 0 -15 15v116q0 15 15 15h300q15 0 15 -15v-116q0 -15 -15 -15h-64v-557q0 -15 -15 -15zM588 947l-177 -160q-7 -6 -14 -6t-11 4l-179 162q-12 12 -2 26l57 67q10 13 25 2l110 -105l111 105q14 12 25 -2l57 -67q10 -14 -2 -26z" />
<glyph unicode="&#x148;" horiz-adv-x="629" d="M597 0h-164q-49 0 -49 49v214q0 44 -12 65.5t-50 21.5q-21 0 -35 -11.5t-17 -20t-4 -16.5v-168h36q15 0 15 -15v-104q0 -15 -15 -15h-248q-15 0 -15 15v104q0 15 15 15h44v224h-44q-15 0 -15 15v104q0 15 15 15h172q15 0 15 -15v-62h4q1 3 3.5 9t13 20.5t24.5 25.5 t40.5 20t58.5 9q79 0 122.5 -49t44.5 -128v-188h45q15 0 15 -15v-104q0 -15 -15 -15zM491 721l-177 -160q-7 -6 -14 -6t-11 4l-179 162q-12 12 -2 26l57 67q10 13 25 2l110 -105l111 105q14 12 25 -2l57 -67q10 -14 -2 -26z" />
<glyph unicode="&#x149;" horiz-adv-x="629" d="M597 0h-164q-49 0 -49 49v214q0 44 -12 65.5t-50 21.5q-21 0 -35 -11.5t-17 -20t-4 -16.5v-168h36q15 0 15 -15v-104q0 -15 -15 -15h-248q-15 0 -15 15v104q0 15 15 15h44v224h-44q-15 0 -15 15v104q0 15 15 15h172q15 0 15 -15v-62h4q1 3 3.5 9t13 20.5t24.5 25.5 t40.5 20t58.5 9q79 0 122.5 -49t44.5 -128v-188h45q15 0 15 -15v-104q0 -15 -15 -15zM-14 529v40q0 7 8 7q17 0 29 10.5t12 27.5l-2 15q-6 -3 -17 -3q-31 0 -52 21t-21 52t21 52.5t52 21.5q38 0 60.5 -28t22.5 -77q0 -145 -105 -145q-8 0 -8 6z" />
<glyph unicode="&#x14a;" horiz-adv-x="809" d="M703 572v-560q0 -108 -78.5 -175.5t-256.5 -67.5q-15 0 -15 15v117q0 15 15 15q89 0 124 21t35 63v14q-16 13 -28 34l-168 267q-8 12 -16 28l-13 26l-4 10h-3v-233h64q15 0 15 -15v-116q0 -15 -15 -15h-300q-15 0 -15 15v116q0 15 15 15h64v421h-64q-15 0 -15 15v121 q0 15 15 15h191q18 0 32 -9t20.5 -17.5t19.5 -29.5l153 -245q12 -20 25 -47t20 -44l7 -17h4v263h-64q-15 0 -15 15v116q0 15 15 15h300q15 0 15 -15v-116q0 -15 -15 -15h-64z" />
<glyph unicode="&#x14b;" horiz-adv-x="609" d="M552 322v-355q1 -100 -51 -152t-152 -52q-39 0 -73.5 12.5t-47 21.5t-34.5 29q-3 3 -5 4q-15 15 -4 27l57 76q12 14 26 3q1 -1 5 -4.5t5.5 -4.5t5.5 -4t6.5 -4t7 -3t9 -3t10.5 -1.5t13 -0.5q54 0 54 56v296q0 44 -12 65.5t-50 21.5q-21 0 -35 -11.5t-17 -20t-4 -16.5 v-168h36q15 0 15 -15v-104q0 -15 -15 -15h-248q-15 0 -15 15v104q0 15 15 15h44v224h-44q-15 0 -15 15v104q0 15 15 15h172q15 0 15 -15v-62h4q1 3 3.5 9t13 20.5t24.5 25.5t40.5 20t58.5 9q79 0 122.5 -49t44.5 -128z" />
<glyph unicode="&#x14c;" horiz-adv-x="798" d="M399 -7q-155 0 -259.5 104.5t-104.5 265.5q0 88 32 158.5t84.5 113.5t116 66t131.5 23t131.5 -23t116 -66t84.5 -113.5t32 -158.5q0 -169 -103 -269.5t-261 -100.5zM399 156q77 0 127.5 59t50.5 145q0 92 -50 146.5t-129 54.5q-78 0 -127.5 -55t-49.5 -146 q0 -86 50.5 -145t127.5 -59zM575 774h-329q-8 0 -13 5t-5 13v97q0 7 5 12.5t13 5.5h329q7 0 12.5 -5.5t5.5 -12.5v-97q0 -8 -5.5 -13t-12.5 -5z" />
<glyph unicode="&#x14d;" horiz-adv-x="592" d="M295 -7q-124 0 -194.5 69t-70.5 185q0 115 73 183.5t193 68.5t193 -68.5t73 -183.5q0 -116 -71.5 -185t-195.5 -69zM295 135q45 0 70.5 31t25.5 82q0 50 -25.5 79t-69.5 29t-69.5 -29t-25.5 -79q0 -51 25 -82t69 -31zM460 548h-329q-7 0 -12.5 5t-5.5 13v97q0 7 5.5 12.5 t12.5 5.5h329q8 0 13 -5.5t5 -12.5v-97q0 -8 -5 -13t-13 -5z" />
<glyph unicode="&#x14e;" horiz-adv-x="798" d="M399 -7q-155 0 -259.5 104.5t-104.5 265.5q0 88 32 158.5t84.5 113.5t116 66t131.5 23t131.5 -23t116 -66t84.5 -113.5t32 -158.5q0 -169 -103 -269.5t-261 -100.5zM399 156q77 0 127.5 59t50.5 145q0 92 -50 146.5t-129 54.5q-78 0 -127.5 -55t-49.5 -146 q0 -86 50.5 -145t127.5 -59zM480 926h72q8 0 13 -5t5 -13q0 -66 -46 -104.5t-117 -38.5t-115.5 38.5t-44.5 104.5q0 8 5.5 13t12.5 5h72q7 0 12.5 -5t5.5 -13q0 -23 15 -38.5t37 -15.5q25 0 40 15t15 39q0 8 5 13t13 5z" />
<glyph unicode="&#x14f;" horiz-adv-x="592" d="M295 -7q-124 0 -194.5 69t-70.5 185q0 115 73 183.5t193 68.5t193 -68.5t73 -183.5q0 -116 -71.5 -185t-195.5 -69zM295 135q45 0 70.5 31t25.5 82q0 50 -25.5 79t-69.5 29t-69.5 -29t-25.5 -79q0 -51 25 -82t69 -31zM377 700h72q7 0 12.5 -5t5.5 -13q0 -66 -46 -104.5 t-117 -38.5t-115.5 38.5t-44.5 104.5q0 8 5 13t13 5h72q8 0 13 -5t5 -13q0 -23 15 -38.5t37 -15.5q24 0 39.5 15t15.5 39q0 8 5.5 13t12.5 5z" />
<glyph unicode="&#x150;" horiz-adv-x="798" d="M399 -7q-155 0 -259.5 104.5t-104.5 265.5q0 88 32 158.5t84.5 113.5t116 66t131.5 23t131.5 -23t116 -66t84.5 -113.5t32 -158.5q0 -169 -103 -269.5t-261 -100.5zM399 156q77 0 127.5 59t50.5 145q0 92 -50 146.5t-129 54.5q-78 0 -127.5 -55t-49.5 -146 q0 -86 50.5 -145t127.5 -59zM508 957l-209 -159q-14 -11 -26 3l-58 69q-12 14 2 26l194 176q12 12 26 -3l73 -87q11 -14 -2 -25zM752 957l-209 -159q-14 -11 -26 3l-58 69q-12 14 2 26l194 176q12 12 26 -3l73 -87q11 -14 -2 -25z" />
<glyph unicode="&#x151;" horiz-adv-x="592" d="M295 -7q-124 0 -194.5 69t-70.5 185q0 115 73 183.5t193 68.5t193 -68.5t73 -183.5q0 -116 -71.5 -185t-195.5 -69zM295 135q45 0 70.5 31t25.5 82q0 50 -25.5 79t-69.5 29t-69.5 -29t-25.5 -79q0 -51 25 -82t69 -31zM365 731l-209 -159q-14 -11 -26 3l-58 69 q-12 14 2 26l194 176q12 12 26 -3l73 -87q11 -14 -2 -25zM609 731l-209 -159q-14 -11 -26 3l-58 69q-12 14 2 26l194 176q12 12 26 -3l73 -87q11 -14 -2 -25z" />
<glyph unicode="&#x152;" horiz-adv-x="979" d="M908 0h-509q-156 0 -260 101t-104 262q0 87 31.5 156.5t83.5 111.5t114.5 64t130.5 23h513q15 0 15 -15v-226q0 -15 -15 -15h-128q-15 0 -15 15v95h-193v-138h156q15 0 15 -15v-116q0 -15 -15 -15h-156v-142h192v95q0 15 15 15h129q15 0 15 -15v-226q0 -15 -15 -15z M395 158v403q-76 -2 -125 -56.5t-49 -144.5q0 -85 49 -143t125 -59z" />
<glyph unicode="&#x153;" horiz-adv-x="921" d="M870 224h-305q9 -45 38.5 -67t71.5 -22q34 0 65 13.5t45 27.5l14 14q12 14 23 1l63 -70q11 -12 2 -24q-6 -9 -19.5 -22t-40.5 -33.5t-71.5 -34.5t-96.5 -14q-107 0 -180 59q-70 -59 -184 -59q-124 0 -194.5 69t-70.5 185q0 115 73 183.5t193 68.5q111 0 184 -60 q74 60 166 60q121 0 181.5 -66t60.5 -191q0 -8 -5 -13t-13 -5zM295 135q45 0 70.5 31t25.5 82q0 50 -25.5 79t-69.5 29t-69.5 -29t-25.5 -79q0 -51 25 -82t69 -31zM568 308h161q-2 23 -19.5 42t-56.5 19q-72 0 -85 -61z" />
<glyph unicode="&#x154;" horiz-adv-x="732" d="M702 0h-146q-48 0 -81 69l-68 140q-21 42 -60 42h-52v-105h86q15 0 15 -15v-116q0 -15 -15 -15h-322q-15 0 -15 15v116q0 15 15 15h64v426h-64q-15 0 -15 15v116q0 15 15 15h344q111 0 181 -68t70 -174q0 -130 -107 -189q20 -20 34 -44l53 -97h68q15 0 15 -15v-116 q0 -15 -15 -15zM295 385h65q62 0 91 21t29 65q0 101 -120 101h-65v-187zM514 931l-209 -159q-14 -11 -26 3l-58 69q-12 14 2 26l194 176q14 11 26 -3l73 -87q11 -14 -2 -25z" />
<glyph unicode="&#x155;" horiz-adv-x="472" d="M302 0h-248q-15 0 -15 15v104q0 15 15 15h44v224h-44q-15 0 -15 15v104q0 15 15 15h172q15 0 15 -15v-102h5q2 5 5.5 13.5t19 30t35.5 37.5t55.5 29.5t77.5 13.5q7 0 12.5 -5.5t5.5 -12.5v-134q0 -7 -5.5 -12.5t-12.5 -5.5h-44q-49 0 -89 -31.5t-40 -74.5v-89h36 q15 0 15 -15v-104q0 -15 -15 -15zM422 705l-209 -159q-14 -11 -26 3l-58 69q-12 14 2 26l194 176q14 11 26 -3l73 -87q11 -14 -2 -25z" />
<glyph unicode="&#x156;" horiz-adv-x="732" d="M702 0h-146q-48 0 -81 69l-68 140q-21 42 -60 42h-52v-105h86q15 0 15 -15v-116q0 -15 -15 -15h-322q-15 0 -15 15v116q0 15 15 15h64v426h-64q-15 0 -15 15v116q0 15 15 15h344q111 0 181 -68t70 -174q0 -130 -107 -189q20 -20 34 -44l53 -97h68q15 0 15 -15v-116 q0 -15 -15 -15zM295 385h65q62 0 91 21t29 65q0 101 -120 101h-65v-187zM334 -289v40q0 7 8 7q17 0 29 10.5t12 27.5l-2 15q-6 -3 -17 -3q-31 0 -52 21t-21 52t21 52.5t52 21.5q38 0 60.5 -28t22.5 -77q0 -145 -105 -145q-8 0 -8 6z" />
<glyph unicode="&#x157;" horiz-adv-x="472" d="M302 0h-248q-15 0 -15 15v104q0 15 15 15h44v224h-44q-15 0 -15 15v104q0 15 15 15h172q15 0 15 -15v-102h5q2 5 5.5 13.5t19 30t35.5 37.5t55.5 29.5t77.5 13.5q7 0 12.5 -5.5t5.5 -12.5v-134q0 -7 -5.5 -12.5t-12.5 -5.5h-44q-49 0 -89 -31.5t-40 -74.5v-89h36 q15 0 15 -15v-104q0 -15 -15 -15zM162 -289v40q0 7 8 7q17 0 29 10.5t12 27.5l-2 15q-6 -3 -17 -3q-31 0 -52 21t-21 52t21 52.5t52 21.5q38 0 60.5 -28t22.5 -77q0 -145 -105 -145q-8 0 -8 6z" />
<glyph unicode="&#x158;" horiz-adv-x="732" d="M702 0h-146q-48 0 -81 69l-68 140q-21 42 -60 42h-52v-105h86q15 0 15 -15v-116q0 -15 -15 -15h-322q-15 0 -15 15v116q0 15 15 15h64v426h-64q-15 0 -15 15v116q0 15 15 15h344q111 0 181 -68t70 -174q0 -130 -107 -189q20 -20 34 -44l53 -97h68q15 0 15 -15v-116 q0 -15 -15 -15zM295 385h65q62 0 91 21t29 65q0 101 -120 101h-65v-187zM544 947l-177 -160q-7 -6 -14 -6t-11 4l-179 162q-12 12 -2 26l57 67q10 13 25 2l110 -105l111 105q14 12 25 -2l57 -67q10 -14 -2 -26z" />
<glyph unicode="&#x159;" horiz-adv-x="472" d="M301 0h-248q-15 0 -15 15v104q0 15 15 15h44v224h-44q-15 0 -15 15v104q0 15 15 15h172q15 0 15 -15v-102h5q2 5 5.5 13.5t19 30t35.5 37.5t55.5 29.5t77.5 13.5q8 0 13 -5.5t5 -12.5v-134q0 -7 -5 -12.5t-13 -5.5h-44q-49 0 -89 -31.5t-40 -74.5v-89h36q15 0 15 -15 v-104q0 -15 -15 -15zM385 721l-177 -160q-8 -6 -14 -6q-7 0 -11 4l-179 162q-12 12 -2 26l57 67q10 13 25 2l110 -105l111 105q14 12 25 -2l57 -67q10 -14 -2 -26z" />
<glyph unicode="&#x15a;" horiz-adv-x="688" d="M186 0h-124q-15 0 -15 15v243q0 15 15 15h144q15 0 15 -15v-12q1 -4 3.5 -10t13 -21.5t25.5 -27.5t43.5 -21.5t64.5 -9.5q35 0 53.5 15t18.5 35q0 26 -39.5 44t-95.5 34t-112 38.5t-95.5 69t-39.5 113.5q0 97 64.5 158t174.5 61q113 0 173 -60l-4 39q-1 15 15 15h124 q15 0 15 -15v-248q0 -15 -15 -15h-144q-15 0 -15 15v16q0 33 -32 61.5t-90 28.5q-41 0 -60.5 -15.5t-19.5 -40.5q0 -26 29.5 -45.5t74 -30.5t96.5 -28t96.5 -38t74 -61.5t29.5 -96.5q0 -88 -60.5 -150t-180.5 -62q-29 0 -56 4.5t-47 12.5t-37.5 17t-29.5 18t-20 17l-12 12 l-5 5l2 -64q1 -15 -15 -15zM564 931l-209 -159q-14 -11 -26 3l-58 69q-12 14 2 26l194 176q14 11 26 -3l73 -87q11 -14 -2 -25z" />
<glyph unicode="&#x15b;" horiz-adv-x="526" d="M292 -8q-38 0 -73 13t-51 26l-16 13h-2q2 -18 2 -26t-5 -13t-13 -5h-80q-8 0 -13 5t-5 13l1 155q0 7 5.5 12.5t12.5 5.5h94q18 0 18 -17v-3q1 -2 2.5 -5.5t8.5 -12t16.5 -15t26.5 -12t38 -5.5q50 0 50 30q0 13 -26.5 21.5t-64.5 16.5t-75.5 21.5t-64 47t-26.5 83.5 q0 69 47.5 113.5t136.5 44.5q90 0 134 -51h2q-3 20 -3 23q0 18 18 18h73q8 0 13 -5.5t5 -12.5l-1 -157q0 -8 -5.5 -13t-12.5 -5h-94q-7 0 -12.5 5t-5.5 13v5q0 21 -23 35.5t-59 14.5q-47 0 -47 -33q0 -19 28 -29t68 -17t80.5 -20t68.5 -46t28 -85q0 -59 -48 -103t-151 -44z M487 705l-209 -159q-14 -11 -26 3l-58 69q-12 14 2 26l194 176q14 11 26 -3l73 -87q11 -14 -2 -25z" />
<glyph unicode="&#x15c;" horiz-adv-x="688" d="M186 0h-124q-15 0 -15 15v243q0 15 15 15h144q15 0 15 -15v-12q1 -4 3.5 -10t13 -21.5t25.5 -27.5t43.5 -21.5t64.5 -9.5q35 0 53.5 15t18.5 35q0 26 -39.5 44t-95.5 34t-112 38.5t-95.5 69t-39.5 113.5q0 97 64.5 158t174.5 61q113 0 173 -60l-4 39q-1 15 15 15h124 q15 0 15 -15v-248q0 -15 -15 -15h-144q-15 0 -15 15v16q0 33 -32 61.5t-90 28.5q-41 0 -60.5 -15.5t-19.5 -40.5q0 -26 29.5 -45.5t74 -30.5t96.5 -28t96.5 -38t74 -61.5t29.5 -96.5q0 -88 -60.5 -150t-180.5 -62q-29 0 -56 4.5t-47 12.5t-37.5 17t-29.5 18t-20 17l-12 12 l-5 5l2 -64q1 -15 -15 -15zM547 844l-57 -67q-11 -14 -25 -2l-111 101l-110 -101q-13 -13 -25 2l-57 67q-10 14 2 26l179 162q4 4 11 4q6 0 14 -6l177 -160q12 -12 2 -26z" />
<glyph unicode="&#x15d;" horiz-adv-x="526" d="M292 -8q-38 0 -73 13t-51 26l-16 13h-2q2 -18 2 -26t-5 -13t-13 -5h-80q-8 0 -13 5t-5 13l1 155q0 7 5.5 12.5t12.5 5.5h94q18 0 18 -17v-3q1 -2 2.5 -5.5t8.5 -12t16.5 -15t26.5 -12t38 -5.5q50 0 50 30q0 13 -26.5 21.5t-64.5 16.5t-75.5 21.5t-64 47t-26.5 83.5 q0 69 47.5 113.5t136.5 44.5q90 0 134 -51h2q-3 20 -3 23q0 18 18 18h73q8 0 13 -5.5t5 -12.5l-1 -157q0 -8 -5.5 -13t-12.5 -5h-94q-7 0 -12.5 5t-5.5 13v5q0 21 -23 35.5t-59 14.5q-47 0 -47 -33q0 -19 28 -29t68 -17t80.5 -20t68.5 -46t28 -85q0 -59 -48 -103t-151 -44z M453 618l-57 -67q-11 -14 -25 -2l-111 101l-110 -101q-13 -13 -25 2l-57 67q-10 14 2 26l179 162q4 4 11 4q6 0 14 -6l177 -160q12 -12 2 -26z" />
<glyph unicode="&#x15e;" horiz-adv-x="688" d="M355 -165q-27 0 -52 8.5t-37 16.5l-12 8q-15 9 -4 25l14 19q11 15 26 3q21 -14 49 -14t28 18q0 11 -6 16.5t-24 5.5q-20 0 -26 3.5t-2 15.5l16 43q-18 5 -34 11.5t-28.5 13.5t-23 14.5t-17.5 14t-12.5 11.5t-7.5 8l-3 3l2 -64q1 -15 -15 -15h-124q-15 0 -15 15v243 q0 15 15 15h144q15 0 15 -15v-12q1 -4 3.5 -10t13 -21.5t25.5 -27.5t43.5 -21.5t64.5 -9.5q35 0 53.5 15t18.5 35q0 26 -39.5 44t-95.5 34t-112 38.5t-95.5 69t-39.5 113.5q0 97 64.5 158t174.5 61q113 0 173 -60l-4 39q-1 15 15 15h124q15 0 15 -15v-248q0 -15 -15 -15 h-144q-15 0 -15 15v16q0 33 -32 61.5t-90 28.5q-41 0 -60.5 -15.5t-19.5 -40.5q0 -26 29.5 -45.5t74 -30.5t96.5 -28t96.5 -38t74 -61.5t29.5 -96.5q0 -88 -60.5 -150t-180.5 -62q-13 0 -20 1l-4 -13q11 0 23 -2.5t28 -17.5t16 -42q0 -38 -26 -61t-68 -23z" />
<glyph unicode="&#x15f;" horiz-adv-x="527" d="M272 -165q-27 0 -52 8.5t-37 16.5l-12 8q-15 9 -4 25l14 19q11 15 26 3q21 -14 49 -14t28 18q0 11 -6 16.5t-24 5.5q-20 0 -26 3.5t-2 15.5l14 38q-24 6 -46 17.5t-32 20.5l-10 8h-2q2 -18 2 -26t-5 -13t-13 -5h-80q-8 0 -13 5t-5 13l1 155q0 7 5.5 12.5t12.5 5.5h94 q18 0 18 -17v-3q1 -2 2.5 -5.5t8.5 -12t16.5 -15t26.5 -12t38 -5.5q50 0 50 30q0 13 -26.5 21.5t-64.5 16.5t-75.5 21.5t-64 47t-26.5 83.5q0 69 47.5 113.5t136.5 44.5q90 0 134 -51h2q-3 20 -3 23q0 18 18 18h73q8 0 13 -5.5t5 -12.5l-1 -157q0 -8 -5.5 -13t-12.5 -5h-94 q-7 0 -12.5 5t-5.5 13v5q0 21 -23 35.5t-59 14.5q-47 0 -47 -33q0 -19 28 -29t68 -17t80.5 -20t68.5 -46t28 -85q0 -58 -45.5 -101t-142.5 -46l-4 -11q11 0 23 -2.5t28 -17.5t16 -42q0 -38 -26 -61t-68 -23z" />
<glyph unicode="&#x160;" horiz-adv-x="688" d="M186 0h-124q-15 0 -15 15v243q0 15 15 15h144q15 0 15 -15v-12q1 -4 3.5 -10t13 -21.5t25.5 -27.5t43.5 -21.5t64.5 -9.5q35 0 53.5 15t18.5 35q0 26 -39.5 44t-95.5 34t-112 38.5t-95.5 69t-39.5 113.5q0 97 64.5 158t174.5 61q113 0 173 -60l-4 39q-1 15 15 15h124 q15 0 15 -15v-248q0 -15 -15 -15h-144q-15 0 -15 15v16q0 33 -32 61.5t-90 28.5q-41 0 -60.5 -15.5t-19.5 -40.5q0 -26 29.5 -45.5t74 -30.5t96.5 -28t96.5 -38t74 -61.5t29.5 -96.5q0 -88 -60.5 -150t-180.5 -62q-29 0 -56 4.5t-47 12.5t-37.5 17t-29.5 18t-20 17l-12 12 l-5 5l2 -64q1 -15 -15 -15zM552 947l-177 -160q-7 -6 -14 -6t-11 4l-179 162q-12 12 -2 26l57 67q10 13 25 2l110 -105l111 105q14 12 25 -2l57 -67q10 -14 -2 -26z" />
<glyph unicode="&#x161;" horiz-adv-x="526" d="M292 -8q-38 0 -73 13t-51 26l-16 13h-2q2 -18 2 -26t-5 -13t-13 -5h-80q-8 0 -13 5t-5 13l1 155q0 7 5.5 12.5t12.5 5.5h94q18 0 18 -17v-3q1 -2 2.5 -5.5t8.5 -12t16.5 -15t26.5 -12t38 -5.5q50 0 50 30q0 13 -26.5 21.5t-64.5 16.5t-75.5 21.5t-64 47t-26.5 83.5 q0 69 47.5 113.5t136.5 44.5q90 0 134 -51h2q-3 20 -3 23q0 18 18 18h73q8 0 13 -5.5t5 -12.5l-1 -157q0 -8 -5.5 -13t-12.5 -5h-94q-7 0 -12.5 5t-5.5 13v5q0 21 -23 35.5t-59 14.5q-47 0 -47 -33q0 -19 28 -29t68 -17t80.5 -20t68.5 -46t28 -85q0 -59 -48 -103t-151 -44z M467 721l-177 -160q-8 -6 -14 -6q-7 0 -11 4l-179 162q-12 12 -2 26l57 67q10 13 25 2l110 -105l111 105q14 12 25 -2l57 -67q10 -14 -2 -26z" />
<glyph unicode="&#x162;" horiz-adv-x="697" d="M498 0h-294q-8 0 -13 5t-5 13v110q0 8 5 13t13 5h61v426h-86v-94q0 -8 -5.5 -13t-12.5 -5h-125q-8 0 -13 5t-5 13v222q0 8 5 13t13 5h624q8 0 13 -5t5 -13v-222q0 -8 -5 -13t-13 -5h-125q-7 0 -12.5 5t-5.5 13v94h-80v-426h61q8 0 13 -5t5 -13v-110q0 -8 -5 -13t-13 -5z M321 -289v40q0 7 8 7q17 0 29 10.5t12 27.5l-2 15q-6 -3 -17 -3q-31 0 -52 21t-21 52t21 52.5t52 21.5q38 0 60.5 -28t22.5 -77q0 -145 -105 -145q-8 0 -8 6z" />
<glyph unicode="&#x163;" horiz-adv-x="446" d="M386 163l57 -76q11 -12 -4 -27q-44 -39 -76 -52q-38 -15 -84 -15q-100 0 -151.5 52t-51.5 152v161h-41q-7 0 -12.5 5t-5.5 13v98q0 8 5.5 13t12.5 5h41v119q0 7 5 12.5t13 5.5h133q7 0 12.5 -5.5t5.5 -12.5v-119h124q7 0 12.5 -5t5.5 -13v-98q0 -8 -5.5 -13t-12.5 -5 h-124v-161q0 -56 53 -56q7 0 13 0.5t10.5 1.5t9 3t7 3t6.5 4t5.5 4t5.5 4.5t5 4.5q14 11 26 -3zM182 -289v40q0 7 8 7q17 0 29 10.5t12 27.5l-2 15q-6 -3 -17 -3q-31 0 -52 21t-21 52t21 52.5t52 21.5q38 0 60.5 -28t22.5 -77q0 -145 -105 -145q-8 0 -8 6z" />
<glyph unicode="&#x164;" horiz-adv-x="697" d="M498 0h-294q-8 0 -13 5t-5 13v110q0 8 5 13t13 5h61v426h-86v-94q0 -8 -5.5 -13t-12.5 -5h-125q-8 0 -13 5t-5 13v222q0 8 5 13t13 5h624q8 0 13 -5t5 -13v-222q0 -8 -5 -13t-13 -5h-125q-7 0 -12.5 5t-5.5 13v94h-80v-426h61q8 0 13 -5t5 -13v-110q0 -8 -5 -13t-13 -5z M545 947l-177 -160q-8 -6 -14 -6q-7 0 -11 4l-179 162q-12 12 -2 26l57 67q10 13 25 2l110 -105l111 105q14 12 25 -2l57 -67q10 -14 -2 -26z" />
<glyph unicode="&#x165;" horiz-adv-x="446" d="M443 87l-57 76q-12 14 -26 3q-1 -1 -5 -4.5t-5.5 -4.5t-5.5 -4t-6.5 -4t-7 -3t-9 -3t-10.5 -1.5t-13 -0.5q-53 0 -53 56v161h124q7 0 12.5 5t5.5 13v98q0 8 -5.5 13t-12.5 5h-124v119q0 7 -5.5 12.5t-12.5 5.5h-133q-8 0 -13 -5.5t-5 -12.5v-119h-41q-7 0 -12.5 -5 t-5.5 -13v-98q0 -8 5.5 -13t12.5 -5h41v-161q0 -100 51.5 -152t151.5 -52q39 0 73.5 12.5t47 21.5t34.5 29q3 3 5 4q15 15 4 27zM296 533v40q0 7 8 7q17 0 29 10.5t12 27.5l-2 15q-6 -3 -17 -3q-31 0 -52 21t-21 52t21 52.5t52 21.5q38 0 60.5 -28t22.5 -77 q0 -145 -105 -145q-8 0 -8 6z" />
<glyph unicode="&#x166;" horiz-adv-x="697" d="M498 0h-294q-8 0 -13 5t-5 13v110q0 8 5 13t13 5h61v108h-74q-7 0 -12.5 5t-5.5 13v97q0 7 5.5 12.5t12.5 5.5h74v185h-80v-94q0 -8 -5.5 -13t-12.5 -5h-131q-8 0 -13 5t-5 13v222q0 8 5 13t13 5h624q8 0 13 -5t5 -13v-222q0 -8 -5 -13t-13 -5h-131q-7 0 -12.5 5t-5.5 13 v94h-74v-185h74q7 0 12.5 -5.5t5.5 -12.5v-97q0 -8 -5.5 -13t-12.5 -5h-74v-108h61q8 0 13 -5t5 -13v-110q0 -8 -5 -13t-13 -5z" />
<glyph unicode="&#x167;" horiz-adv-x="446" d="M386 163l57 -76q11 -12 -4 -27q-44 -39 -76 -52q-38 -15 -84 -15q-100 0 -151.5 52t-51.5 152v52h-36q-11 0 -11 11v26q0 11 11 11h36v61h-41q-7 0 -12.5 5t-5.5 13v98q0 8 5.5 13t12.5 5h41v119q0 7 5 12.5t13 5.5h133q7 0 12.5 -5.5t5.5 -12.5v-119h124q7 0 12.5 -5 t5.5 -13v-98q0 -8 -5.5 -13t-12.5 -5h-124v-61h54q11 0 11 -11v-26q0 -11 -11 -11h-54v-52q0 -56 53 -56q7 0 13 0.5t10.5 1.5t9 3t7 3t6.5 4t5.5 4t5.5 4.5t5 4.5q14 11 26 -3z" />
<glyph unicode="&#x168;" horiz-adv-x="754" d="M490 259v313h-64q-15 0 -15 15v116q0 15 15 15h300q15 0 15 -15v-116q0 -15 -15 -15h-64v-304q0 -133 -77 -204t-206 -71q-130 0 -208.5 71t-78.5 204v304h-64q-15 0 -15 15v116q0 15 15 15h300q15 0 15 -15v-116q0 -15 -15 -15h-64v-308q0 -43 26 -75t89 -32q51 0 81 30 t30 72zM541 946h56q15 0 15 -15q0 -72 -29 -112.5t-89 -40.5q-37 0 -65.5 17t-49 34t-39.5 17q-20 0 -29.5 -11.5t-9.5 -47.5q0 -15 -15 -15h-56q-15 0 -15 15q0 70 29.5 111t88.5 41q38 0 66.5 -18.5t48.5 -37t39 -18.5t29 14t10 52q0 15 15 15z" />
<glyph unicode="&#x169;" d="M576 0h-139q-49 0 -49 49v28h-3q-1 -3 -2.5 -9t-11 -20.5t-22 -25.5t-38 -20t-57.5 -9q-80 0 -128 49.5t-48 127.5v188h-45q-15 0 -15 15v104q0 15 15 15h164q49 0 49 -49v-214q0 -44 12 -65.5t50 -21.5q30 0 43 17.5t13 30.5v168h-36q-15 0 -15 15v104q0 15 15 15h189 q15 0 15 -15v-343h44q15 0 15 -15v-104q0 -15 -15 -15zM423 720h56q15 0 15 -15q0 -72 -29 -112.5t-89 -40.5q-37 0 -65.5 17t-49 34t-39.5 17q-20 0 -29.5 -11.5t-9.5 -47.5q0 -15 -15 -15h-56q-15 0 -15 15q0 70 29.5 111t88.5 41q38 0 66.5 -18.5t48.5 -37t39 -18.5 t29 14t10 52q0 15 15 15z" />
<glyph unicode="&#x16a;" horiz-adv-x="754" d="M490 259v313h-64q-15 0 -15 15v116q0 15 15 15h300q15 0 15 -15v-116q0 -15 -15 -15h-64v-304q0 -133 -77 -204t-206 -71q-130 0 -208.5 71t-78.5 204v304h-64q-15 0 -15 15v116q0 15 15 15h300q15 0 15 -15v-116q0 -15 -15 -15h-64v-308q0 -43 26 -75t89 -32q51 0 81 30 t30 72zM528 774h-329q-7 0 -12.5 5t-5.5 13v97q0 7 5.5 12.5t12.5 5.5h329q8 0 13 -5.5t5 -12.5v-97q0 -8 -5 -13t-13 -5z" />
<glyph unicode="&#x16b;" d="M576 0h-139q-49 0 -49 49v28h-3q-1 -3 -2.5 -9t-11 -20.5t-22 -25.5t-38 -20t-57.5 -9q-80 0 -128 49.5t-48 127.5v188h-45q-15 0 -15 15v104q0 15 15 15h164q49 0 49 -49v-214q0 -44 12 -65.5t50 -21.5q30 0 43 17.5t13 30.5v168h-36q-15 0 -15 15v104q0 15 15 15h189 q15 0 15 -15v-343h44q15 0 15 -15v-104q0 -15 -15 -15zM453 548h-329q-8 0 -13 5t-5 13v97q0 7 5 12.5t13 5.5h329q7 0 12.5 -5.5t5.5 -12.5v-97q0 -8 -5.5 -13t-12.5 -5z" />
<glyph unicode="&#x16c;" horiz-adv-x="754" d="M490 259v313h-64q-15 0 -15 15v116q0 15 15 15h300q15 0 15 -15v-116q0 -15 -15 -15h-64v-304q0 -133 -77 -204t-206 -71q-130 0 -208.5 71t-78.5 204v304h-64q-15 0 -15 15v116q0 15 15 15h300q15 0 15 -15v-116q0 -15 -15 -15h-64v-308q0 -43 26 -75t89 -32q51 0 81 30 t30 72zM451 926h72q7 0 12.5 -5t5.5 -13q0 -66 -46 -104.5t-117 -38.5t-115.5 38.5t-44.5 104.5q0 8 5 13t13 5h72q8 0 13 -5t5 -13q0 -23 15 -38.5t37 -15.5q24 0 39.5 15t15.5 39q0 8 5.5 13t12.5 5z" />
<glyph unicode="&#x16d;" d="M576 0h-139q-49 0 -49 49v28h-3q-1 -3 -2.5 -9t-11 -20.5t-22 -25.5t-38 -20t-57.5 -9q-80 0 -128 49.5t-48 127.5v188h-45q-15 0 -15 15v104q0 15 15 15h164q49 0 49 -49v-214q0 -44 12 -65.5t50 -21.5q30 0 43 17.5t13 30.5v168h-36q-15 0 -15 15v104q0 15 15 15h189 q15 0 15 -15v-343h44q15 0 15 -15v-104q0 -15 -15 -15zM356 700h72q8 0 13 -5t5 -13q0 -66 -46 -104.5t-117 -38.5t-115.5 38.5t-44.5 104.5q0 8 5.5 13t12.5 5h72q7 0 12.5 -5t5.5 -13q0 -23 15 -38.5t37 -15.5q25 0 40 15t15 39q0 8 5 13t13 5z" />
<glyph unicode="&#x16e;" horiz-adv-x="754" d="M490 259v313h-64q-15 0 -15 15v116q0 15 15 15h300q15 0 15 -15v-116q0 -15 -15 -15h-64v-304q0 -133 -77 -204t-206 -71q-130 0 -208.5 71t-78.5 204v304h-64q-15 0 -15 15v116q0 15 15 15h300q15 0 15 -15v-116q0 -15 -15 -15h-64v-308q0 -43 26 -75t89 -32q51 0 81 30 t30 72zM380 772q-35 0 -59.5 25.5t-24.5 60.5t24.5 60.5t59.5 25.5t59.5 -25.5t24.5 -60.5t-24.5 -60.5t-59.5 -25.5zM380 830q11 0 18.5 8.5t7.5 19.5t-7.5 19.5t-18.5 8.5t-18.5 -8.5t-7.5 -19.5t7.5 -19.5t18.5 -8.5z" />
<glyph unicode="&#x16f;" d="M576 0h-139q-49 0 -49 49v28h-3q-1 -3 -2.5 -9t-11 -20.5t-22 -25.5t-38 -20t-57.5 -9q-80 0 -128 49.5t-48 127.5v188h-45q-15 0 -15 15v104q0 15 15 15h164q49 0 49 -49v-214q0 -44 12 -65.5t50 -21.5q30 0 43 17.5t13 30.5v168h-36q-15 0 -15 15v104q0 15 15 15h189 q15 0 15 -15v-343h44q15 0 15 -15v-104q0 -15 -15 -15zM293 546q-35 0 -59.5 25.5t-24.5 60.5t24.5 60.5t59.5 25.5t59.5 -25.5t24.5 -60.5t-24.5 -60.5t-59.5 -25.5zM293 604q11 0 18.5 8.5t7.5 19.5t-7.5 19.5t-18.5 8.5t-18.5 -8.5t-7.5 -19.5t7.5 -19.5t18.5 -8.5z" />
<glyph unicode="&#x170;" horiz-adv-x="754" d="M490 259v313h-64q-15 0 -15 15v116q0 15 15 15h300q15 0 15 -15v-116q0 -15 -15 -15h-64v-304q0 -133 -77 -204t-206 -71q-130 0 -208.5 71t-78.5 204v304h-64q-15 0 -15 15v116q0 15 15 15h300q15 0 15 -15v-116q0 -15 -15 -15h-64v-308q0 -43 26 -75t89 -32q51 0 81 30 t30 72zM462 957l-209 -159q-14 -11 -26 3l-58 69q-12 14 2 26l194 176q12 12 26 -3l73 -87q11 -14 -2 -25zM706 957l-209 -159q-14 -11 -26 3l-58 69q-12 14 2 26l194 176q12 12 26 -3l73 -87q11 -14 -2 -25z" />
<glyph unicode="&#x171;" d="M576 0h-139q-49 0 -49 49v28h-3q-1 -3 -2.5 -9t-11 -20.5t-22 -25.5t-38 -20t-57.5 -9q-80 0 -128 49.5t-48 127.5v188h-45q-15 0 -15 15v104q0 15 15 15h164q49 0 49 -49v-214q0 -44 12 -65.5t50 -21.5q30 0 43 17.5t13 30.5v168h-36q-15 0 -15 15v104q0 15 15 15h189 q15 0 15 -15v-343h44q15 0 15 -15v-104q0 -15 -15 -15zM332 731l-209 -159q-14 -11 -26 3l-58 69q-12 14 2 26l194 176q12 12 26 -3l73 -87q11 -14 -2 -25zM576 731l-209 -159q-14 -11 -26 3l-58 69q-12 14 2 26l194 176q12 12 26 -3l73 -87q11 -14 -2 -25z" />
<glyph unicode="&#x172;" horiz-adv-x="754" d="M478 -98l13 -21q10 -15 -5 -25q-43 -38 -111 -38q-44 0 -69 22.5t-25 61.5q0 31 16.5 55.5t42.5 37.5q-114 10 -181 80t-67 193v304h-64q-15 0 -15 15v116q0 15 15 15h300q15 0 15 -15v-116q0 -15 -15 -15h-64v-308q0 -43 26 -75t89 -32q51 0 81 30t30 72v313h-64 q-15 0 -15 15v116q0 15 15 15h300q15 0 15 -15v-116q0 -15 -15 -15h-64v-304q0 -119 -62 -188.5t-168 -82.5q-55 -35 -55 -74q0 -28 31 -28q23 0 45 13q16 9 25 -6z" />
<glyph unicode="&#x173;" d="M590 -98l13 -21q10 -15 -5 -25q-43 -38 -111 -38q-44 0 -69 22.5t-25 61.5q0 34 20 60t51 38h-27q-49 0 -49 49v28h-3q-1 -3 -2.5 -9t-11 -20.5t-22 -25.5t-38 -20t-57.5 -9q-80 0 -128 49.5t-48 127.5v188h-45q-15 0 -15 15v104q0 15 15 15h164q49 0 49 -49v-214 q0 -44 12 -65.5t50 -21.5q30 0 43 17.5t13 30.5v168h-36q-15 0 -15 15v104q0 15 15 15h189q15 0 15 -15v-343h44q15 0 15 -15v-104q0 -15 -15 -15h-26q-61 -36 -61 -77q0 -28 31 -28q23 0 45 13q16 9 25 -6z" />
<glyph unicode="&#x174;" horiz-adv-x="1038" d="M750 0h-66q-36 0 -55 15t-28 52l-80 342h-7l-77 -342q-9 -37 -28 -52t-55 -15h-66q-36 0 -54.5 14.5t-28.5 52.5l-139 505h-55q-15 0 -15 15v116q0 15 15 15h305q15 0 15 -15v-116q0 -15 -15 -15h-63l63 -336h10l113 482h158l115 -482h10l63 336h-63q-15 0 -15 15v116 q0 15 15 15h305q15 0 15 -15v-116q0 -15 -15 -15h-56l-138 -505q-10 -38 -28.5 -52.5t-54.5 -14.5zM657 844l-57 -67q-11 -14 -25 -2l-111 101l-110 -101q-13 -13 -25 2l-57 67q-10 14 2 26l179 162q4 4 11 4q6 0 14 -6l177 -160q12 -12 2 -26z" />
<glyph unicode="&#x175;" horiz-adv-x="898" d="M676 0h-143q-42 0 -48 38l-35 199h-2l-34 -199q-6 -38 -48 -38h-143q-21 0 -31.5 9t-16.5 29l-100 320h-50q-15 0 -15 15v104q0 15 15 15h255q15 0 15 -15v-104q0 -15 -15 -15h-33l51 -219h2l57 219h-8q-15 0 -15 15v104q0 15 15 15h200q15 0 15 -15v-104q0 -15 -15 -15 h-7l57 -219h2l49 219h-32q-15 0 -15 15v104q0 15 15 15h255q15 0 15 -15v-104q0 -15 -15 -15h-50l-99 -320q-6 -20 -16.5 -29t-31.5 -9zM642 618l-57 -67q-11 -14 -25 -2l-111 101l-110 -101q-13 -13 -25 2l-57 67q-10 14 2 26l179 162q4 4 11 4t14 -6l177 -160 q12 -12 2 -26z" />
<glyph unicode="&#x176;" horiz-adv-x="723" d="M514 0h-307q-15 0 -15 15v116q0 15 15 15h67v125q-26 32 -201 301h-68q-15 0 -15 15v116q0 15 15 15h318q15 0 15 -15v-116q0 -15 -15 -15h-50l92 -156h5l89 156h-55q-15 0 -15 15v116q0 15 15 15h315q15 0 15 -15v-116q0 -15 -15 -15h-68q-163 -251 -204 -301v-125h67 q15 0 15 -15v-116q0 -15 -15 -15zM488 844l-57 -67q-11 -14 -25 -2l-111 101l-110 -101q-13 -13 -25 2l-57 67q-10 14 2 26l179 162q4 4 11 4t14 -6l177 -160q12 -12 2 -26z" />
<glyph unicode="&#x177;" horiz-adv-x="623" d="M256 -33l11 33h-35q-21 0 -31 8.5t-17 29.5l-109 320h-49q-15 0 -15 15v104q0 15 15 15h239q15 0 15 -15v-104q0 -15 -15 -15h-19l59 -219h2l69 219h-31q-15 0 -15 15v104q0 15 15 15h255q15 0 15 -15v-104q0 -15 -15 -15h-51l-137 -391q-20 -57 -33 -86.5t-35 -61 t-51.5 -44t-71.5 -12.5q-39 0 -73.5 12.5t-47 21.5t-34.5 29q-3 3 -5 4q-15 15 -7 24l64 82q9 10 22 0q1 -1 5.5 -5t6.5 -5.5t6.5 -4.5t8 -4t9 -3t12 -2.5t14.5 -0.5q16 0 27.5 9.5t16 19.5t10.5 27zM497 618l-57 -67q-11 -14 -25 -2l-111 101l-110 -101q-13 -13 -25 2 l-57 67q-10 14 2 26l179 162q4 4 11 4q6 0 14 -6l177 -160q12 -12 2 -26z" />
<glyph unicode="&#x178;" horiz-adv-x="723" d="M514 0h-307q-15 0 -15 15v116q0 15 15 15h67v125q-26 32 -201 301h-68q-15 0 -15 15v116q0 15 15 15h318q15 0 15 -15v-116q0 -15 -15 -15h-50l92 -156h5l89 156h-55q-15 0 -15 15v116q0 15 15 15h315q15 0 15 -15v-116q0 -15 -15 -15h-68q-163 -251 -204 -301v-125h67 q15 0 15 -15v-116q0 -15 -15 -15zM311 853q0 -31 -21.5 -52t-52.5 -21q-30 0 -51 21t-21 52t21 52.5t51 21.5q31 0 52.5 -21.5t21.5 -52.5zM519 853q0 -31 -21.5 -52t-52.5 -21q-30 0 -51 21t-21 52t21 52.5t51 21.5q31 0 52.5 -21.5t21.5 -52.5z" />
<glyph unicode="&#x179;" horiz-adv-x="697" d="M629 0h-561q-8 0 -13 5t-5 13v101q0 21 33 61l328 392h-199v-92q0 -8 -5 -13t-13 -5h-126q-8 0 -13 5t-5 13v220q0 8 5 13t13 5h561q7 0 12.5 -5t5.5 -13v-88q0 -35 -30 -70l-331 -396h199v92q0 8 5.5 13t12.5 5h126q7 0 12.5 -5t5.5 -13v-220q0 -8 -5.5 -13t-12.5 -5z M503 931l-209 -159q-14 -11 -26 3l-58 69q-12 14 2 26l194 176q14 11 26 -3l73 -87q11 -14 -2 -25z" />
<glyph unicode="&#x17a;" horiz-adv-x="566" d="M507 0h-448q-15 0 -15 15v82q0 21 5.5 31.5t20.5 23.5l243 206h-144v-57q0 -15 -15 -15h-95q-15 0 -15 15v176q0 15 15 15h448q15 0 15 -15v-79q0 -32 -29 -58l-236 -206h140v51q0 15 15 15h95q15 0 15 -15v-170q0 -15 -15 -15zM483 705l-209 -159q-14 -11 -26 3l-58 69 q-12 14 2 26l194 176q14 11 26 -3l73 -87q11 -14 -2 -25z" />
<glyph unicode="&#x17b;" horiz-adv-x="697" d="M629 0h-561q-8 0 -13 5t-5 13v101q0 21 33 61l328 392h-199v-92q0 -8 -5 -13t-13 -5h-126q-8 0 -13 5t-5 13v220q0 8 5 13t13 5h561q7 0 12.5 -5t5.5 -13v-88q0 -35 -30 -70l-331 -396h199v92q0 8 5.5 13t12.5 5h126q7 0 12.5 -5t5.5 -13v-220q0 -8 -5.5 -13t-12.5 -5z M420 853q0 -28 -19.5 -47t-47.5 -19t-47 19t-19 47t19 47.5t47 19.5t47.5 -19.5t19.5 -47.5z" />
<glyph unicode="&#x17c;" horiz-adv-x="566" d="M507 0h-448q-15 0 -15 15v82q0 21 5.5 31.5t20.5 23.5l243 206h-144v-57q0 -15 -15 -15h-95q-15 0 -15 15v176q0 15 15 15h448q15 0 15 -15v-79q0 -32 -29 -58l-236 -206h140v51q0 15 15 15h95q15 0 15 -15v-170q0 -15 -15 -15zM342 627q0 -28 -19.5 -47t-47.5 -19 t-47 19t-19 47t19 47.5t47 19.5t47.5 -19.5t19.5 -47.5z" />
<glyph unicode="&#x17d;" horiz-adv-x="697" d="M629 0h-561q-8 0 -13 5t-5 13v101q0 21 33 61l328 392h-199v-92q0 -8 -5 -13t-13 -5h-126q-8 0 -13 5t-5 13v220q0 8 5 13t13 5h561q7 0 12.5 -5t5.5 -13v-88q0 -35 -30 -70l-331 -396h199v92q0 8 5.5 13t12.5 5h126q7 0 12.5 -5t5.5 -13v-220q0 -8 -5.5 -13t-12.5 -5z M543 947l-177 -160q-8 -6 -14 -6q-7 0 -11 4l-179 162q-12 12 -2 26l57 67q10 13 25 2l110 -105l111 105q14 12 25 -2l57 -67q10 -14 -2 -26z" />
<glyph unicode="&#x17e;" horiz-adv-x="566" d="M507 0h-448q-15 0 -15 15v82q0 21 5.5 31.5t20.5 23.5l243 206h-144v-57q0 -15 -15 -15h-95q-15 0 -15 15v176q0 15 15 15h448q15 0 15 -15v-79q0 -32 -29 -58l-236 -206h140v51q0 15 15 15h95q15 0 15 -15v-170q0 -15 -15 -15zM464 721l-177 -160q-7 -6 -14 -6t-11 4 l-179 162q-12 12 -2 26l57 67q10 13 25 2l110 -105l111 105q14 12 25 -2l57 -67q10 -14 -2 -26z" />
<glyph unicode="&#x17f;" horiz-adv-x="390" d="M346 0h-292q-15 0 -15 15v104q0 15 15 15h44v224h-44q-15 0 -15 15v104q0 15 15 15h44v31q0 100 51.5 152t151.5 52q39 0 72.5 -12t50.5 -24t34 -28q3 -4 5 -5q13 -13 5 -22l-60 -79q-10 -11 -22 -2q-28 24 -66 24q-53 0 -53 -56v-389h79q15 0 15 -15v-104q0 -15 -15 -15 z" />
<glyph unicode="&#x192;" horiz-adv-x="628" d="M227 -33v391h-44q-15 0 -15 15v104q0 15 15 15h44v31q0 100 51.5 152t151.5 52q39 0 72.5 -12t50.5 -24t34 -28q3 -4 5 -5q13 -13 5 -22l-60 -79q-10 -11 -22 -2q-28 24 -66 24q-53 0 -53 -56v-31h127q15 0 15 -15v-104q0 -15 -15 -15h-127v-391q0 -100 -51.5 -152 t-151.5 -52q-39 0 -72.5 12t-50.5 24t-34 28q-3 4 -5 5q-13 13 -5 22l60 79q10 11 22 2q28 -24 66 -24q53 0 53 56z" />
<glyph unicode="&#x1fc;" horiz-adv-x="1065" d="M1007 0h-575q-15 0 -15 15v116q0 15 15 15h64v142h-197l-50 -142h64q15 0 15 -15v-116q0 -15 -15 -15h-300q-15 0 -15 15v116q0 15 15 15h64l162 426h-75q-15 0 -15 15v116q0 15 15 15h843q15 0 15 -15v-226q0 -15 -15 -15h-131q-15 0 -15 15v95h-193v-138h156 q15 0 15 -15v-116q0 -15 -15 -15h-156v-142h192v95q0 15 15 15h132q15 0 15 -15v-226q0 -15 -15 -15zM496 434v138h-87l-53 -138h140zM775 931l-209 -159q-14 -11 -26 3l-58 69q-12 14 2 26l194 176q14 11 26 -3l73 -87q11 -14 -2 -25z" />
<glyph unicode="&#x1fd;" horiz-adv-x="861" d="M810 224h-305q9 -45 38.5 -67t71.5 -22q34 0 65 13.5t45 27.5l14 14q12 14 23 1l63 -70q11 -12 2 -24q-6 -9 -19.5 -22t-40.5 -33.5t-71.5 -34.5t-96.5 -14q-67 0 -124.5 25t-93.5 72v-2q-28 -39 -77.5 -67.5t-113.5 -28.5q-77 0 -121.5 40t-44.5 106q0 72 63.5 111 t183.5 39h60v1q0 61 -73 61q-37 0 -65.5 -8t-43 -16t-17.5 -8q-10 0 -15 7l-66 84q-7 10 1 17q3 3 8.5 8t26 17.5t44 22t61.5 17.5t79 8q104 0 163 -49q69 49 152 49q121 0 181.5 -66t60.5 -191q0 -8 -5 -13t-13 -5zM331 168v39h-48q-83 0 -83 -38q0 -37 57 -37q44 0 74 36z M508 308h161q-2 23 -19.5 42t-56.5 19q-72 0 -85 -61zM631 705l-209 -159q-14 -11 -26 3l-58 69q-12 14 2 26l194 176q14 11 26 -3l73 -87q11 -14 -2 -25z" />
<glyph unicode="&#x1fe;" horiz-adv-x="798" d="M399 -7q-25 0 -51 3l-10 -36q-4 -15 -19 -15h-73q-16 0 -11 15l17 61q-99 41 -158 132t-59 210q0 88 32 158.5t84.5 113.5t116 66t131.5 23q30 0 54 -4l13 44q4 15 19 15h73q17 0 11 -15l-20 -70q95 -40 154.5 -124t59.5 -207q0 -169 -103 -269.5t-261 -100.5zM592 942 l-209 -159q-14 -11 -26 3l-58 69q-12 14 2 26l194 176q14 11 26 -3l73 -87q11 -14 -2 -25zM221 360q0 -114 79 -172l107 373h-9q-78 0 -127.5 -55t-49.5 -146zM399 157q77 0 127.5 58.5t50.5 144.5q0 114 -76 169l-107 -372h5z" />
<glyph unicode="&#x1ff;" horiz-adv-x="592" d="M295 -7q-42 0 -85 10l-9 -18q-8 -15 -19 -15h-33q-7 0 -11 4.5t0 10.5l19 37q-61 31 -94 89t-33 136q0 115 73 183.5t193 68.5q50 0 95 -14l5 9q8 15 19 15h33q8 0 11 -4t0 -11l-15 -30q118 -67 118 -217q0 -116 -71.5 -185t-195.5 -69zM514 705l-209 -159q-14 -11 -26 3 l-58 69q-12 14 2 26l194 176q14 11 26 -3l73 -87q11 -14 -2 -25zM201 248q0 -55 27 -85l96 189q-12 4 -28 4q-44 0 -69.5 -29t-25.5 -79zM295 135q45 0 70.5 31t25.5 82q0 44 -20 72l-94 -184q6 -1 18 -1z" />
<glyph unicode="&#x218;" horiz-adv-x="688" d="M186 0h-124q-15 0 -15 15v243q0 15 15 15h144q15 0 15 -15v-12q1 -4 3.5 -10t13 -21.5t25.5 -27.5t43.5 -21.5t64.5 -9.5q35 0 53.5 15t18.5 35q0 26 -39.5 44t-95.5 34t-112 38.5t-95.5 69t-39.5 113.5q0 97 64.5 158t174.5 61q113 0 173 -60l-4 39q-1 15 15 15h124 q15 0 15 -15v-248q0 -15 -15 -15h-144q-15 0 -15 15v16q0 33 -32 61.5t-90 28.5q-41 0 -60.5 -15.5t-19.5 -40.5q0 -26 29.5 -45.5t74 -30.5t96.5 -28t96.5 -38t74 -61.5t29.5 -96.5q0 -88 -60.5 -150t-180.5 -62q-29 0 -56 4.5t-47 12.5t-37.5 17t-29.5 18t-20 17l-12 12 l-5 5l2 -64q1 -15 -15 -15zM332 -289v40q0 7 8 7q17 0 29 10.5t12 27.5l-2 15q-6 -3 -17 -3q-31 0 -52 21t-21 52t21 52.5t52 21.5q38 0 60.5 -28t22.5 -77q0 -145 -105 -145q-8 0 -8 6z" />
<glyph unicode="&#x219;" horiz-adv-x="526" d="M292 -8q-38 0 -73 13t-51 26l-16 13h-2q2 -18 2 -26t-5 -13t-13 -5h-80q-8 0 -13 5t-5 13l1 155q0 7 5.5 12.5t12.5 5.5h94q18 0 18 -17v-3q1 -2 2.5 -5.5t8.5 -12t16.5 -15t26.5 -12t38 -5.5q50 0 50 30q0 13 -26.5 21.5t-64.5 16.5t-75.5 21.5t-64 47t-26.5 83.5 q0 69 47.5 113.5t136.5 44.5q90 0 134 -51h2q-3 20 -3 23q0 18 18 18h73q8 0 13 -5.5t5 -12.5l-1 -157q0 -8 -5.5 -13t-12.5 -5h-94q-7 0 -12.5 5t-5.5 13v5q0 21 -23 35.5t-59 14.5q-47 0 -47 -33q0 -19 28 -29t68 -17t80.5 -20t68.5 -46t28 -85q0 -59 -48 -103t-151 -44z M278 -289v40q0 7 8 7q17 0 29 10.5t12 27.5l-2 15q-6 -3 -17 -3q-31 0 -52 21t-21 52t21 52.5t52 21.5q38 0 60.5 -28t22.5 -77q0 -145 -105 -145q-8 0 -8 6z" />
<glyph unicode="&#x2c6;" horiz-adv-x="443" d="M414 618l-57 -67q-11 -14 -25 -2l-111 101l-110 -101q-13 -13 -25 2l-57 67q-10 14 2 26l179 162q4 4 11 4t14 -6l177 -160q12 -12 2 -26z" />
<glyph unicode="&#x2c7;" horiz-adv-x="443" d="M412 721l-177 -160q-7 -6 -14 -6t-11 4l-179 162q-12 12 -2 26l57 67q10 13 25 2l110 -105l111 105q14 12 25 -2l57 -67q10 -14 -2 -26z" />
<glyph unicode="&#x2d8;" horiz-adv-x="373" d="M258 700h72q8 0 13 -5t5 -13q0 -66 -46 -104.5t-117 -38.5t-115.5 38.5t-44.5 104.5q0 8 5.5 13t12.5 5h72q7 0 12.5 -5t5.5 -13q0 -23 15 -38.5t37 -15.5q25 0 40 15t15 39q0 8 5 13t13 5z" />
<glyph unicode="&#x2d9;" horiz-adv-x="183" d="M158 627q0 -28 -19.5 -47t-47.5 -19t-47 19t-19 47t19 47.5t47 19.5t47.5 -19.5t19.5 -47.5z" />
<glyph unicode="&#x2da;" horiz-adv-x="218" d="M109 546q-35 0 -59.5 25.5t-24.5 60.5t24.5 60.5t59.5 25.5t59.5 -25.5t24.5 -60.5t-24.5 -60.5t-59.5 -25.5zM109 604q11 0 18.5 8.5t7.5 19.5t-7.5 19.5t-18.5 8.5t-18.5 -8.5t-7.5 -19.5t7.5 -19.5t18.5 -8.5z" />
<glyph unicode="&#x2db;" horiz-adv-x="264" d="M222 -98l13 -21q10 -15 -5 -25q-43 -38 -111 -38q-44 0 -69 22.5t-25 61.5q0 45 34 75.5t78 30.5h60q-9 -4 -21.5 -11.5t-33.5 -29.5t-21 -44q0 -28 31 -28q23 0 45 13q16 9 25 -6z" />
<glyph unicode="&#x2dc;" horiz-adv-x="447" d="M351 720h56q15 0 15 -15q0 -72 -29 -112.5t-89 -40.5q-37 0 -65.5 17t-49 34t-39.5 17q-20 0 -29.5 -11.5t-9.5 -47.5q0 -15 -15 -15h-56q-15 0 -15 15q0 70 29.5 111t88.5 41q38 0 66.5 -18.5t48.5 -37t39 -18.5t29 14t10 52q0 15 15 15z" />
<glyph unicode="&#x2dd;" horiz-adv-x="598" d="M323 731l-209 -159q-14 -11 -26 3l-58 69q-12 14 2 26l194 176q12 12 26 -3l73 -87q11 -14 -2 -25zM567 731l-209 -159q-14 -11 -26 3l-58 69q-12 14 2 26l194 176q12 12 26 -3l73 -87q11 -14 -2 -25z" />
<glyph unicode="&#x1e80;" horiz-adv-x="1038" d="M750 0h-66q-36 0 -55 15t-28 52l-80 342h-7l-77 -342q-9 -37 -28 -52t-55 -15h-66q-36 0 -54.5 14.5t-28.5 52.5l-139 505h-55q-15 0 -15 15v116q0 15 15 15h305q15 0 15 -15v-116q0 -15 -15 -15h-63l63 -336h10l113 482h158l115 -482h10l63 336h-63q-15 0 -15 15v116 q0 15 15 15h305q15 0 15 -15v-116q0 -15 -15 -15h-56l-138 -505q-10 -38 -28.5 -52.5t-54.5 -14.5zM667 845l-58 -69q-12 -14 -26 -3l-209 159q-13 11 -2 25l73 87q14 15 26 3l194 -176q14 -12 2 -26z" />
<glyph unicode="&#x1e81;" horiz-adv-x="898" d="M676 0h-143q-42 0 -48 38l-35 199h-2l-34 -199q-6 -38 -48 -38h-143q-21 0 -31.5 9t-16.5 29l-100 320h-50q-15 0 -15 15v104q0 15 15 15h255q15 0 15 -15v-104q0 -15 -15 -15h-33l51 -219h2l57 219h-8q-15 0 -15 15v104q0 15 15 15h200q15 0 15 -15v-104q0 -15 -15 -15 h-7l57 -219h2l49 219h-32q-15 0 -15 15v104q0 15 15 15h255q15 0 15 -15v-104q0 -15 -15 -15h-50l-99 -320q-6 -20 -16.5 -29t-31.5 -9zM501 619l-58 -69q-12 -14 -26 -3l-209 159q-13 11 -2 25l73 87q14 15 26 3l194 -176q14 -12 2 -26z" />
<glyph unicode="&#x1e82;" horiz-adv-x="1038" d="M750 0h-66q-36 0 -55 15t-28 52l-80 342h-7l-77 -342q-9 -37 -28 -52t-55 -15h-66q-36 0 -54.5 14.5t-28.5 52.5l-139 505h-55q-15 0 -15 15v116q0 15 15 15h305q15 0 15 -15v-116q0 -15 -15 -15h-63l63 -336h10l113 482h158l115 -482h10l63 336h-63q-15 0 -15 15v116 q0 15 15 15h305q15 0 15 -15v-116q0 -15 -15 -15h-56l-138 -505q-10 -38 -28.5 -52.5t-54.5 -14.5zM666 931l-209 -159q-14 -11 -26 3l-58 69q-12 14 2 26l194 176q14 11 26 -3l73 -87q11 -14 -2 -25z" />
<glyph unicode="&#x1e83;" horiz-adv-x="898" d="M676 0h-143q-42 0 -48 38l-35 199h-2l-34 -199q-6 -38 -48 -38h-143q-21 0 -31.5 9t-16.5 29l-100 320h-50q-15 0 -15 15v104q0 15 15 15h255q15 0 15 -15v-104q0 -15 -15 -15h-33l51 -219h2l57 219h-8q-15 0 -15 15v104q0 15 15 15h200q15 0 15 -15v-104q0 -15 -15 -15 h-7l57 -219h2l49 219h-32q-15 0 -15 15v104q0 15 15 15h255q15 0 15 -15v-104q0 -15 -15 -15h-50l-99 -320q-6 -20 -16.5 -29t-31.5 -9zM657 705l-209 -159q-14 -11 -26 3l-58 69q-12 14 2 26l194 176q14 11 26 -3l73 -87q11 -14 -2 -25z" />
<glyph unicode="&#x1e84;" horiz-adv-x="1038" d="M750 0h-66q-36 0 -55 15t-28 52l-80 342h-7l-77 -342q-9 -37 -28 -52t-55 -15h-66q-36 0 -54.5 14.5t-28.5 52.5l-139 505h-55q-15 0 -15 15v116q0 15 15 15h305q15 0 15 -15v-116q0 -15 -15 -15h-63l63 -336h10l113 482h158l115 -482h10l63 336h-63q-15 0 -15 15v116 q0 15 15 15h305q15 0 15 -15v-116q0 -15 -15 -15h-56l-138 -505q-10 -38 -28.5 -52.5t-54.5 -14.5zM480 853q0 -31 -21.5 -52t-52.5 -21q-30 0 -51 21t-21 52t21 52.5t51 21.5q31 0 52.5 -21.5t21.5 -52.5zM688 853q0 -31 -21.5 -52t-52.5 -21q-30 0 -51 21t-21 52t21 52.5 t51 21.5q31 0 52.5 -21.5t21.5 -52.5z" />
<glyph unicode="&#x1e85;" horiz-adv-x="898" d="M676 0h-143q-42 0 -48 38l-35 199h-2l-34 -199q-6 -38 -48 -38h-143q-21 0 -31.5 9t-16.5 29l-100 320h-50q-15 0 -15 15v104q0 15 15 15h255q15 0 15 -15v-104q0 -15 -15 -15h-33l51 -219h2l57 219h-8q-15 0 -15 15v104q0 15 15 15h200q15 0 15 -15v-104q0 -15 -15 -15 h-7l57 -219h2l49 219h-32q-15 0 -15 15v104q0 15 15 15h255q15 0 15 -15v-104q0 -15 -15 -15h-50l-99 -320q-6 -20 -16.5 -29t-31.5 -9zM424 627q0 -31 -21.5 -52t-52.5 -21q-30 0 -51 21t-21 52t21 52.5t51 21.5q31 0 52.5 -21.5t21.5 -52.5zM632 627q0 -31 -21.5 -52 t-52.5 -21q-30 0 -51 21t-21 52t21 52.5t51 21.5q31 0 52.5 -21.5t21.5 -52.5z" />
<glyph unicode="&#x1ef2;" horiz-adv-x="723" d="M514 0h-307q-15 0 -15 15v116q0 15 15 15h67v125q-26 32 -201 301h-68q-15 0 -15 15v116q0 15 15 15h318q15 0 15 -15v-116q0 -15 -15 -15h-50l92 -156h5l89 156h-55q-15 0 -15 15v116q0 15 15 15h315q15 0 15 -15v-116q0 -15 -15 -15h-68q-163 -251 -204 -301v-125h67 q15 0 15 -15v-116q0 -15 -15 -15zM499 845l-58 -69q-12 -14 -26 -3l-209 159q-13 11 -2 25l73 87q14 15 26 3l194 -176q14 -12 2 -26z" />
<glyph unicode="&#x1ef3;" horiz-adv-x="623" d="M256 -33l11 33h-35q-21 0 -31 8.5t-17 29.5l-109 320h-49q-15 0 -15 15v104q0 15 15 15h239q15 0 15 -15v-104q0 -15 -15 -15h-19l59 -219h2l69 219h-31q-15 0 -15 15v104q0 15 15 15h255q15 0 15 -15v-104q0 -15 -15 -15h-51l-137 -391q-20 -57 -33 -86.5t-35 -61 t-51.5 -44t-71.5 -12.5q-39 0 -73.5 12.5t-47 21.5t-34.5 29q-3 3 -5 4q-15 15 -7 24l64 82q9 10 22 0q1 -1 5.5 -5t6.5 -5.5t6.5 -4.5t8 -4t9 -3t12 -2.5t14.5 -0.5q16 0 27.5 9.5t16 19.5t10.5 27zM400 619l-58 -69q-12 -14 -26 -3l-209 159q-13 11 -2 25l73 87 q14 15 26 3l194 -176q14 -12 2 -26z" />
<glyph unicode="&#x2013;" horiz-adv-x="642" d="M564 187h-486q-8 0 -13 5.5t-5 12.5v122q0 7 5 12.5t13 5.5h486q8 0 13 -5.5t5 -12.5v-122q0 -7 -5 -12.5t-13 -5.5z" />
<glyph unicode="&#x2014;" horiz-adv-x="963" d="M885 187h-807q-8 0 -13 5.5t-5 12.5v122q0 7 5 12.5t13 5.5h807q7 0 12.5 -5.5t5.5 -12.5v-122q0 -7 -5.5 -12.5t-12.5 -5.5z" />
<glyph unicode="&#x2018;" horiz-adv-x="228" d="M148 838v-40q0 -7 -8 -7q-17 0 -29 -10.5t-12 -27.5l2 -15q6 3 17 3q31 0 52 -21t21 -52t-21 -52.5t-52 -21.5q-38 0 -60.5 28t-22.5 77q0 145 105 145q8 0 8 -6z" />
<glyph unicode="&#x2019;" horiz-adv-x="237" d="M81 499v40q0 7 8 7q17 0 29 10.5t12 27.5l-2 15q-6 -3 -17 -3q-31 0 -52 21t-21 52t21 52.5t52 21.5q38 0 60.5 -28t22.5 -77q0 -145 -105 -145q-8 0 -8 6z" />
<glyph unicode="&#x201a;" horiz-adv-x="255" d="M93 -105v40q0 7 8 7q17 0 29 10.5t12 27.5l-2 15q-6 -3 -17 -3q-31 0 -52 21t-21 52t21 52.5t52 21.5q38 0 60.5 -28t22.5 -77q0 -145 -105 -145q-8 0 -8 6z" />
<glyph unicode="&#x201c;" horiz-adv-x="421" d="M341 838v-40q0 -7 -8 -7q-17 0 -29 -10.5t-12 -27.5l2 -15q6 3 17 3q31 0 52 -21t21 -52t-21 -52.5t-52 -21.5q-38 0 -60.5 28t-22.5 77q0 145 105 145q8 0 8 -6zM148 838v-40q0 -7 -8 -7q-17 0 -29 -10.5t-12 -27.5l2 -15q6 3 17 3q31 0 52 -21t21 -52t-21 -52.5 t-52 -21.5q-38 0 -60.5 28t-22.5 77q0 145 105 145q8 0 8 -6z" />
<glyph unicode="&#x201d;" horiz-adv-x="430" d="M81 499v40q0 7 8 7q17 0 29 10.5t12 27.5l-2 15q-6 -3 -17 -3q-31 0 -52 21t-21 52t21 52.5t52 21.5q38 0 60.5 -28t22.5 -77q0 -145 -105 -145q-8 0 -8 6zM274 499v40q0 7 8 7q17 0 29 10.5t12 27.5l-2 15q-6 -3 -17 -3q-31 0 -52 21t-21 52t21 52.5t52 21.5 q38 0 60.5 -28t22.5 -77q0 -145 -105 -145q-8 0 -8 6z" />
<glyph unicode="&#x201e;" horiz-adv-x="448" d="M93 -105v40q0 7 8 7q17 0 29 10.5t12 27.5l-2 15q-6 -3 -17 -3q-31 0 -52 21t-21 52t21 52.5t52 21.5q38 0 60.5 -28t22.5 -77q0 -145 -105 -145q-8 0 -8 6zM286 -105v40q0 7 8 7q17 0 29 10.5t12 27.5l-2 15q-6 -3 -17 -3q-31 0 -52 21t-21 52t21 52.5t52 21.5 q38 0 60.5 -28t22.5 -77q0 -145 -105 -145q-8 0 -8 6z" />
<glyph unicode="&#x2020;" horiz-adv-x="582" d="M350 -131h-108q-15 0 -15 15l-15 531h-164q-8 0 -13 5.5t-5 12.5v122q0 7 5 12.5t13 5.5h164v172q0 15 15 15h138q15 0 15 -15v-172h154q8 0 13 -5.5t5 -12.5v-122q0 -7 -5 -12.5t-13 -5.5h-154l-15 -531q0 -15 -15 -15z" />
<glyph unicode="&#x2021;" horiz-adv-x="608" d="M547 72h-164l-5 -188q0 -15 -15 -15h-108q-15 0 -15 15l-6 188h-173q-7 0 -12.5 5t-5.5 13v122q0 8 5.5 13t12.5 5h169l-5 185h-164q-7 0 -12.5 5.5t-5.5 12.5v122q0 7 5.5 12.5t12.5 5.5h164v172q0 15 15 15h138q15 0 15 -15v-172h154q7 0 12.5 -5.5t5.5 -12.5v-122 q0 -7 -5.5 -12.5t-12.5 -5.5h-154l-5 -185h159q7 0 12.5 -5t5.5 -13v-122q0 -8 -5.5 -13t-12.5 -5z" />
<glyph unicode="&#x2022;" horiz-adv-x="342" d="M171 239q-44 0 -68.5 25.5t-24.5 70.5q0 44 24.5 70.5t68.5 26.5q42 0 68 -27t26 -70q0 -44 -25.5 -70t-68.5 -26z" />
<glyph unicode="&#x2026;" horiz-adv-x="588" d="M197 65q0 -31 -21.5 -52t-52.5 -21t-52 21t-21 52t21 52.5t52 21.5t52.5 -21.5t21.5 -52.5zM369 65q0 -31 -21.5 -52t-52.5 -21t-52 21t-21 52t21 52.5t52 21.5t52.5 -21.5t21.5 -52.5zM538 65q0 -31 -21.5 -52t-52.5 -21t-52 21t-21 52t21 52.5t52 21.5t52.5 -21.5 t21.5 -52.5z" />
<glyph unicode="&#x2030;" horiz-adv-x="1209" d="M191 359q-72 0 -116 47t-44 138q0 89 45.5 134.5t114.5 45.5t113 -45.5t44 -134.5q0 -91 -42.5 -138t-114.5 -47zM191 460q49 0 49 82q0 83 -49 83q-52 0 -52 -83q0 -82 52 -82zM670 -7q-72 0 -116 47t-44 138q0 89 45.5 134.5t114.5 45.5t113 -45.5t44 -134.5 q0 -91 -42.5 -138t-114.5 -47zM670 94q49 0 49 82q0 83 -49 83q-52 0 -52 -83q0 -82 52 -82zM347 -74h-93q-16 0 -11 15l231 804q4 15 19 15h93q17 0 11 -15l-231 -804q-4 -15 -19 -15zM1021 -7q-72 0 -116 47t-44 138q0 89 45.5 134.5t114.5 45.5t113 -45.5t44 -134.5 q0 -91 -42.5 -138t-114.5 -47zM1021 94q49 0 49 82q0 83 -49 83q-52 0 -52 -83q0 -82 52 -82z" />
<glyph unicode="&#x2044;" horiz-adv-x="388" d="M142 -74h-138q-16 0 -11 15l231 804q4 15 19 15h138q15 0 11 -15l-231 -804q-4 -15 -19 -15z" />
<glyph unicode="&#x2070;" horiz-adv-x="402" d="M202 359q-72 0 -116 47t-44 138q0 89 45.5 134.5t114.5 45.5t113 -45.5t44 -134.5q0 -91 -42.5 -138t-114.5 -47zM202 460q49 0 49 82q0 83 -49 83q-52 0 -52 -83q0 -82 52 -82z" />
<glyph unicode="&#x20ac;" horiz-adv-x="728" d="M546 373h-260v-14q0 -15 1 -22h193q15 0 15 -15v-80q0 -15 -15 -15h-150q53 -69 139 -69q37 0 66 9t39 17l11 9q12 11 21 -2l83 -99q9 -12 -3 -21q-3 -3 -9.5 -8.5t-29 -19t-46.5 -24t-62 -19t-77 -8.5q-120 0 -213.5 62t-129.5 173h-67q-15 0 -15 15v80q0 15 15 15h48 v17v19h-48q-15 0 -15 15v80q0 15 15 15h66q36 114 129.5 177.5t214.5 63.5q62 0 118 -20t81 -40l25 -19q10 -10 3 -21l-83 -99q-9 -13 -21 -2q-4 4 -11.5 10.5t-37.5 17t-67 10.5q-90 -2 -146 -78h223q15 0 15 -15v-80q0 -15 -15 -15z" />
<glyph unicode="&#x2122;" horiz-adv-x="1101" d="M358 289h-190q-10 0 -10 10v78q0 11 10 11h37v230h-48v-62q0 -10 -11 -10h-78q-11 0 -11 10v152q0 10 11 10h387q11 0 11 -10v-152q0 -10 -11 -10h-79q-10 0 -10 10v62h-45v-230h37q11 0 11 -11v-78q0 -10 -11 -10zM1027 289h-175q-9 0 -9 9v81q0 9 9 9h21v138h-2 l-62 -176q-11 -29 -43 -29q-31 0 -42 29l-62 176h-2v-138h21q9 0 9 -9v-81q0 -9 -9 -9h-176q-9 0 -9 9v81q0 9 9 9h38v230h-38q-9 0 -9 9v82q0 9 9 9h141q31 0 43 -33l49 -126l27 -74h3q12 34 28 74l50 126q12 33 43 33h138q9 0 9 -9v-82q0 -9 -9 -9h-38v-230h38q9 0 9 -9 v-81q0 -9 -9 -9z" />
<glyph unicode="&#x2126;" horiz-adv-x="814" d="M753 0h-292q-15 0 -15 15v247q0 10 9 10q54 0 91.5 42t37.5 96q0 69 -49.5 110t-127.5 41t-127.5 -41t-49.5 -110q0 -54 37.5 -96t91.5 -42q9 0 9 -10v-247q0 -15 -15 -15h-292q-15 0 -15 15v104q0 15 15 15h185v37q-91 28 -146.5 92.5t-55.5 149.5q0 76 31.5 137t84 98 t115.5 56.5t131 19.5t131.5 -19t116 -56t84.5 -98t32 -138q0 -85 -55.5 -149.5t-146.5 -92.5v-37h185q15 0 15 -15v-104q0 -15 -15 -15z" />
<glyph unicode="&#x2153;" horiz-adv-x="791" d="M311 -74h-93q-16 0 -11 15l231 804q4 15 19 15h93q17 0 11 -15l-231 -804q-4 -15 -19 -15zM614 -3q-13 0 -25 1.5t-21 3t-19 5.5t-16 6t-14 7.5t-11.5 8t-10.5 9t-8.5 8t-7.5 8.5l-6 7q-7 5 0 10l53 49q6 4 10 -1q35 -35 76 -35q48 0 48 30q0 28 -47 28h-31q-7 0 -7 7v54 q0 8 7 8h20q48 0 48 33q0 32 -38 32q-40 0 -40 -33q0 -8 -7 -8h-74q-8 0 -8 8q0 119 130 119q67 0 101.5 -32t34.5 -69q0 -28 -12.5 -48t-24.5 -27l-12 -6l6 -2q6 -3 14 -8.5t16 -14t14 -23.5t6 -34q0 -44 -40 -72.5t-104 -28.5zM285 362h-230q-8 0 -8 7v66q0 7 8 7h75v177 l-50 -34q-6 -4 -10 2l-37 53q-4 5 2 10l100 69q2 2 9 2h76q7 0 7 -8v-271h58q8 0 8 -7v-66q0 -7 -8 -7z" />
<glyph unicode="&#x2202;" horiz-adv-x="642" d="M314 452q67 0 113 -23q-4 153 -102 153q-73 0 -77 -35q-1 -15 -17 -15h-122q-13 0 -13 13q0 74 61.5 126.5t180.5 52.5q114 0 187.5 -78.5t73.5 -230.5q0 -206 -88.5 -314t-240.5 -108q-119 0 -181.5 63t-62.5 160q0 106 70.5 171t217.5 65zM278 135q120 0 143 176 q-49 19 -89 19q-72 0 -103 -33.5t-31 -78.5q0 -39 20.5 -61t59.5 -22z" />
<glyph unicode="&#x2212;" horiz-adv-x="501" d="M420 187h-339q-7 0 -12.5 5.5t-5.5 12.5v122q0 7 5.5 12.5t12.5 5.5h339q8 0 13 -5.5t5 -12.5v-122q0 -7 -5 -12.5t-13 -5.5z" />
<glyph unicode="&#x222b;" horiz-adv-x="535" d="M183 523q0 100 51.5 152t151.5 52q39 0 72.5 -12t50.5 -24t34 -28q3 -4 5 -5q13 -13 5 -22l-60 -79q-10 -11 -22 -2q-28 24 -66 24q-53 0 -53 -56v-556q0 -100 -51.5 -152t-151.5 -52q-39 0 -72.5 12t-50.5 24t-34 28q-3 4 -5 5q-13 13 -5 22l60 79q10 11 22 2 q28 -24 66 -24q53 0 53 56v556z" />
<glyph unicode="&#x2248;" horiz-adv-x="528" d="M391 483h56q15 0 15 -15q0 -72 -29 -112.5t-89 -40.5q-37 0 -65.5 19.5t-49 38.5t-39.5 19q-39 0 -39 -68q0 -15 -15 -15h-56q-15 0 -15 15q0 70 29.5 111t88.5 41q30 0 54.5 -12t38 -26t29.5 -26.5t32 -12.5q39 0 39 69q0 15 15 15zM391 307h56q15 0 15 -15 q0 -72 -29 -112.5t-89 -40.5q-37 0 -65.5 19.5t-49 38.5t-39.5 19q-39 0 -39 -68q0 -15 -15 -15h-56q-15 0 -15 15q0 70 29.5 111t88.5 41q30 0 54.5 -12t38 -26t29.5 -26.5t32 -12.5q39 0 39 69q0 15 15 15z" />
<glyph unicode="&#x2260;" horiz-adv-x="518" d="M440 64h-207l-5 -19q-4 -15 -19 -15h-82q-15 0 -11 15l5 19h-46q-7 0 -12.5 5t-5.5 13v122q0 8 5.5 13t12.5 5h93l22 75h-115q-7 0 -12.5 5.5t-5.5 12.5v122q0 7 5.5 12.5t12.5 5.5h162l9 29q4 15 19 15h82q16 0 11 -15l-9 -29h91q8 0 13 -5.5t5 -12.5v-122 q0 -7 -5 -12.5t-13 -5.5h-138l-22 -75h160q8 0 13 -5t5 -13v-122q0 -8 -5 -13t-13 -5z" />
<glyph unicode="&#xe000;" horiz-adv-x="490" d="M0 490h490v-490h-490v490z" />
<glyph unicode="&#xf6c3;" horiz-adv-x="206" d="M68 -289v40q0 7 8 7q17 0 29 10.5t12 27.5l-2 15q-6 -3 -17 -3q-31 0 -52 21t-21 52t21 52.5t52 21.5q38 0 60.5 -28t22.5 -77q0 -145 -105 -145q-8 0 -8 6z" />
<glyph horiz-adv-x="628" d="M586 0h-139q-49 0 -49 49v30h-3q-4 -11 -12 -22.5t-23.5 -27.5t-43 -26t-62.5 -10q-103 0 -163 69t-60 181q0 123 62.5 190t162.5 67q42 0 76 -14t46 -28l13 -13h2v31q0 15 15 15h118q15 0 15 -15v-342h45q15 0 15 -15v-104q0 -15 -15 -15zM290 134q37 0 63 27t26 82 q0 56 -24.5 84.5t-64.5 28.5q-44 0 -68.5 -31t-24.5 -83q0 -50 25.5 -79t67.5 -29z" />
<glyph horiz-adv-x="628" d="M479 705l-209 -159q-14 -11 -26 3l-58 69q-12 14 2 26l194 176q14 11 26 -3l73 -87q11 -14 -2 -25zM586 0h-139q-49 0 -49 49v30h-3q-4 -11 -12 -22.5t-23.5 -27.5t-43 -26t-62.5 -10q-103 0 -163 69t-60 181q0 123 62.5 190t162.5 67q42 0 76 -14t46 -28l13 -13h2v31 q0 15 15 15h118q15 0 15 -15v-342h45q15 0 15 -15v-104q0 -15 -15 -15zM290 134q37 0 63 27t26 82q0 56 -24.5 84.5t-64.5 28.5q-44 0 -68.5 -31t-24.5 -83q0 -50 25.5 -79t67.5 -29z" />
<glyph horiz-adv-x="628" d="M389 700h72q7 0 12.5 -5t5.5 -13q0 -66 -46 -104.5t-117 -38.5t-115.5 38.5t-44.5 104.5q0 8 5 13t13 5h72q8 0 13 -5t5 -13q0 -23 15 -38.5t37 -15.5q24 0 39.5 15t15.5 39q0 8 5.5 13t12.5 5zM586 0h-139q-49 0 -49 49v30h-3q-4 -11 -12 -22.5t-23.5 -27.5t-43 -26 t-62.5 -10q-103 0 -163 69t-60 181q0 123 62.5 190t162.5 67q42 0 76 -14t46 -28l13 -13h2v31q0 15 15 15h118q15 0 15 -15v-342h45q15 0 15 -15v-104q0 -15 -15 -15zM290 134q37 0 63 27t26 82q0 56 -24.5 84.5t-64.5 28.5q-44 0 -68.5 -31t-24.5 -83q0 -50 25.5 -79 t67.5 -29z" />
<glyph horiz-adv-x="628" d="M521 618l-57 -67q-11 -14 -25 -2l-111 101l-110 -101q-13 -13 -25 2l-57 67q-10 14 2 26l179 162q4 4 11 4q6 0 14 -6l177 -160q12 -12 2 -26zM586 0h-139q-49 0 -49 49v30h-3q-4 -11 -12 -22.5t-23.5 -27.5t-43 -26t-62.5 -10q-103 0 -163 69t-60 181q0 123 62.5 190 t162.5 67q42 0 76 -14t46 -28l13 -13h2v31q0 15 15 15h118q15 0 15 -15v-342h45q15 0 15 -15v-104q0 -15 -15 -15zM290 134q37 0 63 27t26 82q0 56 -24.5 84.5t-64.5 28.5q-44 0 -68.5 -31t-24.5 -83q0 -50 25.5 -79t67.5 -29z" />
<glyph horiz-adv-x="628" d="M301 627q0 -31 -21.5 -52t-52.5 -21q-30 0 -51 21t-21 52t21 52.5t51 21.5q31 0 52.5 -21.5t21.5 -52.5zM509 627q0 -31 -21.5 -52t-52.5 -21q-30 0 -51 21t-21 52t21 52.5t51 21.5q31 0 52.5 -21.5t21.5 -52.5zM586 0h-139q-49 0 -49 49v30h-3q-4 -11 -12 -22.5 t-23.5 -27.5t-43 -26t-62.5 -10q-103 0 -163 69t-60 181q0 123 62.5 190t162.5 67q42 0 76 -14t46 -28l13 -13h2v31q0 15 15 15h118q15 0 15 -15v-342h45q15 0 15 -15v-104q0 -15 -15 -15zM290 134q37 0 63 27t26 82q0 56 -24.5 84.5t-64.5 28.5q-44 0 -68.5 -31t-24.5 -83 q0 -50 25.5 -79t67.5 -29z" />
<glyph horiz-adv-x="628" d="M423 619l-58 -69q-12 -14 -26 -3l-209 159q-13 11 -2 25l73 87q14 15 26 3l194 -176q14 -12 2 -26zM586 0h-139q-49 0 -49 49v30h-3q-4 -11 -12 -22.5t-23.5 -27.5t-43 -26t-62.5 -10q-103 0 -163 69t-60 181q0 123 62.5 190t162.5 67q42 0 76 -14t46 -28l13 -13h2v31 q0 15 15 15h118q15 0 15 -15v-342h45q15 0 15 -15v-104q0 -15 -15 -15zM290 134q37 0 63 27t26 82q0 56 -24.5 84.5t-64.5 28.5q-44 0 -68.5 -31t-24.5 -83q0 -50 25.5 -79t67.5 -29z" />
<glyph horiz-adv-x="628" d="M465 548h-329q-8 0 -13 5t-5 13v97q0 7 5 12.5t13 5.5h329q7 0 12.5 -5.5t5.5 -12.5v-97q0 -8 -5.5 -13t-12.5 -5zM586 0h-139q-49 0 -49 49v30h-3q-4 -11 -12 -22.5t-23.5 -27.5t-43 -26t-62.5 -10q-103 0 -163 69t-60 181q0 123 62.5 190t162.5 67q42 0 76 -14t46 -28 l13 -13h2v31q0 15 15 15h118q15 0 15 -15v-342h45q15 0 15 -15v-104q0 -15 -15 -15zM290 134q37 0 63 27t26 82q0 56 -24.5 84.5t-64.5 28.5q-44 0 -68.5 -31t-24.5 -83q0 -50 25.5 -79t67.5 -29z" />
<glyph horiz-adv-x="628" d="M605 -98l13 -21q10 -15 -5 -25q-43 -38 -111 -38q-44 0 -69 22.5t-25 61.5q0 34 20 60t51 38h-32q-49 0 -49 49v30h-3q-4 -11 -12 -22.5t-23.5 -27.5t-43 -26t-62.5 -10q-103 0 -163 69t-60 181q0 123 62.5 190t162.5 67q42 0 76 -14t46 -28l13 -13h2v31q0 15 15 15h118 q15 0 15 -15v-342h45q15 0 15 -15v-104q0 -15 -15 -15h-21q-61 -36 -61 -77q0 -28 31 -28q23 0 45 13q16 9 25 -6zM290 134q37 0 63 27t26 82q0 56 -24.5 84.5t-64.5 28.5q-44 0 -68.5 -31t-24.5 -83q0 -50 25.5 -79t67.5 -29z" />
<glyph horiz-adv-x="628" d="M302 546q-35 0 -59.5 25.5t-24.5 60.5t24.5 60.5t59.5 25.5t59.5 -25.5t24.5 -60.5t-24.5 -60.5t-59.5 -25.5zM302 604q11 0 18.5 8.5t7.5 19.5t-7.5 19.5t-18.5 8.5t-18.5 -8.5t-7.5 -19.5t7.5 -19.5t18.5 -8.5zM586 0h-139q-49 0 -49 49v30h-3q-4 -11 -12 -22.5 t-23.5 -27.5t-43 -26t-62.5 -10q-103 0 -163 69t-60 181q0 123 62.5 190t162.5 67q42 0 76 -14t46 -28l13 -13h2v31q0 15 15 15h118q15 0 15 -15v-342h45q15 0 15 -15v-104q0 -15 -15 -15zM290 134q37 0 63 27t26 82q0 56 -24.5 84.5t-64.5 28.5q-44 0 -68.5 -31t-24.5 -83 q0 -50 25.5 -79t67.5 -29z" />
<glyph horiz-adv-x="628" d="M448 720h56q15 0 15 -15q0 -72 -29 -112.5t-89 -40.5q-37 0 -65.5 17t-49 34t-39.5 17q-20 0 -29.5 -11.5t-9.5 -47.5q0 -15 -15 -15h-56q-15 0 -15 15q0 70 29.5 111t88.5 41q38 0 66.5 -18.5t48.5 -37t39 -18.5t29 14t10 52q0 15 15 15zM586 0h-139q-49 0 -49 49v30h-3 q-4 -11 -12 -22.5t-23.5 -27.5t-43 -26t-62.5 -10q-103 0 -163 69t-60 181q0 123 62.5 190t162.5 67q42 0 76 -14t46 -28l13 -13h2v31q0 15 15 15h118q15 0 15 -15v-342h45q15 0 15 -15v-104q0 -15 -15 -15zM290 134q37 0 63 27t26 82q0 56 -24.5 84.5t-64.5 28.5 q-44 0 -68.5 -31t-24.5 -83q0 -50 25.5 -79t67.5 -29z" />
<glyph horiz-adv-x="596" d="M531 477l1 -477q0 -116 -77.5 -176.5t-196.5 -60.5q-44 0 -81 8.5t-66.5 25.5t-39 23.5t-27.5 21.5q-14 12 -6 23l61 89q7 12 22 1q2 -1 9 -6.5t9.5 -7.5t9.5 -6.5t11.5 -6.5t12.5 -5.5t15 -5t17 -3.5t21 -2.5t24 -0.5q62 0 99.5 23t37.5 66v77h-3q-1 -3 -2.5 -9 t-11 -20.5t-22 -25.5t-38 -20t-57.5 -9q-79 0 -126 49.5t-48 127.5l-2 188h-45q-15 0 -15 15v104q0 15 15 15h164q49 0 49 -49v-214q0 -44 12 -65.5t50 -21.5q30 0 43 17.5t13 30.5v168h-36q-15 0 -15 15v104q0 15 15 15h189q15 0 15 -15z" />
<glyph horiz-adv-x="596" d="M531 477l1 -477q0 -116 -77.5 -176.5t-196.5 -60.5q-44 0 -81 8.5t-66.5 25.5t-39 23.5t-27.5 21.5q-14 12 -6 23l61 89q7 12 22 1q2 -1 9 -6.5t9.5 -7.5t9.5 -6.5t11.5 -6.5t12.5 -5.5t15 -5t17 -3.5t21 -2.5t24 -0.5q62 0 99.5 23t37.5 66v77h-3q-1 -3 -2.5 -9 t-11 -20.5t-22 -25.5t-38 -20t-57.5 -9q-79 0 -126 49.5t-48 127.5l-2 188h-45q-15 0 -15 15v104q0 15 15 15h164q49 0 49 -49v-214q0 -44 12 -65.5t50 -21.5q30 0 43 17.5t13 30.5v168h-36q-15 0 -15 15v104q0 15 15 15h189q15 0 15 -15zM441 705l-209 -159q-14 -11 -26 3 l-58 69q-12 14 2 26l194 176q14 11 26 -3l73 -87q11 -14 -2 -25z" />
<glyph horiz-adv-x="596" d="M531 477l1 -477q0 -116 -77.5 -176.5t-196.5 -60.5q-44 0 -81 8.5t-66.5 25.5t-39 23.5t-27.5 21.5q-14 12 -6 23l61 89q7 12 22 1q2 -1 9 -6.5t9.5 -7.5t9.5 -6.5t11.5 -6.5t12.5 -5.5t15 -5t17 -3.5t21 -2.5t24 -0.5q62 0 99.5 23t37.5 66v77h-3q-1 -3 -2.5 -9 t-11 -20.5t-22 -25.5t-38 -20t-57.5 -9q-79 0 -126 49.5t-48 127.5l-2 188h-45q-15 0 -15 15v104q0 15 15 15h164q49 0 49 -49v-214q0 -44 12 -65.5t50 -21.5q30 0 43 17.5t13 30.5v168h-36q-15 0 -15 15v104q0 15 15 15h189q15 0 15 -15zM472 618l-57 -67q-11 -14 -25 -2 l-111 101l-110 -101q-13 -13 -25 2l-57 67q-10 14 2 26l179 162q4 4 11 4t14 -6l177 -160q12 -12 2 -26z" />
<glyph horiz-adv-x="596" d="M531 477l1 -477q0 -116 -77.5 -176.5t-196.5 -60.5q-44 0 -81 8.5t-66.5 25.5t-39 23.5t-27.5 21.5q-14 12 -6 23l61 89q7 12 22 1q2 -1 9 -6.5t9.5 -7.5t9.5 -6.5t11.5 -6.5t12.5 -5.5t15 -5t17 -3.5t21 -2.5t24 -0.5q62 0 99.5 23t37.5 66v77h-3q-1 -3 -2.5 -9 t-11 -20.5t-22 -25.5t-38 -20t-57.5 -9q-79 0 -126 49.5t-48 127.5l-2 188h-45q-15 0 -15 15v104q0 15 15 15h164q49 0 49 -49v-214q0 -44 12 -65.5t50 -21.5q30 0 43 17.5t13 30.5v168h-36q-15 0 -15 15v104q0 15 15 15h189q15 0 15 -15zM254 627q0 -31 -21.5 -52 t-52.5 -21q-30 0 -51 21t-21 52t21 52.5t51 21.5q31 0 52.5 -21.5t21.5 -52.5zM462 627q0 -31 -21.5 -52t-52.5 -21q-30 0 -51 21t-21 52t21 52.5t51 21.5q31 0 52.5 -21.5t21.5 -52.5z" />
<glyph horiz-adv-x="596" d="M531 477l1 -477q0 -116 -77.5 -176.5t-196.5 -60.5q-44 0 -81 8.5t-66.5 25.5t-39 23.5t-27.5 21.5q-14 12 -6 23l61 89q7 12 22 1q2 -1 9 -6.5t9.5 -7.5t9.5 -6.5t11.5 -6.5t12.5 -5.5t15 -5t17 -3.5t21 -2.5t24 -0.5q62 0 99.5 23t37.5 66v77h-3q-1 -3 -2.5 -9 t-11 -20.5t-22 -25.5t-38 -20t-57.5 -9q-79 0 -126 49.5t-48 127.5l-2 188h-45q-15 0 -15 15v104q0 15 15 15h164q49 0 49 -49v-214q0 -44 12 -65.5t50 -21.5q30 0 43 17.5t13 30.5v168h-36q-15 0 -15 15v104q0 15 15 15h189q15 0 15 -15zM353 619l-58 -69q-12 -14 -26 -3 l-209 159q-13 11 -2 25l73 87q14 15 26 3l194 -176q14 -12 2 -26z" />
<glyph horiz-adv-x="635" d="M305 251h6q45 0 78 16.5t33 52.5q0 21 -16 34.5t-43 13.5q-52 0 -80.5 -34t-29.5 -87l-1 -113h36q15 0 15 -15v-104q0 -15 -15 -15h-248q-15 0 -15 15v104q0 15 15 15h44v450h-44q-16 0 -14 15l-1 104q1 15 15 15h197q15 0 15 -15v-262q48 57 144 57q88 0 140 -47 t52 -113q0 -108 -123 -153l55 -51h69q15 0 15 -15v-104q0 -15 -15 -15h-109q-14 0 -27 7t-20.5 14t-21.5 23l-113 121q-8 8 -8 14v57q0 15 15 15z" />
<glyph horiz-adv-x="636" d="M305 251h29q32 0 60 17t28 52q0 21 -16 34.5t-43 13.5q-30 0 -52 -12.5t-32.5 -28.5t-17 -38t-7.5 -34t-1 -23l-1 -98h36q15 0 15 -15v-104q0 -15 -15 -15h-248q-15 0 -15 15v104q0 15 15 15h44v450h-44q-16 0 -14 15l-1 104q1 15 15 15h197q15 0 15 -15v-262 q42 57 129 57q100 0 153.5 -48t53.5 -127q0 -99 -118 -138l50 -51h69q15 0 15 -15v-104q0 -15 -15 -15h-109q-37 0 -69 44l-113 121q-8 8 -8 14v57q0 15 15 15zM296 -289v40q0 7 8 7q17 0 29 10.5t12 27.5l-2 15q-6 -3 -17 -3q-31 0 -52 21t-21 52t21 52.5t52 21.5 q38 0 60.5 -28t22.5 -77q0 -145 -105 -145q-8 0 -8 6z" />
<glyph horiz-adv-x="721" d="M364 -7q-144 0 -232 94.5t-88 275.5q0 178 91 269.5t229 91.5q137 0 225 -91t88 -270q0 -182 -85 -276t-228 -94zM364 158q127 0 127 202q0 124 -45 169l-106 -369q8 -2 24 -2zM230 360q0 -113 46 -164l105 364q-3 0 -9 0.5t-9 0.5q-133 0 -133 -201z" />
<glyph horiz-adv-x="730" d="M702 0h-41q-46 0 -86.5 14t-68.5 36t-51 48.5t-37 53.5t-23.5 49t-12.5 36l-4 14h-83v-105h86q15 0 15 -15v-116q0 -15 -15 -15h-322q-15 0 -15 15v116q0 15 15 15h64v426h-64q-15 0 -15 15v116q0 15 15 15h344q111 0 181 -68t70 -174q0 -65 -29.5 -117.5t-77.5 -77.5 q2 -5 5.5 -14.5t17 -32.5t30 -41t44 -32.5t58.5 -14.5q15 0 15 -15v-116q0 -15 -15 -15zM295 385h65q62 0 91 21t29 65q0 101 -120 101h-65v-187z" />
<glyph horiz-adv-x="567" d="M543 0h-139q-49 0 -49 49v30h-2q-2 -4 -5.5 -9.5t-17.5 -21t-31 -27t-46.5 -21t-63.5 -9.5q-77 0 -121.5 40.5t-44.5 106.5q0 72 63.5 111t183.5 39h60v1q0 61 -73 61h-42v-28q0 -15 -15 -15h-112q-15 0 -15 15v139q7 4 21.5 10.5t65.5 17t110 10.5q104 0 166 -51 t62 -160v-154h45q15 0 15 -15v-104q0 -15 -15 -15zM330 168v39h-48q-83 0 -83 -38q0 -37 57 -37q44 0 74 36z" />
<glyph horiz-adv-x="777" d="M723 0h-41q-63 0 -116 26t-83.5 63t-52 73.5t-28.5 62.5l-8 26h-99v-105h89q15 0 15 -15v-116q0 -15 -15 -15h-325q-15 0 -15 15v116q0 15 15 15h64v426h-64q-15 0 -15 15v116q0 15 15 15h276q15 0 15 -15v-116q0 -15 -15 -15h-40v-182h36q87 0 122.5 44t35.5 138h-64 q-15 0 -15 15v116q0 15 15 15h300q15 0 15 -15v-116q0 -15 -15 -15h-64q0 -171 -112 -268q2 -7 7.5 -20.5t21 -39t34 -46t48.5 -36.5t63 -16q15 0 15 -15v-116q0 -15 -15 -15z" />
<glyph horiz-adv-x="777" d="M723 0h-41q-63 0 -116 26t-83.5 63t-52 73.5t-28.5 62.5l-8 26h-99v-105h89q15 0 15 -15v-116q0 -15 -15 -15h-325q-15 0 -15 15v116q0 15 15 15h64v426h-64q-15 0 -15 15v116q0 15 15 15h276q15 0 15 -15v-116q0 -15 -15 -15h-40v-182h36q87 0 122.5 44t35.5 138h-64 q-15 0 -15 15v116q0 15 15 15h300q15 0 15 -15v-116q0 -15 -15 -15h-64q0 -171 -112 -268q2 -7 7.5 -20.5t21 -39t34 -46t48.5 -36.5t63 -16q15 0 15 -15v-116q0 -15 -15 -15zM375 -289v40q0 7 8 7q17 0 29 10.5t12 27.5l-2 15q-6 -3 -17 -3q-31 0 -52 21t-21 52t21 52.5 t52 21.5q38 0 60.5 -28t22.5 -77q0 -145 -105 -145q-8 0 -8 6z" />
<glyph horiz-adv-x="730" d="M702 0h-41q-46 0 -86.5 14t-68.5 36t-51 48.5t-37 53.5t-23.5 49t-12.5 36l-4 14h-83v-105h86q15 0 15 -15v-116q0 -15 -15 -15h-322q-15 0 -15 15v116q0 15 15 15h64v426h-64q-15 0 -15 15v116q0 15 15 15h344q111 0 181 -68t70 -174q0 -65 -29.5 -117.5t-77.5 -77.5 q2 -5 5.5 -14.5t17 -32.5t30 -41t44 -32.5t58.5 -14.5q15 0 15 -15v-116q0 -15 -15 -15zM295 385h65q62 0 91 21t29 65q0 101 -120 101h-65v-187zM514 931l-209 -159q-14 -11 -26 3l-58 69q-12 14 2 26l194 176q14 11 26 -3l73 -87q11 -14 -2 -25z" />
<glyph horiz-adv-x="730" d="M702 0h-41q-46 0 -86.5 14t-68.5 36t-51 48.5t-37 53.5t-23.5 49t-12.5 36l-4 14h-83v-105h86q15 0 15 -15v-116q0 -15 -15 -15h-322q-15 0 -15 15v116q0 15 15 15h64v426h-64q-15 0 -15 15v116q0 15 15 15h344q111 0 181 -68t70 -174q0 -65 -29.5 -117.5t-77.5 -77.5 q2 -5 5.5 -14.5t17 -32.5t30 -41t44 -32.5t58.5 -14.5q15 0 15 -15v-116q0 -15 -15 -15zM295 385h65q62 0 91 21t29 65q0 101 -120 101h-65v-187zM544 947l-177 -160q-7 -6 -14 -6t-11 4l-179 162q-12 12 -2 26l57 67q10 13 25 2l110 -105l111 105q14 12 25 -2l57 -67 q10 -14 -2 -26z" />
<glyph horiz-adv-x="730" d="M702 0h-41q-46 0 -86.5 14t-68.5 36t-51 48.5t-37 53.5t-23.5 49t-12.5 36l-4 14h-83v-105h86q15 0 15 -15v-116q0 -15 -15 -15h-322q-15 0 -15 15v116q0 15 15 15h64v426h-64q-15 0 -15 15v116q0 15 15 15h344q111 0 181 -68t70 -174q0 -65 -29.5 -117.5t-77.5 -77.5 q2 -5 5.5 -14.5t17 -32.5t30 -41t44 -32.5t58.5 -14.5q15 0 15 -15v-116q0 -15 -15 -15zM295 385h65q62 0 91 21t29 65q0 101 -120 101h-65v-187zM334 -289v40q0 7 8 7q17 0 29 10.5t12 27.5l-2 15q-6 -3 -17 -3q-31 0 -52 21t-21 52t21 52.5t52 21.5q38 0 60.5 -28 t22.5 -77q0 -145 -105 -145q-8 0 -8 6z" />
<glyph horiz-adv-x="567" d="M471 705l-209 -159q-14 -11 -26 3l-58 69q-12 14 2 26l194 176q14 11 26 -3l73 -87q11 -14 -2 -25zM543 0h-139q-49 0 -49 49v30h-2q-2 -4 -5.5 -9.5t-17.5 -21t-31 -27t-46.5 -21t-63.5 -9.5q-77 0 -121.5 40.5t-44.5 106.5q0 72 63.5 111t183.5 39h60v1q0 61 -73 61 h-42v-28q0 -15 -15 -15h-112q-15 0 -15 15v139q7 4 21.5 10.5t65.5 17t110 10.5q104 0 166 -51t62 -160v-154h45q15 0 15 -15v-104q0 -15 -15 -15zM330 168v39h-48q-83 0 -83 -38q0 -37 57 -37q44 0 74 36z" />
<glyph horiz-adv-x="567" d="M543 0h-139q-49 0 -49 49v30h-2q-2 -4 -5.5 -9.5t-17.5 -21t-31 -27t-46.5 -21t-63.5 -9.5q-77 0 -121.5 40.5t-44.5 106.5q0 72 63.5 111t183.5 39h60v1q0 61 -73 61h-42v-28q0 -15 -15 -15h-112q-15 0 -15 15v139q7 4 21.5 10.5t65.5 17t110 10.5q104 0 166 -51 t62 -160v-154h45q15 0 15 -15v-104q0 -15 -15 -15zM330 168v39h-48q-83 0 -83 -38q0 -37 57 -37q44 0 74 36zM350 700h72q8 0 13 -5t5 -13q0 -66 -46 -104.5t-117 -38.5t-115.5 38.5t-44.5 104.5q0 8 5.5 13t12.5 5h72q7 0 12.5 -5t5.5 -13q0 -23 15 -38.5t37 -15.5 q25 0 40 15t15 39q0 8 5 13t13 5z" />
<glyph horiz-adv-x="567" d="M543 0h-139q-49 0 -49 49v30h-2q-2 -4 -5.5 -9.5t-17.5 -21t-31 -27t-46.5 -21t-63.5 -9.5q-77 0 -121.5 40.5t-44.5 106.5q0 72 63.5 111t183.5 39h60v1q0 61 -73 61h-42v-28q0 -15 -15 -15h-112q-15 0 -15 15v139q7 4 21.5 10.5t65.5 17t110 10.5q104 0 166 -51 t62 -160v-154h45q15 0 15 -15v-104q0 -15 -15 -15zM330 168v39h-48q-83 0 -83 -38q0 -37 57 -37q44 0 74 36zM499 618l-57 -67q-11 -14 -25 -2l-111 101l-110 -101q-13 -13 -25 2l-57 67q-10 14 2 26l179 162q4 4 11 4q6 0 14 -6l177 -160q12 -12 2 -26z" />
<glyph horiz-adv-x="567" d="M543 0h-139q-49 0 -49 49v30h-2q-2 -4 -5.5 -9.5t-17.5 -21t-31 -27t-46.5 -21t-63.5 -9.5q-77 0 -121.5 40.5t-44.5 106.5q0 72 63.5 111t183.5 39h60v1q0 61 -73 61h-42v-28q0 -15 -15 -15h-112q-15 0 -15 15v139q7 4 21.5 10.5t65.5 17t110 10.5q104 0 166 -51 t62 -160v-154h45q15 0 15 -15v-104q0 -15 -15 -15zM330 168v39h-48q-83 0 -83 -38q0 -37 57 -37q44 0 74 36zM404 619l-58 -69q-12 -14 -26 -3l-209 159q-13 11 -2 25l73 87q14 15 26 3l194 -176q14 -12 2 -26z" />
<glyph horiz-adv-x="567" d="M543 0h-139q-49 0 -49 49v30h-2q-2 -4 -5.5 -9.5t-17.5 -21t-31 -27t-46.5 -21t-63.5 -9.5q-77 0 -121.5 40.5t-44.5 106.5q0 72 63.5 111t183.5 39h60v1q0 61 -73 61h-42v-28q0 -15 -15 -15h-112q-15 0 -15 15v139q7 4 21.5 10.5t65.5 17t110 10.5q104 0 166 -51 t62 -160v-154h45q15 0 15 -15v-104q0 -15 -15 -15zM330 168v39h-48q-83 0 -83 -38q0 -37 57 -37q44 0 74 36zM457 548h-329q-8 0 -13 5t-5 13v97q0 7 5 12.5t13 5.5h329q7 0 12.5 -5.5t5.5 -12.5v-97q0 -8 -5.5 -13t-12.5 -5z" />
<glyph horiz-adv-x="567" d="M540 -98l13 -21q10 -15 -5 -25q-43 -38 -111 -38q-44 0 -69 22.5t-25 61.5q0 34 20 60t51 38h-10q-49 0 -49 49v30h-2q-2 -4 -5.5 -9.5t-17.5 -21t-31 -27t-46.5 -21t-63.5 -9.5q-77 0 -121.5 40.5t-44.5 106.5q0 72 63.5 111t183.5 39h60v1q0 61 -73 61h-42v-28 q0 -15 -15 -15h-112q-15 0 -15 15v139q7 4 21.5 10.5t65.5 17t110 10.5q104 0 166 -51t62 -160v-154h45q15 0 15 -15v-104q0 -15 -15 -15h-43q-61 -36 -61 -77q0 -28 31 -28q23 0 45 13q16 9 25 -6zM330 168v39h-48q-83 0 -83 -38q0 -37 57 -37q44 0 74 36z" />
<glyph horiz-adv-x="567" d="M543 0h-139q-49 0 -49 49v30h-2q-2 -4 -5.5 -9.5t-17.5 -21t-31 -27t-46.5 -21t-63.5 -9.5q-77 0 -121.5 40.5t-44.5 106.5q0 72 63.5 111t183.5 39h60v1q0 61 -73 61h-42v-28q0 -15 -15 -15h-112q-15 0 -15 15v139q7 4 21.5 10.5t65.5 17t110 10.5q104 0 166 -51 t62 -160v-154h45q15 0 15 -15v-104q0 -15 -15 -15zM330 168v39h-48q-83 0 -83 -38q0 -37 57 -37q44 0 74 36zM294 546q-35 0 -59.5 25.5t-24.5 60.5t24.5 60.5t59.5 25.5t59.5 -25.5t24.5 -60.5t-24.5 -60.5t-59.5 -25.5zM294 604q11 0 18.5 8.5t7.5 19.5t-7.5 19.5 t-18.5 8.5t-18.5 -8.5t-7.5 -19.5t7.5 -19.5t18.5 -8.5z" />
<glyph horiz-adv-x="567" d="M543 0h-139q-49 0 -49 49v30h-2q-2 -4 -5.5 -9.5t-17.5 -21t-31 -27t-46.5 -21t-63.5 -9.5q-77 0 -121.5 40.5t-44.5 106.5q0 72 63.5 111t183.5 39h60v1q0 61 -73 61h-42v-28q0 -15 -15 -15h-112q-15 0 -15 15v139q7 4 21.5 10.5t65.5 17t110 10.5q104 0 166 -51 t62 -160v-154h45q15 0 15 -15v-104q0 -15 -15 -15zM330 168v39h-48q-83 0 -83 -38q0 -37 57 -37q44 0 74 36zM440 720h56q15 0 15 -15q0 -72 -29 -112.5t-89 -40.5q-37 0 -65.5 17t-49 34t-39.5 17q-20 0 -29.5 -11.5t-9.5 -47.5q0 -15 -15 -15h-56q-15 0 -15 15 q0 70 29.5 111t88.5 41q38 0 66.5 -18.5t48.5 -37t39 -18.5t29 14t10 52q0 15 15 15z" />
<glyph horiz-adv-x="567" d="M543 0h-139q-49 0 -49 49v30h-2q-2 -4 -5.5 -9.5t-17.5 -21t-31 -27t-46.5 -21t-63.5 -9.5q-77 0 -121.5 40.5t-44.5 106.5q0 72 63.5 111t183.5 39h60v1q0 61 -73 61h-42v-28q0 -15 -15 -15h-112q-15 0 -15 15v139q7 4 21.5 10.5t65.5 17t110 10.5q104 0 166 -51 t62 -160v-154h45q15 0 15 -15v-104q0 -15 -15 -15zM330 168v39h-48q-83 0 -83 -38q0 -37 57 -37q44 0 74 36zM271 627q0 -31 -21.5 -52t-52.5 -21q-30 0 -51 21t-21 52t21 52.5t51 21.5q31 0 52.5 -21.5t21.5 -52.5zM479 627q0 -31 -21.5 -52t-52.5 -21q-30 0 -51 21t-21 52 t21 52.5t51 21.5q31 0 52.5 -21.5t21.5 -52.5z" />
<glyph horiz-adv-x="733" d="M727 0h-300q-15 0 -15 15v116q0 15 15 15h63l-24 68h-200l-24 -68h64q15 0 15 -15v-116q0 -15 -15 -15h-300q-15 0 -15 15v116q0 15 15 15h66l205 540q13 32 49 32h77q40 0 53 -32l206 -540h65q15 0 15 -15v-116q0 -15 -15 -15zM423 331l-54 156h-5l-53 -156h112z" />
<glyph horiz-adv-x="733" d="M727 0h-300q-15 0 -15 15v116q0 15 15 15h63l-24 68h-200l-24 -68h64q15 0 15 -15v-116q0 -15 -15 -15h-300q-15 0 -15 15v116q0 15 15 15h66l205 540q13 32 49 32h77q40 0 53 -32l206 -540h65q15 0 15 -15v-116q0 -15 -15 -15zM423 331l-54 156h-5l-53 -156h112z M593 931l-209 -159q-14 -11 -26 3l-58 69q-12 14 2 26l194 176q14 11 26 -3l73 -87q11 -14 -2 -25z" />
<glyph horiz-adv-x="733" d="M727 0h-300q-15 0 -15 15v116q0 15 15 15h63l-24 68h-200l-24 -68h64q15 0 15 -15v-116q0 -15 -15 -15h-300q-15 0 -15 15v116q0 15 15 15h66l205 540q13 32 49 32h77q40 0 53 -32l206 -540h65q15 0 15 -15v-116q0 -15 -15 -15zM423 331l-54 156h-5l-53 -156h112z M437 926h72q7 0 12.5 -5t5.5 -13q0 -66 -46 -104.5t-117 -38.5t-115.5 38.5t-44.5 104.5q0 8 5 13t13 5h72q8 0 13 -5t5 -13q0 -23 15 -38.5t37 -15.5q24 0 39.5 15t15.5 39q0 8 5.5 13t12.5 5z" />
<glyph horiz-adv-x="733" d="M727 0h-300q-15 0 -15 15v116q0 15 15 15h63l-24 68h-200l-24 -68h64q15 0 15 -15v-116q0 -15 -15 -15h-300q-15 0 -15 15v116q0 15 15 15h66l205 540q13 32 49 32h77q40 0 53 -32l206 -540h65q15 0 15 -15v-116q0 -15 -15 -15zM423 331l-54 156h-5l-53 -156h112z M559 844l-57 -67q-11 -14 -25 -2l-111 101l-110 -101q-13 -13 -25 2l-57 67q-10 14 2 26l179 162q4 4 11 4q6 0 14 -6l177 -160q12 -12 2 -26z" />
<glyph horiz-adv-x="733" d="M727 0h-300q-15 0 -15 15v116q0 15 15 15h63l-24 68h-200l-24 -68h64q15 0 15 -15v-116q0 -15 -15 -15h-300q-15 0 -15 15v116q0 15 15 15h66l205 540q13 32 49 32h77q40 0 53 -32l206 -540h65q15 0 15 -15v-116q0 -15 -15 -15zM423 331l-54 156h-5l-53 -156h112z M336 853q0 -31 -21.5 -52t-52.5 -21q-30 0 -51 21t-21 52t21 52.5t51 21.5q31 0 52.5 -21.5t21.5 -52.5zM544 853q0 -31 -21.5 -52t-52.5 -21q-30 0 -51 21t-21 52t21 52.5t51 21.5q31 0 52.5 -21.5t21.5 -52.5z" />
<glyph horiz-adv-x="733" d="M727 0h-300q-15 0 -15 15v116q0 15 15 15h63l-24 68h-200l-24 -68h64q15 0 15 -15v-116q0 -15 -15 -15h-300q-15 0 -15 15v116q0 15 15 15h66l205 540q13 32 49 32h77q40 0 53 -32l206 -540h65q15 0 15 -15v-116q0 -15 -15 -15zM423 331l-54 156h-5l-53 -156h112z M436 845l-58 -69q-12 -14 -26 -3l-209 159q-13 11 -2 25l73 87q14 15 26 3l194 -176q14 -12 2 -26z" />
<glyph horiz-adv-x="733" d="M727 0h-300q-15 0 -15 15v116q0 15 15 15h63l-24 68h-200l-24 -68h64q15 0 15 -15v-116q0 -15 -15 -15h-300q-15 0 -15 15v116q0 15 15 15h66l205 540q13 32 49 32h77q40 0 53 -32l206 -540h65q15 0 15 -15v-116q0 -15 -15 -15zM423 331l-54 156h-5l-53 -156h112z M530 774h-329q-7 0 -12.5 5t-5.5 13v97q0 7 5.5 12.5t12.5 5.5h329q8 0 13 -5.5t5 -12.5v-97q0 -8 -5 -13t-13 -5z" />
<glyph horiz-adv-x="733" d="M728 -98l13 -21q10 -15 -5 -25q-43 -38 -111 -38q-44 0 -69 22.5t-25 61.5q0 34 20 60t51 38h-175q-15 0 -15 15v116q0 15 15 15h63l-24 68h-200l-24 -68h64q15 0 15 -15v-116q0 -15 -15 -15h-300q-15 0 -15 15v116q0 15 15 15h66l205 540q13 32 49 32h77q40 0 53 -32 l206 -540h65q15 0 15 -15v-116q0 -15 -15 -15h-39q-61 -36 -61 -77q0 -28 31 -28q23 0 45 13q16 9 25 -6zM423 331l-54 156h-5l-53 -156h112z" />
<glyph horiz-adv-x="733" d="M727 0h-300q-15 0 -15 15v116q0 15 15 15h63l-24 68h-200l-24 -68h64q15 0 15 -15v-116q0 -15 -15 -15h-300q-15 0 -15 15v116q0 15 15 15h66l205 540q13 32 49 32h77q40 0 53 -32l206 -540h65q15 0 15 -15v-116q0 -15 -15 -15zM423 331l-54 156h-5l-53 -156h112z M367 772q-35 0 -59.5 25.5t-24.5 60.5t24.5 60.5t59.5 25.5t59.5 -25.5t24.5 -60.5t-24.5 -60.5t-59.5 -25.5zM367 830q11 0 18.5 8.5t7.5 19.5t-7.5 19.5t-18.5 8.5t-18.5 -8.5t-7.5 -19.5t7.5 -19.5t18.5 -8.5z" />
<glyph horiz-adv-x="733" d="M727 0h-300q-15 0 -15 15v116q0 15 15 15h63l-24 68h-200l-24 -68h64q15 0 15 -15v-116q0 -15 -15 -15h-300q-15 0 -15 15v116q0 15 15 15h66l205 540q13 32 49 32h77q40 0 53 -32l206 -540h65q15 0 15 -15v-116q0 -15 -15 -15zM423 331l-54 156h-5l-53 -156h112z M496 946h56q15 0 15 -15q0 -72 -29 -112.5t-89 -40.5q-37 0 -65.5 17t-49 34t-39.5 17q-20 0 -29.5 -11.5t-9.5 -47.5q0 -15 -15 -15h-56q-15 0 -15 15q0 70 29.5 111t88.5 41q38 0 66.5 -18.5t48.5 -37t39 -18.5t29 14t10 52q0 15 15 15z" />
</font>
</defs>
</svg>
